<?xml version="1.0" encoding="utf-8"?>
<!-- Generator: Adobe Illustrator 26.0.1, SVG Export Plug-In . SVG Version: 6.00 Build 0)  -->
<svg version="1.1" id="Capa_2_00000127723253348041178250000002574030961932790432_"
	 xmlns="http://www.w3.org/2000/svg" xmlns:xlink="http://www.w3.org/1999/xlink" x="0px" y="0px" viewBox="0 0 15.7 17.1"
	 style="enable-background:new 0 0 15.7 17.1;" xml:space="preserve">
<style type="text/css">
	.st0{fill:#F5FFFF;}
	.st1{fill:#FFAD01;}
	.st2{fill:#FFFFFF;}
	.st3{fill:#E18425;}
	.st4{fill:#BF3E50;}
	.st5{fill:#E86877;}
	.st6{fill:#3D1219;}
	.st7{fill:#BD212F;}
	.st8{fill:#7B1312;}
	.st9{fill:#FDB93E;}
	.st10{fill:#1D1D1B;}
	.st11{fill:#7B1314;}
	.st12{fill:#D94F35;}
	.st13{fill:#AABCD4;}
	.st14{fill:#D5DCE2;}
</style>
<g id="Capa_1-2">
	<g>
		<path class="st0" d="M12.4,2.9c-0.1-0.1-0.3-0.2-0.4-0.3c-0.1-0.1-0.2-0.1-0.4-0.2l0,0c-0.1-0.1-0.3-0.2-0.4-0.2
			c-1-0.5-2.1-0.8-3.3-0.8c-0.1,0-0.2,0-0.2,0c-0.2,0-0.3,0-0.4,0l0,0c-0.1,0-0.2,0-0.3,0c-0.1,0-0.3,0-0.4,0.1
			C6.2,1.6,6,1.6,5.8,1.7l0,0c-0.2,0-0.4,0.1-0.6,0.2l0,0C4.6,2.1,4,2.4,3.4,2.8C3.3,2.9,3.2,3,3,3.1C1.2,4.6,0,6.8,0,9.3
			c0,4.3,3.5,7.8,7.8,7.8c0.9,0,1.8-0.2,2.6-0.5l0,0c0.3-0.1,0.6-0.2,0.9-0.4l0,0c0.1,0,0.1-0.1,0.2-0.1c0.1-0.1,0.2-0.1,0.4-0.2
			c0.1-0.1,0.1-0.1,0.2-0.1l0,0c0.1,0,0.1-0.1,0.2-0.1c0.1-0.1,0.2-0.1,0.2-0.2c0.1-0.1,0.2-0.1,0.3-0.2c0.1-0.1,0.3-0.2,0.4-0.4
			c0.1-0.1,0.2-0.2,0.3-0.3l0,0c0.1-0.1,0.2-0.2,0.2-0.3c0.1-0.1,0.2-0.2,0.2-0.3c1-1.3,1.6-2.9,1.6-4.7C15.7,6.6,14.4,4.3,12.4,2.9
			L12.4,2.9z M13.9,13.8c-0.1,0.1-0.2,0.2-0.2,0.3c-0.1,0.1-0.1,0.2-0.2,0.3c-0.1,0.1-0.2,0.2-0.3,0.3c-0.2,0.2-0.5,0.5-0.8,0.7
			c-0.1,0-0.1,0.1-0.2,0.1c-0.1,0.1-0.2,0.1-0.2,0.2c-0.1,0-0.1,0.1-0.1,0.1c0,0-0.1,0.1-0.1,0.1c0,0,0,0,0,0
			c-0.1,0.1-0.2,0.1-0.3,0.2c-0.5,0.2-1,0.4-1.5,0.6c-0.7,0.2-1.4,0.3-2.1,0.3c-4.2,0-7.6-3.4-7.6-7.6c0-1.6,0.5-3.1,1.4-4.4l0,0
			c0.4-0.5,0.8-1,1.3-1.4c0,0,0.1-0.1,0.1-0.1c0.1-0.1,0.1-0.1,0.2-0.2C4,2.7,4.8,2.2,5.7,2l0,0c0.2,0,0.3-0.1,0.5-0.1
			c0.1,0,0.1,0,0.2,0c0.1,0,0.2,0,0.4-0.1c0.1,0,0.2,0,0.3,0l0,0c0.1,0,0.3,0,0.4,0c0.1,0,0.2,0,0.4,0c1.2,0,2.4,0.3,3.4,0.8
			c0.1,0.1,0.3,0.2,0.4,0.2C11.8,2.8,11.9,2.9,12,3c0.1,0.1,0.2,0.2,0.4,0.3c1.8,1.4,3,3.6,3,6.1C15.4,11,14.9,12.5,13.9,13.8
			L13.9,13.8z"/>
		<path class="st0" d="M3.1,14.6c-1.5-1.3-2.4-3.2-2.4-5.4C0.7,8,1,6.8,1.6,5.8c0,0.1,0,0.2,0.1,0.3C1.7,6.4,1.8,6.7,2,6.9
			c-0.4,0.6-0.4,1.3-0.2,2c0.1,0.4,0.3,0.7,0.6,1c0.3,0.3,0.6,0.5,1,0.6c0.3,0.1,0.6,0.2,0.9,0.2C3.5,11.7,2.6,13.2,3.1,14.6
			L3.1,14.6z"/>
		<path class="st1" d="M13.6,12.2v0.4l0,0.1v0.2l-0.1-0.3l-0.1-0.3l0,0c0,0,0,0,0,0l0,0c0-0.1-0.2-0.4-0.5-0.7
			c-0.4-0.4-1-0.6-1.7-0.5c-0.1,0-0.2,0-0.4,0c-0.1,0-0.1,0-0.2,0c-0.1,0-0.1,0-0.2,0c0.1,0.1,0.1,0.3,0.2,0.4
			c0,0.1,0.1,0.3,0.1,0.4c0,0.1,0.1,0.3,0.1,0.4c0.1,0.1,0.2,0.2,0.4,0.3c0.3,0.2,0.7,0.4,1.3,0.6c0.4,0.1,0.7,0.3,1,0.5
			c-0.1,0.1-0.1,0.2-0.2,0.3s-0.2,0.2-0.2,0.3c-0.3,0.3-0.6,0.6-1,0.9c-0.1,0-0.1,0.1-0.1,0.1c-0.1,0-0.1,0.1-0.2,0.1c0,0,0,0-0.1,0
			c0,0,0,0,0,0l0,0c0,0,0,0-0.1,0c0,0,0,0,0,0c-0.1,0.1-0.2,0.1-0.3,0.2c-0.2,0.1-0.4,0.2-0.7,0.3c-0.2,0.1-0.4,0.2-0.6,0.2
			c-0.2,0-0.3,0.1-0.5,0.1c-0.2,0-0.4,0.1-0.7,0.1c-0.2,0-0.4,0-0.6,0l0,0c-0.1,0-0.1,0-0.2,0c-0.2,0-0.4,0-0.7,0
			c-0.6,0-1.1-0.2-1.7-0.4c0,0,0,0,0,0c-0.1,0-0.2-0.1-0.3-0.1c-0.4-0.2-0.8-0.4-1.2-0.6c-0.2-0.2-0.3-0.4-0.4-0.6
			c-0.8-1.5,0.7-3.4,1.1-4c0.1-0.1,0.1-0.1,0.1-0.1c0-0.1-0.1-0.2-0.1-0.2c0,0,0,0-0.1,0c-0.1,0-0.1,0-0.1,0c-0.4,0-0.7-0.1-1.1-0.2
			C3.1,10,2.8,9.8,2.6,9.6C2.4,9.3,2.2,9.1,2.1,8.7C1.9,8.2,2,7.7,2.2,7.2C2.3,7.1,2.3,7,2.4,6.9C2.3,6.8,2.3,6.7,2.2,6.5
			c0,0,0,0,0,0l0,0C2.1,6.3,2.1,6.2,2,6C2,5.8,1.9,5.5,2,5.2l0,0C2.1,5.1,2.1,5,2.2,4.8l0,0c0,0,0-0.1,0.1-0.1C2.5,4.5,2.7,4.3,3,4
			c0,0,0,0,0,0c0,0,0,0,0,0c0,0,0,0,0.1-0.1c0,0,0.1-0.1,0.1-0.1c0,0,0.1,0,0.1-0.1c0.1-0.1,0.2-0.2,0.3-0.2c0.8-0.6,1.7-1,2.7-1.2
			l0,0c0,0,0,0,0,0c0.1,0,0.2,0,0.4-0.1c0,0,0,0,0,0c0.1,0,0.2,0,0.2,0c0.1,0,0.2,0,0.4,0c0.2,0,0.3,0,0.5,0c1.3,0,2.5,0.3,3.5,0.9
			c0.1,0.1,0.2,0.2,0.4,0.2c0.1,0.1,0.2,0.1,0.3,0.2c0,0.1,0,0.2,0,0.2c-0.1,0.5-0.2,1-0.4,1.4c-0.2,0.4-0.4,0.7-0.6,1
			C11,6.2,11,6.2,10.9,6.3c0,0-0.1,0.1-0.1,0.1c0,0-0.1,0.1-0.1,0.1c0,0,0,0-0.1,0.1c0,0,0,0,0,0c-0.1,0.1-0.1,0.1-0.2,0.2
			c0,0,0.1,0,0.1,0c0.1,0,0.2,0.1,0.3,0.2l0,0c0,0,0,0,0,0c0,0,0,0,0.1,0.1c0,0.1,0.1,0.1,0.1,0.2c0.1,0.2,0.2,0.5,0.2,0.8
			c0,0.2,0,0.3-0.1,0.5C11,8.5,11,8.7,11,8.8c0.1,0,0.2,0.1,0.4,0.1C11.6,8.9,11.8,9,12,9.2c0.7,0.4,1.2,1,1.4,1.9
			C13.6,11.6,13.6,12.2,13.6,12.2L13.6,12.2z"/>
		<path class="st2" d="M13.2,13l0.1,0.2c-0.2-0.2-0.5-0.3-0.8-0.3c-0.8-0.2-1.2-0.5-1.4-0.7c0-0.2-0.1-0.5-0.1-0.7
			c0.1,0,0.2,0,0.3,0c0.1,0,0.2,0,0.4,0c0.4,0,0.8,0.1,1.1,0.4c0.2,0.2,0.4,0.5,0.4,0.6v0l0.1,0.3l0,0L13.2,13L13.2,13L13.2,13z"/>
		<path class="st0" d="M14,12.2c0-0.1,0-0.6-0.2-1.3C13.5,10,13,9.3,12.2,8.9c-0.2-0.1-0.5-0.2-0.8-0.3c0-0.2,0.1-0.4,0.1-0.6
			c0-0.1,0-0.2,0-0.4l0,0c0,0,0,0,0-0.1l0,0c0-0.1,0-0.2-0.1-0.2s-0.1-0.1-0.1-0.2c0-0.1-0.1-0.1-0.1-0.2c0,0.1,0,0.1,0,0.1
			c-0.1-0.1-0.1-0.2-0.2-0.2l0,0c0,0,0,0,0.1-0.1c0,0,0,0,0,0c0,0,0.1-0.1,0.1-0.1c0-0.1,0.1-0.1,0.1-0.2c0.3-0.3,0.5-0.7,0.7-1.1
			c0.2-0.5,0.3-1,0.4-1.5c0,0,0,0,0,0C14,5.1,15,7.1,15,9.3c0,1.4-0.4,2.6-1,3.7L14,12.2L14,12.2z"/>
		<path class="st0" d="M11.4,7.5c0-0.1,0-0.2-0.1-0.2C11.4,7.3,11.4,7.4,11.4,7.5z"/>
		<path class="st3" d="M7.7,9.8c0,0,2.2-0.2,2.2-0.2h1.7c0,0,0.6,0.5,0.6,0.5s0.6,0.3,0.6,0.4s0.6,1.3,0.6,1.3l-0.7-0.5L12.3,11
			l-0.6-0.1L11,11c0,0-0.6,0-0.7,0s-0.8-0.2-0.8-0.2l-0.8-0.3l-0.8-0.5L7.7,9.8L7.7,9.8L7.7,9.8z"/>
		<path class="st4" d="M9.6,11.6c0,0-1.2-0.5-1.5-0.9c0,0,0,0,0,0C8.4,10.9,8.7,11,8.8,11c0.1,0,0.1,0,0.2,0
			C9.3,11.1,9.5,11.4,9.6,11.6L9.6,11.6z"/>
		<path class="st5" d="M9.6,11.5l-0.2-0.3L9,10.9l-0.9-0.2l-0.2-0.1L8.1,11l1.3,1.4h0.3l0,0L9.9,12L9.6,11.5L9.6,11.5z M8.2,10.8
			C8.4,10.9,8.7,11,8.8,11c0.1,0,0.1,0,0.2,0c0.3,0.1,0.5,0.3,0.6,0.6C9.7,11.7,8.4,11.2,8.2,10.8C8.2,10.8,8.2,10.8,8.2,10.8
			L8.2,10.8z"/>
		<path class="st6" d="M9.6,11.6c-0.1-0.3-0.3-0.5-0.6-0.6c-0.1,0-0.1,0-0.2,0c-0.2,0-0.4-0.1-0.7-0.3l0,0c0,0,0,0,0-0.1
			c-0.1-0.2-0.2-0.4-0.3-0.5c0.3,0.2,0.9,0.5,1.5,0.7l0,0c0,0,0,0,0,0l0,0l0,0l0,0l0,0l0,0l0,0c0,0,0,0.1,0.1,0.1
			c0,0.1,0.1,0.1,0.1,0.1c0,0,0,0,0,0l0,0l0,0l0,0l0,0l0,0l0,0l0,0c0,0,0,0,0,0l0,0l0,0c0,0,0,0.1,0,0.1c0,0.1,0,0.1,0.1,0.2
			C9.6,11.5,9.6,11.5,9.6,11.6L9.6,11.6L9.6,11.6L9.6,11.6L9.6,11.6z"/>
		<path class="st2" d="M10.8,8.1c0,0,0,0.1,0,0.1l0,0l0,0l0,0l0,0l0,0v0c0,0,0,0,0,0.1c0,0.1,0,0.2-0.1,0.2c0,0,0,0.1,0,0.1
			c0,0,0,0,0,0c-0.1,0-0.2,0-0.3,0c0-0.1,0.1-0.1,0.1-0.2c0-0.3-0.1-0.5-0.3-0.5S9.8,8.1,9.8,8.4c0,0.1,0,0.2,0,0.3c0,0,0,0-0.1,0
			c-0.1,0-0.2,0-0.3,0.1c0.1-0.4,0.1-0.8,0-1.1c0,0,0,0,0-0.1c0,0,0,0,0,0s0,0,0,0c0,0,0-0.1,0-0.1c0,0,0,0,0,0c0,0,0,0,0,0l0,0l0,0
			l0,0c0,0,0,0,0,0s0,0,0-0.1c0,0,0,0,0,0l0,0l0,0c0,0,0.1-0.1,0.1-0.1l0,0c0,0,0,0,0,0c0,0,0,0,0.1,0c0,0,0,0,0.1,0l0,0l0,0
			c0,0,0,0,0,0c0,0,0.1,0,0.1,0l0,0c0,0,0,0,0,0c0,0,0.1,0,0.1,0l0,0c0,0,0,0,0.1,0c0,0,0,0,0,0l0,0l0,0l0,0h0c0,0,0.1,0,0.1,0l0,0
			c0,0,0,0,0,0c0,0,0,0,0.1,0c0,0,0,0,0,0c0,0,0,0,0,0l0,0h0c0,0,0,0,0,0c0,0,0,0,0.1,0.1l0,0c0,0,0,0,0,0c0,0,0,0,0,0
			c0,0,0,0.1,0.1,0.1c0,0,0,0,0,0l0,0l0,0l0,0l0,0l0,0c0,0,0,0,0,0c0,0.1,0.1,0.1,0.1,0.2c0,0,0,0.1,0,0.1c0,0,0,0,0,0l0,0
			c0,0,0,0,0,0c0,0,0,0,0,0.1C10.7,7.9,10.7,8,10.8,8.1L10.8,8.1z"/>
		<path class="st2" d="M9.2,8.4C9.2,8.4,9.2,8.4,9.2,8.4C9.2,8.4,9.2,8.4,9.2,8.4L9.2,8.4L9.2,8.4L9.2,8.4L9.2,8.4L9.2,8.4L9.2,8.4
			L9.2,8.4c0,0.1,0,0.1,0,0.1c0,0.1,0,0.1,0,0.2c0,0.1,0,0.1-0.1,0.2l0,0C9.1,8.9,9,8.9,9,8.9C9,8.8,9,8.7,9,8.6
			c0-0.3-0.2-0.5-0.4-0.5c-0.2,0-0.3,0.3-0.3,0.6c0,0.2,0.1,0.4,0.2,0.5c0,0,0,0-0.1,0C8.4,9.1,8.3,9,8.1,9c0,0,0,0,0,0
			C8,8.9,8,8.9,8,8.8c0,0,0,0,0,0l0,0l0,0l0,0l0,0l0,0l0,0l0,0l0,0l0,0l0,0c0,0,0,0,0-0.1c0-0.1-0.1-0.2-0.1-0.3c0,0,0-0.1,0-0.1
			l0,0l0,0c0,0,0,0,0,0l0,0l0,0l0,0c0,0,0,0,0,0c0,0,0,0,0-0.1c0,0,0-0.1,0-0.1c0,0,0,0,0-0.1c0,0,0,0,0,0l0,0l0,0l0,0l0,0l0,0l0,0
			l0,0l0,0l0,0l0,0l0,0l0,0l0,0l0,0v0c0,0,0,0,0-0.1c0,0,0-0.1,0-0.1c0,0,0,0,0,0c0,0,0,0,0,0c0,0,0-0.1,0.1-0.1c0,0,0,0,0-0.1l0,0
			l0,0l0,0l0,0l0,0l0,0l0,0l0,0c0,0,0,0,0,0c0,0,0,0,0,0c0,0,0,0,0.1-0.1c0,0,0,0,0,0l0,0c0,0,0,0,0,0c0,0,0.1,0,0.1-0.1
			c0,0,0,0,0,0c0,0,0,0,0,0c0.1,0,0.1,0,0.2-0.1h0l0,0l0,0l0,0c0,0,0,0,0,0c0,0,0.1,0,0.1,0c0,0,0,0,0,0c0,0,0,0,0,0l0,0l0,0l0,0
			l0,0l0,0l0,0l0,0l0,0l0,0c0,0,0,0,0.1,0c0,0,0.1,0,0.1,0c0,0,0,0,0,0s0,0,0,0c0,0,0.1,0,0.1,0c0,0,0,0,0,0c0,0,0,0,0,0
			c0,0,0.1,0,0.1,0.1c0,0,0,0,0,0l0,0l0,0c0,0.1,0.1,0.1,0.1,0.2l0,0l0,0c0,0,0,0,0,0c0,0,0,0,0,0.1c0,0,0,0.1,0,0.1c0,0,0,0,0,0.1
			c0,0,0,0,0,0l0,0l0,0l0,0c0,0,0,0.1,0,0.1C9.2,8.2,9.2,8.3,9.2,8.4L9.2,8.4z"/>
		<path class="st2" d="M9.1,16.1c-0.2,0.1-0.3,0.2-0.5,0.2c-0.2,0.1-0.4,0.1-0.7,0l0,0c0,0,0,0-0.1,0c-0.3-0.1-0.6-0.4-0.7-0.6
			C7.1,15.5,7,15.3,7,15.3c0,0.1,0,0.6,0.3,1c-0.1,0-0.1,0-0.2,0.1c-0.5,0.2-1,0.1-1.3-0.1c-0.1-0.1-0.2-0.2-0.3-0.3c0,0,0,0,0,0
			c-0.2-0.2-0.2-0.4-0.3-0.6c0-0.1-0.1-0.2-0.1-0.2c-0.1-0.2-0.1-0.3-0.1-0.3c0,0,0,0.1,0,0.2l0,0c0,0,0,0,0,0.1c0,0.1,0,0.2,0,0.4
			c-0.7-0.2-1.1-0.5-1.3-1c-0.3-0.6-0.2-1.4,0.1-2.1l0,0l0,0c0.2-0.4,0.4-0.8,0.6-1.1l0,0l0,0c0.2-0.3,0.4-0.5,0.4-0.6
			C4.9,10.9,4.9,11,5,11C5,11.1,5,11.1,5,11.2l0,0c0,0,0,0,0,0.1s0,0,0,0.1c0,0,0,0.1,0.1,0.1l0,0l0,0l0,0c0,0.1,0.1,0.1,0.1,0.1
			c0,0,0,0,0,0s0,0,0,0s0,0,0,0c0.1,0.1,0.1,0.1,0.1,0.1c0,0,0,0,0,0s0,0,0,0c0,0,0,0-0.1-0.1c0,0,0-0.1-0.1-0.1c0,0,0,0,0-0.1
			c0,0,0,0,0-0.1c0,0,0,0,0,0c0,0,0,0,0,0c0,0,0,0,0,0c0,0,0,0,0,0c0,0,0,0,0,0c0-0.1-0.1-0.1-0.1-0.2c0,0,0,0,0-0.1s0,0,0-0.1
			c0,0,0,0,0-0.1C5,11,5,11,5,11c0,0,0,0,0-0.1c0-0.1-0.1-0.2-0.1-0.3c0,0,0,0,0-0.1c0,0,0-0.1,0-0.1c0,0,0,0,0-0.1c0,0,0,0,0,0
			c0,0,0-0.1,0-0.1c0,0,0-0.1,0-0.1c0-0.1,0-0.1,0-0.1c0,0,0-0.1,0-0.1c0-0.1,0-0.1,0-0.1c0-0.1,0-0.1,0-0.2c0-0.1,0-0.2,0-0.3l0,0
			c0-0.2,0-0.5,0-0.7c0,0,0,0,0-0.1c0-0.1,0-0.1,0-0.1c0,0,0,0,0-0.1c0,0,0,0,0,0l0,0c0,0,0,0,0,0c0,0,0,0,0,0l0,0c0,0,0-0.1,0-0.1
			c0,0,0-0.1,0-0.1v0c0,0,0,0,0-0.1c0-0.1,0.1-0.3,0.1-0.4c0,0,0,0,0,0c0,0,0-0.1,0-0.1c0,0,0,0,0-0.1c0,0,0,0,0-0.1c0,0,0,0,0-0.1
			c0,0,0,0,0-0.1c0,0,0-0.1,0-0.1c0,0,0,0,0,0c0,0,0,0,0,0c0,0,0,0,0,0c0,0,0,0,0,0c0,0,0-0.1,0.1-0.1c0,0,0,0,0,0
			c0,0,0-0.1,0.1-0.1c0,0,0,0,0,0c0,0,0,0,0,0c0.2-0.3,0.6-0.5,0.9-0.7c0.5-0.2,1-0.2,1.5,0c0,0,0.1,0,0.1,0c0,0,0,0,0.1,0
			c0,0,0.1,0,0.1,0.1c0,0,0,0,0,0C8,6.4,8,6.5,8.1,6.5c0,0,0,0,0,0c0,0,0,0,0,0l0,0l0,0l0,0c0,0,0.1,0,0.1,0.1c0,0,0,0,0,0
			c0,0,0.1,0.1,0.1,0.1c0,0,0,0,0,0c0,0,0,0,0,0c0,0,0,0,0,0c0,0,0,0,0.1,0.1c-0.2,0-0.4,0-0.6,0.1C7.6,7.1,7.5,7.4,7.4,7.7
			c0,0.1,0,0.2,0,0.3c0,0,0,0,0,0.1c0,0,0,0,0,0c0,0,0,0,0,0l0,0c0,0,0,0,0,0s0,0,0,0c0,0,0,0,0,0c0,0,0,0,0,0.1s0,0,0,0.1
			c0,0,0,0,0,0.1c0,0,0,0,0,0.1c0,0,0,0.1,0,0.1c0,0,0,0,0,0l0,0c0,0,0,0,0,0c0,0,0,0,0,0.1c0,0.1,0,0.1,0.1,0.1
			C7.2,8.8,6.9,8.9,6.6,9c0,0,0,0-0.1,0c0,0,0,0,0,0l0,0c0,0,0,0,0,0l0,0c0,0,0,0,0,0l0,0c0,0,0,0,0,0l0,0c0,0,0,0,0,0l0,0
			c0,0,0,0,0,0c0,0,0,0,0,0l0,0c0,0,0,0,0,0l0,0c0,0,0,0,0,0l0,0l0,0c0,0,0,0,0,0l0,0c0,0,0,0,0,0l0,0c0,0,0,0,0,0l0,0c0,0,0,0,0,0
			c0,0,0,0,0,0c0,0,0,0.1-0.1,0.1l0,0c0,0,0,0,0,0s0,0,0,0l0,0c0,0,0,0,0,0l0,0l0,0c0,0,0,0,0,0s0,0,0,0c0,0,0,0,0,0.1c0,0,0,0,0,0
			l0,0l0,0c0,0,0,0,0,0c0,0,0,0,0,0c0,0,0,0,0,0c0,0,0,0,0,0l0,0c0,0,0,0,0,0c0,0,0,0,0,0c0,0,0,0,0,0s0,0,0,0c0,0,0,0,0,0l0,0
			c0,0.1,0,0.1,0,0.1c0,0.2,0,0.4,0.1,0.6c0,0,0,0.1,0,0.1c0.1,0.5,0.4,1,0.8,1.4c0,0,0.1,0.1,0.1,0.1c0.1,0.1,0.2,0.2,0.2,0.3l0,0
			c0,0,0,0,0.1,0.1c0,0.1,0,0.3,0,0.5c0,0,0,0.1,0,0.1s0,0.1,0,0.1l0,0c0,0,0,0.1,0,0.1c0,0,0,0.1,0,0.1c0,0,0,0.1,0,0.1
			c0,0,0,0,0,0c0,0,0,0.1,0,0.1c0,0,0,0,0,0c0,0,0,0.1,0,0.1c0,0,0,0.1,0,0.1c0,0,0,0.1,0,0.1c0,0,0,0,0,0s0,0,0,0c0,0,0,0.1,0,0.1
			c0,0,0,0,0,0.1c0,0.1,0,0.1,0.1,0.2c0,0,0,0,0,0.1c0,0,0,0,0,0.1c0,0,0,0,0,0.1c0.1,0.1,0.1,0.3,0.2,0.4c0,0,0,0,0,0.1
			c0,0.1,0.1,0.2,0.1,0.3c0,0,0,0,0,0.1c0,0.1,0.1,0.1,0.1,0.2c0,0,0,0,0,0.1c0,0.1,0.1,0.1,0.1,0.1c0,0,0,0,0,0.1
			c0.1,0.1,0.2,0.2,0.3,0.3c0,0,0,0,0.1,0c0,0,0.1,0.1,0.1,0.1c0,0,0,0,0,0C9,15.9,9,16,9,16L9.1,16.1z"/>
		<path class="st7" d="M11.7,3.2C11.7,3.2,11.7,3.2,11.7,3.2c0-0.1,0-0.1,0-0.1c0-0.1,0-0.2,0-0.3c0-0.1,0-0.2-0.1-0.3
			c0,0,0-0.1,0-0.2l0,0l0,0l0,0l0,0l0,0c0,0,0,0,0,0c0,0,0,0,0-0.1c0-0.1-0.1-0.2-0.1-0.3c0,0-0.1-0.1-0.1-0.1c0,0,0,0,0-0.1
			c0,0,0,0,0,0l0,0l0,0l0,0l0,0l0,0l0,0c-0.1-0.2-0.2-0.4-0.4-0.5l0,0l0,0c0,0,0,0,0,0c0,0,0,0,0,0c0,0,0,0-0.1,0
			c-0.1,0-0.1-0.1-0.1-0.1c-0.1,0-0.1-0.1-0.1-0.1c0,0-0.1,0-0.1-0.1c0,0,0,0-0.1,0l0,0l0,0c0,0,0,0,0,0l0,0l0,0c0,0,0,0,0,0
			s0,0,0,0c0,0-0.1,0-0.1,0c-0.1,0-0.1-0.1-0.2-0.1c-0.1,0-0.1,0-0.2-0.1c0,0-0.1,0-0.1,0h0c0,0,0,0,0,0c0,0,0,0,0,0
			c-0.1,0-0.2-0.1-0.3-0.1c-0.1,0-0.1,0-0.2,0c0,0-0.1,0-0.1,0l0,0l0,0c0,0,0,0,0,0s0,0,0,0c-0.1,0-0.2,0-0.3,0c-0.1,0-0.1,0-0.2,0
			c0,0-0.1,0-0.1,0l0,0l0,0c0,0,0,0,0,0c-0.1,0-0.2,0.1-0.3,0.1c-0.1,0-0.1,0.1-0.1,0.1c0,0-0.1,0-0.1,0l0,0l0,0l0,0l0,0
			c0,0,0,0,0,0C7.9,0.8,7.8,0.8,7.7,0.9c0,0-0.1,0.1-0.1,0.1c0,0,0,0,0,0l0,0l0,0l0,0l0,0c0,0,0,0,0,0c0,0,0,0-0.1,0.1
			c0,0-0.1,0.1-0.1,0.1l0,0c0,0,0,0,0,0c0,0,0,0,0,0c0,0,0,0,0,0.1c0,0,0,0,0,0.1l0,0l0,0l0,0c0,0,0,0,0,0c0,0,0,0.1-0.1,0.1
			c0,0,0,0,0,0.1c0,0,0,0,0,0c-0.2,0.4-0.3,1.1,0.1,2C7.3,3.5,7.2,3.4,7.1,3.2C7,3.1,6.9,2.9,6.9,2.7c-0.1,0-0.3-0.2-0.3-0.3
			C6.5,2.4,6.4,2.3,6.2,2.2c-0.1,0-0.1-0.1-0.2-0.1c0,0,0,0-0.1,0l0,0l0,0l0,0l0,0c0,0-0.1,0-0.1,0C5.8,2.1,5.7,2,5.6,2
			C5.6,2,5.5,2,5.5,2c0,0-0.1,0-0.1,0c0,0,0,0,0,0c0,0,0,0,0,0c0,0,0,0,0,0C5.2,2,5.1,2,5,2C5,2,4.9,2,4.9,2c0,0,0,0,0,0l0,0
			c0,0-0.1,0-0.1,0C4.7,2,4.6,2,4.5,2.1c0,0-0.1,0-0.1,0c0,0,0,0,0,0l0,0l0,0c0,0-0.1,0-0.1,0.1C4.2,2.2,4.1,2.2,4,2.3c0,0,0,0,0,0
			l0,0l0,0l0,0c0,0,0,0,0,0c0,0-0.1,0.1-0.1,0.1S3.8,2.5,3.8,2.5c0,0,0,0,0,0l0,0l0,0c0,0,0,0,0,0c0,0.1-0.1,0.2-0.1,0.2
			c0,0,0,0.1-0.1,0.1l0,0l0,0l0,0l0,0v0h0c0,0,0,0,0,0s0,0,0,0c0,0.1,0,0.2-0.1,0.3c0,0,0,0,0,0.1l0,0l0,0c0,0,0,0,0,0s0,0,0,0l0,0
			c0,0.1,0,0.2,0,0.3c0,0.1,0,0.2,0,0.3c0,0.3,0.1,0.7,0.3,1.1c0-0.1-0.1-0.1-0.1-0.2C3.4,4.7,3.3,4.4,3.2,4.1c0,0-0.1,0-0.1,0.1
			c0,0-0.1,0-0.1,0.1l0,0l0,0l0,0l0,0l0,0c0,0,0,0,0,0C2.9,4.3,2.8,4.4,2.8,4.4c0,0,0,0.1-0.1,0.1l0,0l0,0c0,0,0,0,0,0c0,0,0,0,0,0
			c0,0.1-0.1,0.1-0.1,0.2c0,0,0,0,0,0.1c0,0,0,0,0,0l0,0l0,0l0,0l0,0l0,0l0,0l0,0l0,0l0,0l0,0l0,0c0,0,0,0,0,0c0,0,0,0,0,0.1
			c0,0.1,0,0.1-0.1,0.2c0,0,0,0.1,0,0.1c0,0,0,0,0,0l0,0l0,0l0,0l0,0l0,0l0,0c0,0,0,0,0,0c0,0.1,0,0.3,0,0.4c0,0,0,0,0,0.1l0,0l0,0
			c0,0,0,0,0,0l0,0c0,0,0,0.1,0,0.1c0,0.1,0,0.1,0,0.2c0,0,0,0.1,0,0.1l0,0c0,0,0,0.1,0,0.1c0,0,0,0,0,0l0,0l0,0l0,0l0,0l0,0l0,0
			c0,0,0,0,0,0l0,0c0,0.1,0.1,0.2,0.2,0.4c0,0.1,0.1,0.1,0.1,0.2c0.2,0.3,0.3,0.5,0.5,0.7l0,0l0,0c0,0,0,0,0,0c0,0-0.1,0-0.1-0.1
			C3.1,7.4,2.9,7.2,2.8,7.1c0,0,0,0.1,0,0.1c0,0.1-0.1,0.1-0.1,0.2l0,0l0,0l0,0l0,0l0,0l0,0c0,0,0,0,0,0c0,0,0,0,0,0.1
			c0,0,0,0.1,0,0.1s0,0.1,0,0.1c0,0,0,0,0,0.1c0,0,0,0,0,0c0,0,0,0,0,0l0,0l0,0c0,0,0,0.1,0,0.1s0,0.1,0,0.1c0,0.1,0,0.2,0,0.2v0
			c0,0,0,0,0,0v0c0,0,0,0,0,0.1c0,0,0,0.1,0,0.1c0,0.1,0,0.1,0.1,0.2c0,0,0,0,0,0l0,0l0,0l0,0l0,0l0,0l0,0l0,0l0,0l0,0c0,0,0,0,0,0
			c0,0,0,0.1,0,0.1c0,0.1,0.1,0.1,0.1,0.2c0,0,0,0.1,0.1,0.1l0,0l0,0l0,0c0,0,0,0,0,0c0,0,0,0,0,0C2.9,9.2,3,9.3,3,9.3
			c0,0,0.1,0.1,0.1,0.1c0,0,0,0,0,0l0,0c0,0,0,0,0,0c0.1,0,0.1,0.1,0.2,0.1c0,0,0.1,0,0.1,0.1c0,0,0,0,0.1,0c0,0,0,0,0,0l0,0l0,0
			l0,0l0,0l0,0l0,0c0.1,0,0.2,0.1,0.2,0.1c0.1,0,0.2,0,0.2,0.1c0,0,0.1,0,0.1,0c0,0,0,0,0,0l0,0l0,0c0,0,0,0,0.1,0
			c0.2,0,0.3,0,0.5,0C4.7,9.5,4.6,9.2,4.6,8.8v0c0-0.2,0-0.4,0-0.6c0-0.1,0-0.2,0-0.3c0-0.2,0.1-0.4,0.2-0.6C4.9,7,5,6.8,5.2,6.6
			l0,0c0.1-0.1,0.1-0.1,0.1-0.1l0,0l0,0c0.3-0.3,0.6-0.5,1-0.7c0.6-0.2,1.2-0.2,1.7,0C8.8,6.2,9.2,6.7,9.3,7C9.3,7,9.4,7,9.4,7.1
			c0,0,0,0,0-0.1c0,0,0,0,0,0c0.1-0.1,0.1-0.2,0.2-0.2c0,0,0,0,0.1,0c0,0,0,0,0,0c0.1,0,0.1,0,0.1-0.1c0,0,0,0,0.1,0c0,0,0,0,0,0
			l0,0l0,0l0,0l0,0l0,0l0,0c0,0,0,0,0,0c0.2-0.1,0.3-0.2,0.5-0.4c0,0,0,0,0.1-0.1l0,0l0,0l0,0l0,0l0,0c0,0,0.1-0.1,0.1-0.1
			c0-0.1,0.1-0.1,0.1-0.1c0,0,0.1-0.1,0.1-0.1c0.1-0.1,0.1-0.2,0.2-0.3c0,0,0-0.1,0.1-0.1c0,0,0,0,0,0c0,0,0,0,0,0l0,0l0,0l0,0l0,0
			l0,0c0,0,0.1-0.1,0.1-0.1c0.1-0.2,0.2-0.4,0.3-0.6c0-0.1,0.1-0.2,0.1-0.3c0,0,0,0,0,0l0,0l0,0l0,0l0,0l0,0l0,0l0,0l0,0
			c0,0,0,0,0,0c0,0,0-0.1,0-0.1c0-0.1,0-0.1,0-0.2C11.8,3.7,11.8,3.5,11.7,3.2C11.8,3.2,11.8,3.2,11.7,3.2l0.1-0.1l0,0L11.7,3.2z
			 M7.2,1.7C7.2,1.7,7.2,1.6,7.2,1.7C7.2,1.6,7.2,1.7,7.2,1.7z M7.3,1.4L7.3,1.4L7.3,1.4L7.3,1.4z M7.4,3.6L7.4,3.6L7.4,3.6L7.4,3.6
			z"/>
		<path class="st8" d="M11.5,15.5c-0.1,0.2-0.3,0.6-0.7,0.8c-0.3,0.1-0.7,0.1-1.1-0.2c-1.5-0.9-1.9-2.5-1.9-3.5
			C7.8,12.6,9.4,17.4,11.5,15.5L11.5,15.5z"/>
		<path class="st7" d="M13.1,15.6c-0.4,0.1-0.6,0.1-0.9,0c-0.1,0-0.2-0.1-0.3-0.1l0,0l0,0c-0.2-0.1-0.4-0.3-0.5-0.5
			c-0.2-0.3-0.3-0.5-0.3-0.5c0,0,0.2,0.6,0.5,1c-2.1,1.9-3.7-2.9-3.7-2.9C8,12.7,8.1,12.9,8.3,13c0.1,0.1,0.2,0.2,0.3,0.2
			c0.5,0.4,1.1,0.7,1.6,0.7c0.1,0,0.1,0,0.2,0l0.1,0l0-0.1c0,0,0.2-0.5,0.2-1.1c0.3,0.3,0.8,0.7,1.6,0.9c0.6,0.1,1.2,0.7,1.3,1.2
			C13.7,15.1,13.5,15.4,13.1,15.6L13.1,15.6z"/>
		<path class="st9" d="M13.4,11.7c0,0,0-0.1-0.1-0.1c-0.1-0.1-0.2-0.3-0.2-0.4c-0.1-0.2-0.3-0.4-0.5-0.6c-0.6-0.6-1.3-0.8-2.1-0.6
			c-0.9,0.2-1.6,0.1-2.2,0l0,0C8,9.9,7.8,9.8,7.7,9.8c0,0,0,0,0,0l0,0l0,0h0l0,0c-0.1,0-0.2-0.1-0.3-0.1l0.1,0.2
			c0,0.1,1.1,2.4,2.2,2.7l0,0c0,0,0.1,0,0.1-0.1c0.2-0.5,0.2-1,0-1.5c0,0,0-0.1-0.1-0.1c0.1,0,0.3,0.1,0.4,0.1
			c0.6,1.1,0.3,2.3,0.2,2.6c-0.4,0.1-1.1-0.3-1.9-0.9c-0.2-0.2-0.4-0.4-0.6-0.6l0,0C7.7,12.1,7.6,12,7.6,12
			c-0.5-0.7-0.8-1.6-0.8-1.6c0,0.2,0,0.3,0,0.5c-0.1-0.2-0.1-0.4-0.2-0.6c0-0.1,0-0.2,0-0.3c0,0,0,0,0-0.1c0-0.1,0-0.2,0.1-0.3
			c0.1-0.1,0.1-0.3,0.3-0.3c0.2-0.1,0.6-0.1,0.9,0c0,0,0,0,0.1,0c0.3,0.1,0.6,0.2,0.6,0.2l0.1,0l0.1,0C8.8,9.2,9.6,8.9,10.6,9
			c0.1,0,0.1,0,0.2,0c0.3,0.1,0.7,0.2,1.1,0.4c0.4,0.2,0.7,0.5,0.9,0.9l0,0l0,0c0.1,0.2,0.2,0.3,0.2,0.5l0,0
			C13.2,11.1,13.3,11.5,13.4,11.7L13.4,11.7z"/>
		<path class="st10" d="M10.4,11.1c-0.1,0-0.2,0-0.3,0c0,0,0,0,0-0.1l0.2-0.1C10.3,11,10.3,11,10.4,11.1L10.4,11.1z"/>
		<path class="st10" d="M7.6,12c0.1,0.1,0.2,0.2,0.2,0.2C7.7,12.1,7.6,12.1,7.6,12z"/>
		<path class="st10" d="M10.4,11.1c-0.1,0-0.2,0-0.3,0c0,0,0,0,0-0.1l0.2-0.1C10.3,11,10.3,11,10.4,11.1L10.4,11.1z"/>
		<path class="st10" d="M4.7,10.3c0.1,0,0.1-0.1,0-0.1S4.6,10.3,4.7,10.3L4.7,10.3z"/>
		<polygon class="st10" points="7.3,1.4 7.3,1.4 7.3,1.4 		"/>
		<polygon class="st10" points="7.4,3.6 7.4,3.6 7.4,3.6 		"/>
		<polygon class="st10" points="7.4,3.6 7.4,3.6 7.4,3.6 		"/>
		<polygon class="st10" points="7.4,3.6 7.4,3.6 7.4,3.6 		"/>
		<path class="st10" d="M9.7,12.6c0,0-0.1,0.1-0.1,0.1c0,0,0,0,0,0c-0.1,0-0.1-0.1,0-0.2v0l0,0l0,0l0,0c0,0,0,0,0,0s0,0,0,0
			c0,0,0,0,0,0c0,0,0,0,0-0.1c0-0.1,0-0.1,0-0.2c0,0,0,0,0,0l0,0l0,0l0,0l0,0l0,0l0,0c0,0,0,0,0,0c0,0,0-0.1,0-0.1
			c0-0.1,0-0.1,0-0.2c0,0,0-0.1,0-0.1c0,0,0,0,0,0l0,0l0,0l0,0l0,0l0,0c0-0.1,0-0.1,0-0.2c0-0.1,0-0.1-0.1-0.2c0,0,0-0.1,0-0.1l0,0
			l0,0c0,0,0,0,0,0l0,0l0,0l0,0l0,0l0,0l0,0l0,0c0,0,0,0,0,0c0-0.1-0.1-0.1-0.1-0.1c0,0,0-0.1-0.1-0.1l0,0l0,0l0,0l0,0l0,0l0,0
			c0,0,0,0,0,0l0,0c0-0.1,0-0.1,0-0.2c0,0,0.1-0.1,0.2,0c0.1,0.1,0.1,0.2,0.2,0.2c0,0,0,0.1,0.1,0.1C9.9,11.6,9.9,12.2,9.7,12.6
			L9.7,12.6z"/>
		<polygon class="st10" points="7,2.2 7,2.2 7,2.2 		"/>
		<polygon class="st10" points="7,2.2 7,2.2 7,2.2 		"/>
		<path class="st10" d="M7.2,1.6C7.2,1.6,7.2,1.7,7.2,1.6C7.2,1.6,7.2,1.6,7.2,1.6z"/>
		<polygon class="st10" points="3.2,7.6 3.2,7.6 3.2,7.6 		"/>
		<path class="st10" d="M7.7,9.8C7.7,9.8,7.7,9.8,7.7,9.8L7.7,9.8C7.7,9.8,7.7,9.8,7.7,9.8L7.7,9.8z"/>
		<path class="st11" d="M11.9,3.9l-0.3,1L11,6L10.9,6l0,0l-0.3,0.3l-0.1,0.1l-0.1,0.1l0,0l-0.1,0.1L10,6.8l0,0L9.9,6.8l0,0L9.7,6.9
			L9.5,7.1L9.4,7.4L9.3,7.6L9.2,7.4L9,7.3L9,7.2l0,0l0,0L8.9,7.1L8.8,6.9L8.7,6.8L8.6,6.7L8.2,6.4L7.7,6.1L7.1,5.9L6.4,6L5.9,6.2
			L5.6,6.4L5.4,6.7L5.2,6.8L5.1,6.9L4.9,7v0.4L4.7,7.7L4.6,7.8V8v0.1l0,0l0,0.3L4.5,9.1l0,0.1l0.1,0.5L4.7,10l0,0l0,0.1H4L3.4,9.9
			L2.8,9.7L2.5,9.3L2.2,8.6L2.1,7.8l0.2-0.4l0-0.1L2.5,7l0.1-0.1L2.4,6.8L2.2,6.5l0,0l0,0L2.1,5.6l0.1-0.3l0.1-0.5l0-0.2l0.3-0.4
			l0,0L3,4h0l0.1,0V3.4l0.2-0.1h0l0,0c0,0.1,0,0.3,0,0.4c0,0.2,0.1,0.5,0.2,0.7c0.5,1,1.6,1.4,2.8,1.5c0.4,0,0.8,0,1.2,0
			c0.6,0,1.1-0.1,1.6-0.1c0.7-0.1,1.3-0.3,1.6-0.7l0,0c0.7-0.6,0.8-1.4,0.8-1.5l0,0L11.9,3.9L11.9,3.9z"/>
		<path class="st10" d="M10.4,8.5c0,0.1,0,0.2-0.1,0.2c-0.1,0.1-0.2,0.2-0.3,0.2c-0.1,0-0.2-0.1-0.2-0.2c0-0.1-0.1-0.2,0-0.3
			c0-0.3,0.2-0.5,0.4-0.5C10.4,8,10.5,8.2,10.4,8.5z"/>
		<path class="st7" d="M11.5,15.5c-2.1,1.9-3.7-2.9-3.7-2.9l0.8,0.6L11.5,15.5L11.5,15.5z"/>
		<path class="st8" d="M11,14.5c0,0,1,1.5,2.4,0.9L13,15.8l-0.5,0.1l-0.6-0.1l-0.2-0.2l-0.4-0.4L11,14.5L11,14.5z"/>
		<path class="st10" d="M13.2,15.9C13,16,12.7,16,12.5,16c-0.2,0-0.4,0-0.6-0.1c0,0,0,0,0,0c-0.1,0-0.1-0.1-0.2-0.1c0,0,0,0,0,0
			c-0.1-0.1-0.2-0.2-0.2-0.3c0,0,0,0,0-0.1c-0.3-0.4-0.4-0.9-0.4-1l0,0c0,0,0,0,0.1,0.1l0,0c0.1,0.1,0.1,0.2,0.3,0.4
			c0.1,0.1,0.2,0.2,0.3,0.3c0.1,0.1,0.1,0.1,0.2,0.1c0,0,0,0,0,0c0.1,0,0.1,0.1,0.2,0.1c0,0,0.1,0,0.1,0c0.1,0,0.1,0,0.2,0
			c0.2,0,0.4,0,0.7-0.1c0.2-0.1,0.3-0.1,0.4-0.2l0,0c0.1-0.1,0.2-0.3,0.2-0.6c0-0.1,0-0.1,0-0.2c0-0.1-0.1-0.2-0.1-0.2
			c-0.1-0.1-0.2-0.2-0.3-0.4c-0.2-0.2-0.5-0.4-0.9-0.4c-0.6-0.1-1-0.3-1.3-0.5c-0.1-0.1-0.3-0.2-0.4-0.3c-0.2-0.2-0.2-0.3-0.2-0.3
			l0.2-0.1c0,0,0,0,0,0c0.1,0.1,0.2,0.2,0.4,0.3c0.3,0.2,0.7,0.4,1.3,0.6c0.4,0.1,0.7,0.3,1,0.5c0.1,0.1,0.2,0.2,0.3,0.4
			c0.1,0.1,0.1,0.1,0.1,0.2c0.1,0.1,0.1,0.3,0.1,0.4C14,15.3,13.7,15.7,13.2,15.9L13.2,15.9z"/>
		<polygon class="st10" points="3.2,9.3 3.2,9.3 3.2,9.3 		"/>
		<path class="st10" d="M4.8,10.2C4.8,10.2,4.8,10.2,4.8,10.2L4.8,10.2c0,0.1,0,0.1-0.1,0.1l0,0l0,0c0,0,0,0-0.1,0
			c-0.1,0-0.1,0-0.1,0c-0.4,0-0.7-0.1-1.1-0.2C3.1,10,2.8,9.8,2.6,9.6C2.3,9.3,2.2,9.1,2.1,8.7C1.9,8.2,2,7.7,2.2,7.2
			C2.2,7.1,2.3,7,2.4,6.9c0,0,0-0.1,0.1-0.1l0,0c0-0.1,0.1-0.1,0.2,0c0,0.1,0.1,0.1,0.1,0.2c0,0,0,0.1,0,0.1c0,0,0,0,0,0l0,0l0,0
			l0,0l0,0c0,0,0,0,0,0.1c0,0,0,0,0,0c0,0,0,0.1,0,0.1c0,0.1-0.1,0.1-0.1,0.2l0,0l0,0l0,0l0,0c0,0,0,0,0,0l0,0c0,0,0,0,0,0l0,0
			c0,0,0,0,0,0.1c0,0,0,0.1,0,0.1s0,0.1,0,0.1c0,0,0,0,0,0.1c0,0,0,0,0,0c0,0,0,0,0,0l0,0l0,0c0,0,0,0.1,0,0.1s0,0.1,0,0.1
			c0,0.1,0,0.2,0,0.2v0c0,0,0,0,0,0v0c0,0,0,0,0,0.1c0,0,0,0.1,0,0.1c0,0.1,0,0.1,0.1,0.2c0,0,0,0,0,0l0,0l0,0l0,0l0,0l0,0l0,0l0,0
			l0,0l0,0c0,0,0,0,0,0c0,0,0,0.1,0,0.1c0,0.1,0.1,0.1,0.1,0.2c0,0,0,0.1,0.1,0.1l0,0l0,0l0,0c0,0,0,0,0,0s0,0,0,0
			c0,0.1,0.1,0.1,0.2,0.2c0,0,0.1,0.1,0.1,0.1c0,0,0,0,0,0l0,0c0,0,0,0,0,0l0,0c0.1,0,0.1,0.1,0.2,0.1c0,0,0.1,0,0.1,0.1
			c0,0,0,0,0.1,0c0,0,0,0,0,0l0,0l0,0l0,0l0,0l0,0l0,0c0.1,0,0.2,0.1,0.2,0.1c0.1,0,0.2,0,0.2,0.1c0,0,0.1,0,0.1,0c0,0,0,0,0,0l0,0
			l0,0c0,0,0,0,0.1,0c0.2,0,0.3,0,0.5,0c0,0,0,0,0,0c0,0,0,0,0,0c0,0,0,0,0,0l0,0c0,0,0.1,0,0.1,0.1l0,0c0,0,0,0.1,0,0.1L4.8,10.2z"
			/>
		<path class="st10" d="M9.2,7.2L8.9,7.3c0,0-0.1-0.2-0.3-0.4C8.4,6.7,8.2,6.5,7.7,6.3c-0.5-0.2-1-0.2-1.5,0
			C5.9,6.4,5.5,6.6,5.3,6.9c0,0,0,0,0,0C5.1,7.1,5,7.3,4.9,7.6C4.8,7.7,4.8,7.9,4.7,8.1l0,0l0,0c-0.1,0.4-0.1,0.8,0,1.3
			C4.8,10,4.9,10.6,5,11c0-0.1-0.1-0.1-0.1-0.2s-0.1-0.1-0.1-0.2l0,0c0,0,0-0.1,0-0.1c0-0.1,0-0.2-0.1-0.2l0,0c0-0.1,0-0.2-0.1-0.3
			C4.6,9.7,4.5,9.4,4.5,9l0,0c0,0,0-0.1,0-0.1c0-0.1,0-0.2,0-0.3c0-0.1,0-0.2,0-0.3c0-0.1,0-0.2,0-0.3c0-0.2,0.1-0.4,0.2-0.6
			C4.8,7.2,4.9,7,5,6.8l0,0c0,0,0.1-0.1,0.1-0.1l0,0l0,0l0,0c0.3-0.3,0.6-0.5,1-0.7c0.6-0.2,1.2-0.2,1.7,0C8.7,6.4,9,6.9,9.2,7.2
			C9.1,7.2,9.1,7.2,9.2,7.2L9.2,7.2z"/>
		<path class="st10" d="M5.3,6.8L5.3,6.8c0,0.1,0,0.1,0,0.1C5.2,7.1,4.8,7.6,4.7,8.3l0,0c0,0.3-0.1,0.6,0,1l0,0l0,0L4.5,9l0,0l0,0
			l0,0l0.1-0.5L4.7,8l0-0.1l0.1-0.7L5,7.1l0,0L5.3,6.8L5.3,6.8z"/>
		<path class="st12" d="M11,1.2c0,0-2.7-1.4-4,0.7V1.4l0.5-0.6l0.6-0.5L9,0.2h0.6l0.7,0.1l0.4,0.4L11,1.2L11,1.2z"/>
		<path class="st12" d="M6.8,2.7c0,0-2-1.4-3.5,0.1l0-0.2l0.6-0.5l0.8-0.2l0.4,0l0.4,0l0.4,0.2L6.1,2l0.4,0.2l0.3,0.1L6.8,2.7
			L6.8,2.7z"/>
		<path class="st10" d="M6.8,2.2C6.8,2.2,6.8,2.2,6.8,2.2C6.8,2.2,6.7,2.2,6.8,2.2C6.6,2.1,6.5,2,6.4,1.9c-0.1,0-0.1-0.1-0.2-0.1
			c0,0,0,0,0,0C6.1,1.8,5.9,1.7,5.8,1.7l0,0c-0.1,0-0.3-0.1-0.4-0.1C5,1.5,4.5,1.6,4.1,1.7C3.7,1.9,3.4,2.2,3.2,2.5
			C3.1,2.7,3,2.9,3,3.1c0,0.1,0,0.2,0,0.3c0,0,0,0,0,0.1c0,0.1,0,0.1,0,0.2c0,0.1,0,0.1,0,0.2C3,3.9,3,3.9,3,4c0,0,0,0,0,0
			c0,0,0,0,0,0c0,0,0,0.1,0,0.1c0,0.1,0,0.2,0.1,0.3l0,0c0,0,0,0.1,0,0.1C3.2,4.6,3.3,4.8,3.4,5c0,0.1,0.1,0.1,0.1,0.2
			C3.4,4.9,3.3,4.6,3.3,4.4c0-0.1,0-0.3,0-0.4c0-0.1,0-0.1,0-0.2c0,0,0-0.1,0-0.1c0-0.1,0-0.2,0-0.3l0,0c0,0,0,0,0,0l0,0
			c0,0,0,0,0,0l0,0l0,0c0,0,0,0,0-0.1c0,0,0,0,0,0c0-0.1,0-0.2,0.1-0.2c0,0,0,0,0,0c0,0,0,0,0,0l0,0v0h0l0,0l0,0l0,0c0,0,0,0,0-0.1
			c0,0,0,0,0,0c0-0.1,0.1-0.2,0.1-0.2c0,0,0,0,0,0l0,0l0,0c0,0,0,0,0,0c0,0,0.1-0.1,0.1-0.1s0.1-0.1,0.1-0.1c0,0,0,0,0,0l0,0l0,0
			l0,0c0,0,0,0,0,0c0.1,0,0.1-0.1,0.2-0.1c0,0,0.1,0,0.1-0.1l0,0l0,0c0,0,0,0,0,0c0,0,0,0,0.1,0c0.1,0,0.2,0,0.3-0.1
			c0,0,0.1,0,0.1,0l0,0c0,0,0,0,0,0c0.1,0,0.1,0,0.2,0c0.1,0,0.2,0,0.3,0c0,0,0,0,0,0c0,0,0,0,0,0c0,0,0,0,0,0c0,0,0,0,0,0
			s0.1,0,0.1,0c0.1,0,0.1,0,0.2,0C5.5,2,5.6,2,5.6,2l0,0c0,0,0.1,0,0.1,0c0,0,0.1,0,0.1,0l0,0l0,0l0,0l0,0c0,0,0,0,0.1,0
			c0.1,0,0.1,0,0.2,0.1c0.1,0,0.1,0.1,0.2,0.1l0,0c0,0,0,0,0,0c0,0,0.1,0,0.1,0.1c0.1,0,0.3,0.2,0.3,0.3l0,0c0.1,0,0-0.1,0.1-0.2
			C6.8,2.4,6.8,2.3,6.8,2.2L6.8,2.2z"/>
		<path class="st10" d="M12,3.5c0,0.1,0,0.2,0,0.2c-0.1,0.5-0.2,1-0.4,1.4c-0.2,0.4-0.4,0.7-0.6,1c-0.1,0.1-0.1,0.1-0.1,0.2
			c0,0-0.1,0.1-0.1,0.1c0,0-0.1,0.1-0.1,0.1c0,0,0,0-0.1,0.1c0,0,0,0,0,0c-0.1,0.1-0.1,0.1-0.2,0.2c0,0-0.1,0.1-0.1,0.1c0,0,0,0,0,0
			C10.1,7,10,7,9.9,7.1c0,0,0,0,0,0c0,0,0,0-0.1,0c0,0,0,0,0,0l0,0c0,0-0.1,0-0.1,0c0,0,0,0-0.1,0c0,0,0,0,0,0l0,0l0,0l0,0
			c0,0,0,0,0,0c0,0,0,0-0.1,0c0,0,0,0,0,0c0,0,0,0,0,0c0,0,0,0,0.1,0l0,0l0,0c0,0,0,0,0,0l0,0l0,0c0,0,0,0,0.1,0s0,0,0.1,0
			c0,0,0,0,0,0l0,0l0,0l0,0l0,0l0,0l0,0c0,0,0,0,0,0c0,0,0.1,0,0.1-0.1c0,0,0,0,0.1,0c0,0,0,0,0.1,0c0,0,0,0,0,0l0,0l0,0
			c0,0,0,0,0.1,0l0,0l0,0l0,0c0,0,0,0,0.1,0c0,0,0,0,0.1-0.1c0,0,0.1,0,0.1-0.1c0,0,0,0,0.1-0.1l0,0l0,0l0,0l0,0
			c0,0,0.1-0.1,0.1-0.1c0-0.1,0.1-0.1,0.1-0.1l0,0c0,0,0.1-0.1,0.1-0.1c0.1-0.1,0.1-0.2,0.2-0.3c0,0,0-0.1,0.1-0.1c0,0,0,0,0,0
			c0,0,0,0,0,0l0,0l0,0l0,0l0,0l0,0c0,0,0.1-0.1,0.1-0.1c0.1-0.2,0.2-0.4,0.3-0.6c0-0.1,0.1-0.2,0.1-0.3c0,0,0,0,0,0l0,0l0,0l0,0
			l0,0l0,0l0,0l0,0l0,0c0,0,0,0,0,0c0,0,0-0.1,0-0.1c0-0.1,0-0.1,0-0.2c0,0,0-0.1,0-0.1c0,0,0,0,0,0l0,0c0,0,0-0.1,0-0.1
			c0,0,0-0.1,0-0.1l0,0c0,0,0,0,0-0.1s0-0.1,0-0.1l0,0c0-0.1,0-0.1,0-0.2c0,0,0,0,0-0.1c0,0,0,0,0,0c0,0,0,0,0-0.1v0l0,0v0
			c0,0,0-0.1,0-0.1c0-0.1,0-0.2,0-0.3l0,0c0-0.1,0-0.2-0.1-0.3l0,0c0,0,0-0.1,0-0.2l0,0l0,0l0,0l0,0l0,0c0,0,0,0,0,0c0,0,0,0,0-0.1
			c0-0.1-0.1-0.2-0.1-0.3c0,0-0.1-0.1-0.1-0.1c0,0,0,0,0-0.1c0,0,0,0,0,0l0,0l0,0l0,0l0,0l0,0l0,0c-0.1-0.2-0.2-0.4-0.4-0.5l0,0l0,0
			c0,0,0,0,0,0c0,0,0,0,0,0c0,0,0,0-0.1,0c-0.1,0-0.1-0.1-0.1-0.1c-0.1,0-0.1-0.1-0.1-0.1c0,0-0.1,0-0.1-0.1c0,0,0,0-0.1,0l0,0l0,0
			c0,0,0,0,0,0c0,0,0,0,0,0c0,0,0,0,0,0s0,0,0,0s0,0,0,0c0,0-0.1,0-0.1,0c-0.1,0-0.1-0.1-0.2-0.1c-0.1,0-0.1,0-0.2-0.1
			c0,0-0.1,0-0.1,0l0,0l0,0c0,0,0,0,0,0l0,0c0,0,0,0,0,0c-0.1,0-0.2-0.1-0.3-0.1c-0.1,0-0.1,0-0.2,0c0,0-0.1,0-0.1,0l0,0l0,0
			c0,0,0,0,0,0s0,0,0,0c-0.1,0-0.2,0-0.3,0c-0.1,0-0.1,0-0.2,0c0,0-0.1,0-0.1,0l0,0l0,0c0,0,0,0,0,0c-0.1,0-0.2,0.1-0.3,0.1
			C8.1,0.7,8,0.7,8,0.8c0,0-0.1,0-0.1,0l0,0l0,0l0,0l0,0c0,0,0,0,0,0C7.8,0.9,7.7,0.9,7.6,1c0,0-0.1,0.1-0.1,0.1c0,0,0,0,0,0l0,0
			l0,0l0,0l0,0c0,0,0,0,0,0c0,0,0,0-0.1,0.1c0,0-0.1,0.1-0.1,0.1l0,0c0,0,0,0,0,0c0,0,0,0,0,0c0,0,0,0,0,0.1c0,0,0,0,0,0.1l0,0l0,0
			l0,0c0,0,0,0,0,0c0,0,0,0.1,0,0.1l0,0c0,0,0,0,0,0c0,0,0,0,0,0.1c0,0,0,0,0,0s0,0,0,0s0,0,0,0c0,0,0,0,0,0c0,0,0,0,0,0
			c0,0,0,0,0,0c0,0,0,0,0,0C7,2,7,2,7,2c0,0,0,0,0,0l0,0c0,0,0,0,0,0c0,0,0,0,0,0s0,0,0,0c0,0,0,0,0,0s0,0,0,0s0,0,0,0l0,0l0,0l0,0
			c0,0,0,0,0,0c0,0,0,0,0,0c0,0.4,0,0.8,0.3,1.3C7.2,3.5,7.1,3.4,7,3.3C6.9,3.1,6.9,2.9,6.8,2.7l0,0c0-0.1-0.1-0.3-0.1-0.4v0
			c0-0.1,0-0.3,0-0.4c0,0,0,0,0,0l0,0c0-0.1,0-0.2,0.1-0.3C7,1.2,7.2,0.9,7.5,0.7c0.3-0.3,0.8-0.5,1.2-0.6c0.5-0.1,1,0,1.4,0.1
			c0.5,0.2,0.9,0.5,1.2,0.9c0.3,0.4,0.5,0.8,0.6,1.2c0,0.1,0,0.2,0.1,0.3s0,0.2,0,0.3C12.1,3.2,12.1,3.4,12,3.5L12,3.5z"/>
		<path class="st12" d="M3.1,4.4c0,0-0.8,0.5-0.9,1.3L2.1,5.3l0.1-0.6l0.3-0.4L3.1,4C3.1,4,3.1,4.4,3.1,4.4z"/>
		<path class="st10" d="M3.2,7.6C3.2,7.6,3.2,7.6,3.2,7.6c-0.1,0-0.1-0.1-0.1-0.1C3,7.5,2.9,7.4,2.9,7.4C2.8,7.3,2.7,7.2,2.6,7.1
			c0,0-0.1-0.1-0.1-0.1S2.4,6.9,2.4,6.9l0,0C2.3,6.8,2.3,6.7,2.2,6.5c0,0,0,0,0,0l0,0C2.1,6.4,2.1,6.2,2,6C1.9,5.8,1.9,5.5,2,5.2
			l0,0c0,0,0-0.1,0-0.1c0-0.3,0.2-0.6,0.4-0.8C2.5,4.1,2.7,3.9,3,3.8c0,0,0.1,0,0.1-0.1c0,0,0,0,0,0c0,0,0.1,0,0.1,0
			c0,0,0,0.1,0,0.1c0,0.1,0,0.1,0,0.2c0,0,0,0,0,0c0,0,0,0,0,0c0,0,0,0,0,0c0,0,0,0,0,0l0,0l0,0c0,0,0,0,0,0s0,0-0.1,0s0,0-0.1,0
			c0,0-0.1,0-0.1,0.1c0,0-0.1,0-0.1,0.1l0,0l0,0l0,0l0,0l0,0c0,0,0,0,0,0C2.7,4.3,2.7,4.3,2.6,4.4c0,0,0,0.1-0.1,0.1l0,0l0,0
			c0,0,0,0,0,0c0,0,0,0,0,0c0,0.1-0.1,0.1-0.1,0.2c0,0,0,0,0,0.1c0,0,0,0,0,0l0,0l0,0l0,0l0,0l0,0l0,0l0,0l0,0l0,0l0,0l0,0
			c0,0,0,0,0,0c0,0,0,0,0,0.1c0,0.1,0,0.1-0.1,0.2c0,0,0,0.1,0,0.1c0,0,0,0,0,0l0,0l0,0l0,0l0,0l0,0c0,0,0,0,0,0c0,0.1,0,0.3,0,0.4
			c0,0,0,0,0,0.1l0,0l0,0c0,0,0,0,0,0l0,0l0,0l0,0c0,0,0,0.1,0,0.1c0,0.1,0,0.1,0,0.2c0,0,0,0.1,0,0.1l0,0c0,0,0,0.1,0,0.1
			c0,0,0,0,0,0l0,0l0,0l0,0l0,0l0,0c0,0,0,0,0,0l0,0c0,0,0,0,0,0c0,0.1,0.1,0.2,0.2,0.4c0,0.1,0.1,0.1,0.1,0.2C2.8,6.9,2.9,7,3,7.2
			c0.1,0.1,0.2,0.2,0.3,0.3L3.2,7.6z"/>
		<path class="st10" d="M12.9,10.5c0,0,0.4,1,0.4,1.2s0.1,0.3,0.1,0.3s0.1,0,0.1,0v-0.2l-0.2-0.6l-0.2-0.4l-0.1-0.2H12.9L12.9,10.5z
			"/>
		<path class="st13" d="M4.8,8.3c0,0,0.2,3.1,1.4,4.1c0,0-0.5-0.4-0.9-0.8s-0.5-1.3-0.5-1.3L4.6,9L4.8,8.3L4.8,8.3z"/>
		<path class="st10" d="M5.6,11.8C5.6,11.8,5.5,11.8,5.6,11.8C5.5,11.8,5.5,11.8,5.6,11.8c-0.1-0.1-0.1-0.1-0.2-0.2c0,0,0,0,0,0
			c0,0,0,0,0,0c0,0,0,0,0,0c0,0-0.1-0.1-0.1-0.1l0,0l0,0c0,0,0-0.1-0.1-0.1c0,0,0,0,0-0.1s0,0,0-0.1l0,0C5.1,11.2,5,11.1,5,11
			s-0.1-0.1-0.1-0.2c0-0.1-0.1-0.1-0.1-0.2c0,0,0,0,0,0l0,0c0,0,0-0.1,0-0.1c0-0.1-0.1-0.2-0.1-0.2c0-0.1,0-0.1,0-0.2c0,0,0,0,0-0.1
			c0,0,0-0.1,0-0.1c0,0,0-0.1,0-0.1c0-0.1,0-0.2-0.1-0.3c0,0,0-0.1,0-0.1c0-0.1,0-0.1,0-0.1c0-0.1,0-0.3,0-0.5c0-0.1,0-0.2,0-0.3
			s0-0.2,0-0.4v0c0,0,0,0,0,0c0,0,0-0.1,0-0.1h0.3l0,0l0,0l0,0c0,0,0,0.1,0,0.3l0,0c0,0,0,0,0,0c0,0,0,0,0,0l0,0v0c0,0,0,0,0,0.1
			c0,0,0,0.1,0,0.1c0,0,0,0,0,0.1c0,0.2,0,0.4,0,0.7l0,0c0,0.1,0,0.2,0,0.3c0,0.1,0,0.1,0,0.2c0,0.1,0,0.1,0,0.1c0,0,0,0.1,0,0.1
			c0,0.1,0,0.1,0,0.1c0,0,0,0.1,0,0.1c0,0,0,0.1,0,0.1c0,0,0,0,0,0c0,0,0,0,0,0.1c0,0,0,0.1,0,0.1c0,0,0,0,0,0.1
			c0,0.1,0.1,0.2,0.1,0.3c0,0,0,0,0,0.1c0,0,0,0.1,0,0.1c0,0,0,0,0,0.1c0,0,0,0,0,0.1c0,0,0,0,0,0.1c0,0.1,0.1,0.1,0.1,0.2
			c0,0,0,0,0,0c0,0,0,0,0,0c0,0,0,0,0,0c0,0,0,0,0,0c0,0,0,0,0,0c0,0,0,0,0,0.1c0,0,0,0,0,0.1C5.6,11.7,5.6,11.7,5.6,11.8
			C5.6,11.8,5.6,11.8,5.6,11.8L5.6,11.8z"/>
		<path class="st10" d="M5.1,6.7L5.1,6.7L5,7.1l-0.3,1L4.6,8.6L4.5,8.9v0l0,0c0-0.2,0-0.4,0-0.6c0,0,0-0.1,0-0.1c0-0.1,0-0.1,0-0.2
			C4.6,7.4,4.9,7,5.1,6.8l0,0C5.1,6.7,5.1,6.7,5.1,6.7C5.1,6.7,5.1,6.7,5.1,6.7z"/>
		<path class="st13" d="M4.4,11.4c0,0-2,2.6,0.6,3.6l0.1,0.5v0.2l-0.6-0.2l-0.3-0.2l-0.2-0.2l-0.2-0.2l-0.1-0.1L3.5,14v-0.5l0.2-0.7
			l0.2-0.6l0.4-0.6L4.4,11.4L4.4,11.4z"/>
		<path class="st10" d="M5.2,15.6l0,0.3l0,0c-0.5-0.1-0.9-0.3-1.2-0.6c-0.2-0.2-0.3-0.4-0.4-0.6c-0.8-1.5,0.7-3.4,1.1-4
			c0.1-0.1,0.1-0.1,0.1-0.1l0,0c0,0,0,0,0,0l0,0.1l0.1,0.2c0,0,0,0,0,0c-0.1,0.1-0.2,0.3-0.4,0.6l0,0l0,0c-0.2,0.3-0.4,0.7-0.6,1.1
			l0,0l0,0c-0.2,0.6-0.4,1.4-0.1,2.1c0.2,0.5,0.6,0.8,1.3,1C5.1,15.6,5.1,15.6,5.2,15.6C5.2,15.6,5.2,15.6,5.2,15.6z"/>
		<path class="st13" d="M5.1,15c0,0,0.4,1.8,2,0.8l0.2,0.3l0.1,0.2l0,0.2l-0.5,0.1l-0.5,0l-0.5,0l-0.2-0.1l-0.3-0.1l-0.2-0.4l0-0.3
			l-0.2-0.5L5.1,15L5.1,15z"/>
		<path class="st10" d="M7.7,16.5C7.7,16.5,7.6,16.5,7.7,16.5c-0.4,0.2-0.8,0.3-1.1,0.3c-0.3,0-0.6-0.1-0.8-0.2
			c-0.3-0.2-0.4-0.4-0.5-0.7c0-0.1-0.1-0.2-0.1-0.3c-0.1-0.4,0-0.7,0-0.7c0,0,0,0.3,0.1,0.6c0.1,0.3,0.3,0.7,0.7,0.9
			c0.4,0.2,0.9,0.2,1.5,0c0.1,0,0.1,0,0.2-0.1L7.7,16.5L7.7,16.5z"/>
		<path class="st13" d="M7.1,15.4c0,0,0.3,1.2,1.7,0.4L9.3,16l0.1,0.2L9,16.3l-0.6,0.3l-0.7-0.1l-0.3-0.4l-0.2-0.4L7.1,15.4
			L7.1,15.4z"/>
		<path class="st10" d="M9.5,16.2c0,0-0.1,0-0.1,0.1c-0.4,0.3-0.8,0.4-1.1,0.4c-0.1,0-0.3,0-0.4-0.1c-0.1,0-0.2-0.1-0.3-0.1
			c-0.1-0.1-0.2-0.1-0.2-0.2c-0.3-0.4-0.3-1-0.3-1c0,0,0.1,0.2,0.2,0.5c0.2,0.3,0.4,0.5,0.7,0.6c0.3,0.1,0.7,0,1.2-0.3
			c0.1,0,0.1-0.1,0.2-0.1L9.5,16.2L9.5,16.2z"/>
		<path class="st10" d="M11.8,15.5L11.8,15.5c0,0,0,0.1,0,0.1c0,0,0,0.1-0.1,0.1c0,0,0,0,0,0c0,0.1-0.1,0.2-0.2,0.3
			c0,0.1-0.1,0.1-0.1,0.2l0,0c-0.1,0.1-0.3,0.2-0.4,0.3c-0.1,0.1-0.3,0.1-0.5,0.1c0,0,0,0,0,0c0,0,0,0,0,0c0,0,0,0,0,0l0,0
			c-0.2,0-0.3,0-0.5-0.1c-0.1,0-0.3-0.1-0.4-0.2c-0.1,0-0.1-0.1-0.1-0.1c0,0,0,0-0.1,0c-0.1,0-0.1-0.1-0.2-0.1c0,0-0.1-0.1-0.1-0.1
			c0,0,0,0,0,0c0,0-0.1-0.1-0.1-0.1c0,0,0,0-0.1,0c-0.1-0.1-0.2-0.2-0.3-0.3c0,0,0,0,0-0.1c0-0.1-0.1-0.1-0.1-0.1c0,0,0,0,0-0.1
			c-0.1-0.1-0.1-0.1-0.1-0.2c0,0,0,0,0-0.1C8.1,14.9,8,14.8,8,14.7c0,0,0,0,0-0.1c-0.1-0.1-0.1-0.3-0.2-0.4c0,0,0,0,0-0.1
			c0,0,0,0,0-0.1c0,0,0,0,0-0.1c0-0.1,0-0.1-0.1-0.2c0,0,0,0,0-0.1c0,0,0-0.1,0-0.1c0,0,0,0,0,0c0,0,0,0,0,0c0,0,0-0.1,0-0.1
			c0,0,0-0.1,0-0.1c0,0,0-0.1,0-0.1c0,0,0,0,0,0c0,0,0-0.1,0-0.1c0,0,0,0,0,0c0,0,0-0.1,0-0.1c0,0,0-0.1,0-0.1s0-0.1,0-0.1l0,0
			c0,0,0-0.1,0-0.1s0-0.1,0-0.1c0-0.2,0-0.3,0-0.5c0,0,0-0.1,0-0.1l0.2,0.1c0,0.1,0,0.1,0,0.2c0,0.1,0,0.3,0,0.5
			c0.1,1,0.6,2.3,1.9,3c0,0,0.1,0,0.1,0.1c0.4,0.2,0.7,0.2,1,0.1c0.2-0.1,0.4-0.2,0.5-0.4c0.1-0.1,0.1-0.3,0.2-0.4c0,0,0-0.1,0-0.1
			l0,0l0,0h0L11.8,15.5L11.8,15.5L11.8,15.5z"/>
		<path class="st10" d="M7.6,12.3c0,0-0.1-0.1-0.2-0.3C7.4,12.1,7.5,12.2,7.6,12.3z"/>
		<path class="st2" d="M6.3,9.6v1.5c0,0,0.2,0.8,0.2,0.8s0.6,0.2,0.6,0.2L7.2,12l-0.3-0.9l-0.1-0.8L6.5,9.9C6.5,9.9,6.3,9.6,6.3,9.6
			z"/>
		<path class="st10" d="M10.7,12.7c0,0.2,0,0.3,0,0.5c-0.1,0.4-0.1,0.6-0.1,0.6l0,0.1l-0.1,0c-0.1,0-0.1,0-0.2,0c0,0-0.1,0-0.1,0
			c0,0,0,0,0,0h0c0,0,0,0,0,0c0,0-0.1,0-0.1,0c0,0,0,0-0.1,0c0,0,0,0-0.1,0c0,0,0,0,0,0c0,0,0,0,0,0c0,0-0.1,0-0.1,0c0,0,0,0,0,0
			c0,0,0,0-0.1,0s0,0-0.1,0c-0.1,0-0.2-0.1-0.3-0.1c0,0,0,0-0.1,0c0,0,0,0,0,0c0,0-0.1,0-0.1-0.1c-0.1-0.1-0.2-0.1-0.3-0.2
			c0,0,0,0-0.1,0c0,0,0,0-0.1,0c0,0,0,0-0.1,0c0,0-0.1,0-0.1-0.1c-0.1,0-0.1-0.1-0.2-0.1c0,0-0.1,0-0.1-0.1
			c-0.2-0.1-0.3-0.3-0.5-0.4l0,0c-0.1-0.1-0.1-0.1-0.2-0.2c0,0,0,0-0.1-0.1l0,0c-0.1-0.1-0.2-0.2-0.2-0.3c0,0,0-0.1-0.1-0.1
			c-0.1-0.2-0.3-0.4-0.4-0.7c0,0,0,0,0,0c0,0,0,0,0,0c0-0.1-0.1-0.3-0.1-0.4l0,0c0-0.1,0-0.3,0-0.5l0,0c0,0,0,0.2,0.1,0.4l0,0
			C7,10.8,7,10.9,7,11c0.1,0.3,0.3,0.7,0.6,1c0.1,0.1,0.2,0.2,0.2,0.2l0,0c0.2,0.2,0.4,0.4,0.6,0.6c0.7,0.6,1.5,0.9,1.9,0.9
			c0-0.1,0.1-0.4,0.1-0.7c0-0.3,0-0.6,0-0.9c0-0.2-0.1-0.4-0.1-0.5c-0.1-0.1-0.1-0.3-0.2-0.4c0.1,0,0.2,0,0.3,0
			c0.1,0.1,0.1,0.3,0.2,0.4c0,0.1,0.1,0.3,0.1,0.4c0,0.1,0.1,0.3,0.1,0.4C10.7,12.5,10.7,12.6,10.7,12.7L10.7,12.7z"/>
		<path class="st10" d="M6.8,10.3c0,0-0.1,0-0.2-0.1C6.5,10.2,6.4,10,6.4,9.7c0,0,0,0,0,0l0,0l0.3-0.1c0,0-0.1,0.1-0.1,0.3
			C6.6,10,6.6,10.2,6.8,10.3L6.8,10.3z"/>
		<path class="st10" d="M6.4,9.6c0,0,0,0.6,0.2,0.8c0,0,0.2,0.5,0.3,0.8S6.9,11,6.9,11l0-0.2l0-0.2l-0.1-0.4l-0.2-0.2L6.4,9.6
			L6.4,9.6z"/>
		<path class="st10" d="M6.4,9.5c0,0-0.2,0.4,0.1,0.8s0.1-0.2,0.1-0.2L6.5,9.9l0-0.2V9.6L6.4,9.5L6.4,9.5z"/>
		<path class="st3" d="M8.1,9.9c0,0-1.1-0.8-1.5-0.1c0,0,0.7-0.1,1,0.5C7.7,10.4,8.1,9.9,8.1,9.9L8.1,9.9z"/>
		<path class="st10" d="M13.6,12.2v0.4l0,0.1v0.2l-0.1-0.3l-0.1-0.3l0,0c0,0,0,0,0,0l0,0c0-0.1-0.2-0.4-0.5-0.7
			c-0.4-0.4-1-0.6-1.7-0.5c-0.1,0-0.2,0-0.4,0c-0.1,0-0.1,0-0.2,0c-0.1,0-0.1,0-0.2,0c0,0,0-0.1-0.1-0.1l0,0c0,0,0,0,0-0.1l0,0
			c0,0,0,0,0-0.1L10.1,11l-0.1,0c0,0,0,0,0,0.1c-0.1,0-0.3,0-0.4-0.1c0,0,0,0-0.1,0c-0.1,0-0.2-0.1-0.3-0.1
			c-0.6-0.2-1.1-0.5-1.5-0.7c0.1,0.1,0.2,0.3,0.3,0.5c0,0,0,0,0,0.1l0,0c0,0,0,0,0,0c0.4,0.6,0.9,1.3,1.4,1.6c0,0,0.1,0,0.1,0
			c0,0,0,0,0,0l-0.1,0.2l0,0c0,0,0,0,0,0l0,0c0,0,0,0,0,0c0,0,0,0-0.1,0l0,0c0,0,0,0-0.1,0c0,0,0,0,0,0c0,0-0.1,0-0.1-0.1
			c0,0,0,0,0,0l0,0c0,0,0,0-0.1-0.1c0,0,0,0-0.1,0c0,0,0,0,0,0c0,0,0,0,0,0c0,0-0.1-0.1-0.1-0.1c0,0,0,0,0,0c0,0-0.1-0.1-0.1-0.1
			c0,0-0.1-0.1-0.1-0.1c0,0-0.1-0.1-0.1-0.1c0,0-0.1-0.1-0.1-0.1c0,0,0,0-0.1-0.1c0,0,0,0,0-0.1c0,0,0,0,0,0c0,0,0-0.1-0.1-0.1
			c0,0,0,0,0,0c0,0,0,0,0-0.1s0,0,0-0.1s0,0,0-0.1s0,0,0-0.1c0,0,0-0.1-0.1-0.1C8.1,11.2,8.1,11.1,8,11c0,0,0-0.1,0-0.1
			c-0.1-0.1-0.2-0.3-0.2-0.4c0,0,0,0,0,0c0-0.1-0.1-0.1-0.1-0.2l0,0l0,0c0-0.1-0.1-0.1-0.1-0.1c0,0,0,0,0,0c0,0,0,0,0-0.1
			c0-0.1-0.1-0.1-0.1-0.1L7.3,9.7c0.1,0,0.2,0.1,0.3,0.1L7.6,10l0,0c0,0,0,0,0,0c0,0,0,0,0,0c0,0,0,0,0,0c0,0,0,0,0.1,0c0,0,0,0,0,0
			c0,0,0,0,0,0s0,0,0,0c0,0,0,0,0,0l0,0c0,0,0,0,0,0c0,0,0.1,0,0.1,0l0,0l0,0c0,0,0,0,0.1,0c0,0,0,0,0,0c0,0,0,0,0.1,0l0,0
			c0,0,0.1,0,0.1,0c0,0,0.1,0,0.1,0l0,0c0,0,0.1,0,0.1,0c0.3,0.2,0.7,0.3,1.1,0.4l0,0c0.4,0.1,0.8,0.2,1.2,0.2c0.1,0,0.3,0,0.4,0
			c0.7-0.1,1.2,0,1.6,0.3c0.2,0.1,0.3,0.2,0.4,0.3c0,0,0.1,0.1,0.1,0.1c0.1,0.1,0.1,0.1,0.2,0.2l0,0c0,0,0,0,0,0.1l0,0
			c0,0.1,0.1,0.1,0.1,0.2c-0.1-0.4-0.3-0.9-0.4-1.2l0,0c0,0,0-0.1,0-0.1c0,0,0,0,0,0c0,0,0,0,0-0.1c0,0,0,0,0-0.1l0,0l0,0l0,0l0,0
			l0,0c0,0,0-0.1-0.1-0.1c0,0-0.1-0.1-0.1-0.1l0,0l0,0c-0.2-0.3-0.5-0.6-0.9-0.9c0,0,0,0-0.1,0c0,0,0,0,0,0c0,0-0.1,0-0.1-0.1
			c0,0,0,0-0.1,0c0,0,0,0,0,0c0,0-0.1,0-0.1,0c0,0,0,0-0.1,0s-0.1,0-0.1,0l0,0c0,0,0,0,0,0c0,0,0,0-0.1,0l0,0c0,0,0,0,0,0
			c0,0,0,0,0,0c0,0,0,0-0.1,0c0,0,0,0-0.1,0c0,0-0.1,0-0.1,0s-0.1,0-0.1,0l0,0c0,0,0,0-0.1,0c0,0,0,0-0.1,0c-0.1,0-0.1,0-0.2,0
			c-0.1,0-0.3,0-0.4,0C9.5,9,8.8,9.3,8.6,9.4l-0.1,0l-0.1,0c0,0-0.2-0.1-0.6-0.2c0,0,0,0-0.1,0c-0.3-0.1-0.7-0.1-0.9,0
			C6.8,9.3,6.7,9.5,6.7,9.6c0,0.1-0.1,0.2-0.1,0.3l0,0c0,0,0,0,0,0.1c0,0.1,0,0.1,0,0.1l0,0l0,0c0,0,0,0,0,0c0,0,0,0,0,0l0,0
			c0,0,0,0,0,0.1c0,0,0,0,0,0l0,0l0,0l0,0c0,0,0,0,0,0c0,0,0,0,0,0c0,0,0,0,0,0c0,0,0,0,0,0c0,0,0,0,0,0s0,0,0,0c0,0,0,0,0,0
			c0,0,0-0.1-0.1-0.1c0,0,0,0,0,0c0,0,0,0,0,0s0,0,0,0c0,0,0,0,0,0c0,0,0,0,0,0l0,0c0,0,0,0,0,0c0,0,0,0,0,0l0,0c0,0,0,0,0,0
			c0,0,0,0,0,0l0,0c0,0,0,0,0-0.1l0,0v0c0,0,0,0,0,0c0,0,0,0,0,0l0,0l0,0c0,0,0,0,0,0c0,0,0,0,0-0.1s0,0,0,0l0,0l0,0c0,0,0,0,0,0
			l0,0c0,0,0,0,0,0c0,0,0,0,0,0l0,0c0,0,0-0.1,0.1-0.1c0,0,0,0,0,0c0,0,0,0,0,0l0,0c0,0,0,0,0,0l0,0c0,0,0,0,0,0l0,0c0,0,0,0,0,0
			l0,0l0,0c0,0,0,0,0,0l0,0c0,0,0,0,0,0l0,0c0,0,0,0,0,0c0,0,0,0,0,0l0,0c0,0,0,0,0,0l0,0c0,0,0,0,0,0l0,0c0,0,0,0,0,0l0,0
			c0,0,0,0,0,0l0,0c0,0,0,0,0,0c0,0,0,0,0.1,0C7,9,7.3,9,7.6,9c0,0,0,0,0.1,0c0.1,0,0.2,0.1,0.3,0.1c0.2,0.1,0.4,0.1,0.4,0.2
			c0,0,0,0,0.1,0c0.1-0.1,0.2-0.1,0.4-0.2C9,9,9,9,9.1,9c0,0,0.1,0,0.1,0c0.1,0,0.2,0,0.2-0.1c0.1,0,0.2,0,0.3-0.1c0,0,0,0,0.1,0
			c0.1,0,0.3,0,0.4,0c0,0,0.1,0,0.1,0c0.1,0,0.2,0,0.3,0c0.1,0,0.2,0,0.3,0.1C11,9,11.2,9,11.3,9c0.2,0.1,0.5,0.2,0.7,0.3
			c0.7,0.4,1.2,1,1.4,1.9c0.2,0.6,0.2,1.1,0.2,1.2L13.6,12.2z"/>
		<path class="st10" d="M7.7,9.8c0.1,0.1,0.4,0.3,0.7,0.4C7.9,10.1,7.6,10,7.6,10L7.7,9.8L7.7,9.8C7.7,9.8,7.7,9.8,7.7,9.8
			C7.7,9.8,7.7,9.8,7.7,9.8L7.7,9.8z"/>
		<path class="st3" d="M7.7,9.7c0,0,0.4,0.3,1.2,0.4s0.1,0.2,0.1,0.2l-0.5-0.1l-0.5-0.2L7.7,9.7L7.7,9.7L7.7,9.7z"/>
		<path class="st10" d="M10.9,7.2c0-0.1-0.1-0.1-0.1-0.2c0,0,0,0-0.1-0.1c0,0,0,0,0,0l0,0c-0.1-0.1-0.2-0.1-0.3-0.2c0,0-0.1,0-0.1,0
			c-0.1,0-0.1,0-0.2,0c-0.1,0-0.1,0-0.2,0l0,0c-0.1,0-0.2,0-0.3,0.1c0,0-0.1,0-0.1,0.1c0,0,0,0-0.1,0C9.5,7,9.4,7.1,9.3,7.2
			c0,0,0,0,0,0c0,0,0,0,0,0c0,0,0,0,0,0c0,0.1,0,0.1-0.1,0.2s0,0.1,0,0.2c0,0.1,0.1,0.2,0.1,0.2c0.1,0,0.1,0,0.1-0.1c0,0,0,0,0-0.1
			c0,0,0,0,0,0s0,0,0,0c0,0,0-0.1,0-0.1c0,0,0,0,0,0c0,0,0,0,0,0l0,0l0,0l0,0c0,0,0,0,0,0s0,0,0-0.1c0,0,0,0,0,0l0,0l0,0l0,0
			c0,0,0.1-0.1,0.1-0.1l0,0c0,0,0,0,0,0c0,0,0,0,0.1,0c0,0,0,0,0.1,0l0,0l0,0c0,0,0,0,0,0c0,0,0.1,0,0.1,0l0,0c0,0,0,0,0,0
			c0,0,0.1,0,0.1,0l0,0c0,0,0,0,0.1,0c0,0,0,0,0,0l0,0l0,0l0,0h0c0,0,0.1,0,0.1,0l0,0c0,0,0,0,0,0c0,0,0,0,0.1,0c0,0,0,0,0,0l0,0
			c0,0,0,0,0,0l0,0l0,0l0,0c0,0,0,0,0,0c0,0,0,0,0.1,0.1l0,0c0,0,0,0,0,0l0,0c0,0,0,0,0,0c0,0,0,0.1,0.1,0.1c0,0,0,0,0,0l0,0l0,0
			l0,0l0,0l0,0c0,0,0,0,0,0c0,0.1,0.1,0.1,0.1,0.2c0,0,0,0.1,0,0.1c0,0,0,0,0,0l0,0c0,0,0,0,0,0c0,0,0,0,0,0.1c0,0.1,0,0.2,0,0.2
			c0,0,0,0.1,0,0.1l0,0l0,0l0,0l0,0l0,0v0c0,0,0,0,0,0.1c0,0,0,0,0,0l0,0c0,0,0,0,0,0l0,0c0,0,0,0,0,0s0,0,0,0l0,0c0,0,0,0.1,0,0.1
			c0,0,0,0.1,0,0.1c0,0,0,0,0,0c0,0,0,0,0,0c0,0,0,0,0,0l0,0l0,0l0,0l0,0l0,0c0,0,0,0,0,0c0,0.1,0,0.1,0,0.2c0.1,0,0.1,0,0.2,0
			c0,0,0.1,0,0.1-0.1c0-0.1,0.1-0.1,0.1-0.2c0-0.1,0.1-0.2,0.1-0.4c0-0.2,0.1-0.3,0.1-0.5C11.1,7.7,11,7.4,10.9,7.2L10.9,7.2z
			 M10.6,7.3L10.6,7.3L10.6,7.3C10.6,7.3,10.6,7.3,10.6,7.3L10.6,7.3z"/>
		<path class="st10" d="M7.1,7.4c0,0,0.6-0.8,1.3-0.8C8.4,6.6,7.3,6.2,7.1,7.4z"/>
		<path class="st10" d="M10.8,6.4c0,0-0.1,0.1-0.1,0.1c0,0,0,0-0.1,0.1c0,0,0,0,0,0c-0.1,0-0.1-0.1-0.2-0.1l0,0c0,0-0.1,0-0.1,0
			c-0.3-0.1-0.5,0-0.5,0c0,0,0.1,0,0.1,0c0.3-0.1,0.5-0.2,0.7-0.1c0,0,0.1,0,0.1,0C10.7,6.4,10.7,6.4,10.8,6.4L10.8,6.4z"/>
		<path class="st14" d="M7.8,8.1c0,0,0.3,0.9,1.4,0.4v0.4L9,9.1L8.5,9.2L8.1,9.1L7.7,9L7.7,8.3L7.8,8.1L7.8,8.1z"/>
		<path class="st10" d="M8.9,8.9L8.9,8.9C8.9,9.1,8.8,9.2,8.7,9.2c-0.1,0-0.1,0-0.1,0C8.4,9,8.3,8.9,8.3,8.6c0-0.3,0.1-0.6,0.3-0.6
			S9,8.3,9,8.6C9,8.7,9,8.8,8.9,8.9L8.9,8.9z"/>
		<path class="st10" d="M9.4,8.8c0,0.1,0,0.1,0,0.2c0,0.1-0.1,0.1-0.2,0.1S9.1,9,9.1,8.9l0,0c0-0.1,0-0.1,0.1-0.2c0-0.1,0-0.1,0-0.2
			c0,0,0,0,0-0.1l0,0l0,0l0,0l0,0l0,0l0,0l0,0v0c0,0,0,0,0,0c0-0.1,0-0.2,0-0.3c0,0,0-0.1,0-0.1l0,0l0,0l0,0c0,0,0,0,0,0
			c0,0,0,0,0-0.1c0,0,0-0.1,0-0.1c0,0,0,0,0-0.1c0,0,0,0,0,0l0,0l0,0c0-0.1-0.1-0.1-0.1-0.2l0,0l0,0c0,0,0,0,0,0c0,0,0,0-0.1-0.1
			c0,0,0,0,0,0c0,0,0,0,0,0c0,0-0.1,0-0.1,0c0,0,0,0,0,0c0,0,0,0,0,0c0,0-0.1,0-0.1,0c0,0,0,0-0.1,0l0,0l0,0l0,0l0,0l0,0l0,0l0,0
			l0,0l0,0c0,0,0,0,0,0c0,0,0,0,0,0c0,0-0.1,0-0.1,0c0,0,0,0,0,0l0,0l0,0l0,0h0c-0.1,0-0.1,0-0.2,0.1c0,0,0,0,0,0s0,0,0,0
			c0,0-0.1,0-0.1,0.1c0,0,0,0,0,0l0,0c0,0,0,0,0,0c0,0-0.1,0-0.1,0.1c0,0,0,0,0,0c0,0,0,0,0,0l0,0l0,0l0,0l0,0l0,0l0,0
			c0,0,0,0,0,0.1c0,0,0,0.1-0.1,0.1c0,0,0,0,0,0c0,0,0,0,0,0c0,0,0,0.1,0,0.1c0,0,0,0,0,0.1v0l0,0l0,0l0,0l0,0l0,0l0,0l0,0l0,0l0,0
			l0,0l0,0l0,0l0,0l0,0c0,0,0,0,0,0c0,0,0,0,0,0.1c0,0,0,0.1,0,0.1c0,0,0,0,0,0.1c0,0,0,0,0,0l0,0l0,0c0,0,0,0,0,0c0,0,0,0,0,0l0,0
			l0,0c0,0,0,0.1,0,0.1c0,0.1,0.1,0.2,0.1,0.3c0,0,0,0,0,0.1l0,0l0,0l0,0l0,0l0,0l0,0l0,0l0,0l0,0l0,0c0,0,0,0,0,0
			C8,8.9,8,8.9,8.1,9c0,0,0,0,0,0c0,0.1,0,0.1-0.1,0.2c0,0-0.1,0-0.1,0c0,0,0,0-0.1,0c0,0-0.1,0-0.1-0.1C7.8,9.1,7.7,9,7.7,9
			c0,0,0,0,0-0.1C7.5,8.5,7.4,8.1,7.5,7.7C7.6,7.4,7.8,7.2,8.1,7c0.2-0.1,0.4-0.1,0.6-0.1c0.1,0,0.1,0,0.2,0.1C9,7,9.1,7.1,9.1,7.1
			c0.1,0,0.1,0.1,0.1,0.2c0.1,0.1,0.1,0.2,0.2,0.3c0,0,0,0,0,0C9.6,8,9.6,8.4,9.4,8.8L9.4,8.8z"/>
		<polygon class="st10" points="13.6,12.9 13.5,12.6 13.6,12.6 13.6,12.7 		"/>
		<path class="st1" d="M11.2,7.1c0,0.1,0.1,0.1,0.1,0.2C11.2,7,11,6.8,11,6.8C11.1,6.8,11.1,6.9,11.2,7.1c-0.1,0-0.1-0.1-0.1-0.2
			C11.2,7,11.2,7,11.2,7.1L11.2,7.1z"/>
	</g>
</g>
</svg>
