<?xml version="1.0" encoding="utf-8"?>
<!-- Generator: Adobe Illustrator 26.0.1, SVG Export Plug-In . SVG Version: 6.00 Build 0)  -->
<svg version="1.1" id="Capa_2_00000086668771243584865030000001310039640473725352_"
	 xmlns="http://www.w3.org/2000/svg" xmlns:xlink="http://www.w3.org/1999/xlink" x="0px" y="0px" viewBox="0 0 192 108"
	 style="enable-background:new 0 0 192 108;" xml:space="preserve">
<style type="text/css">
	.st0{opacity:0.12;}
	.st1{clip-path:url(#SVGID_00000097459783215931471440000015029621799366726319_);}
	.st2{opacity:0.36;}
	.st3{fill:#FFFFFF;}
	.st4{fill:#141833;}
	.st5{fill:#D92026;}
</style>
<g id="Capa_1-2">
	<g class="st0">
		<g>
			<defs>
				<rect id="SVGID_1_" y="0" width="192" height="108"/>
			</defs>
			<clipPath id="SVGID_00000067194480654854568540000003197856330266736034_">
				<use xlink:href="#SVGID_1_"  style="overflow:visible;"/>
			</clipPath>
			<g style="clip-path:url(#SVGID_00000067194480654854568540000003197856330266736034_);">
				<g class="st2">
					<path class="st3" d="M181.3,23.3c-0.7-0.8-1.7-1.2-2.8-1h-0.1c-1.3,0.4-1.9,1.4-2.1,1.8l0,0c0,0-0.4,0.7-0.6,1.2
						c0.4-2.3,0.8-4.5,1.1-5.5c0.4-1.1,0.1-2.2-0.6-3.1c-1.3-1.4-3.6-1.5-4.7-1.3l-0.1,0c-0.9,0.2-1.6,0.8-2.1,1.7
						c-1-0.4-2.2-0.5-3.8-0.1l-0.3,0.1c-3.5,0.9-6.4,3.9-8.1,8.4c0,0.1-0.1,0.2-0.1,0.4c-0.4,1.2-0.7,2.4-0.9,3.6l0,0v0
						c-0.2,1.1-0.3,2.3-0.3,3.3c0.5-0.9,1-1.8,1.5-2.8c0,0,0.1-0.1,0.1-0.1c0.1-0.8,0.3-1.5,0.5-2.3h0c0.2-0.8,0.4-1.5,0.7-2.2h0
						c1.2-3.1,3.4-5.9,6.5-6.6c2.4-0.6,3.8,0.1,4.6,1.4c0.2-0.8,0.4-1.4,0.6-1.8c0.2-0.6,0.6-1,1.1-1.1c1-0.2,3.6,0.1,3.1,1.8
						c-0.7,2.2-2.8,13.6-1.6,13.3c0.8-0.2,2.8-3.8,4.7-7.4c0.3-0.5,0.6-0.7,0.9-0.8c0.7-0.2,1.3,0.5,0.9,1.4c-2.2,5-4.9,10-6.1,10.3
						c-1.1,0.2-4.9-0.2-5.6-2.7c-1.3,2.6-3,4.8-4.6,5.2c-0.9,0.2-1.8,0.2-2.7-0.1c-0.7-0.2-1.3-0.5-1.7-1c-0.5-0.4-0.8-1-1-1.7
						c-0.1-0.4-0.2-0.8-0.2-1.3c-0.4,0.7-0.8,1.3-1.1,1.9l0,0.2c0.2,1,0.7,1.7,1.3,2.4c0.5,0.5,1,0.9,1.6,1.2c1.5,0.8,3.2,1,4.8,0.7
						l0.2,0c1.5-0.4,3-1.6,4.4-3.7c2,1.3,4.6,1.5,5.7,1.2l0.1,0c0.9-0.2,2.6-0.6,7.4-11.4C182.1,25.5,182,24.3,181.3,23.3
						L181.3,23.3z M163.1,34.8c3.9-1,7.3-14.4,3.6-13.5c-1.9,0.5-3.2,3-4,5.7c-0.9,3.1-0.9,6.4-0.3,7.4
						C162.6,34.7,162.8,34.8,163.1,34.8z M166,25.4c0.3-0.6,0.6-1.1,0.9-1.4c-0.1,1.4-0.5,3.9-1.7,6.4c-0.2,0.5-0.5,0.9-0.7,1.2
						C164.6,29.9,165.1,27.4,166,25.4L166,25.4z"/>
					<path class="st3" d="M203.9,30.3l-0.1-0.1h-0.1c-0.1,0-0.4-0.1-0.8,0c-0.8,0.2-1.3,1-1.1,1.9c0,0-0.1,0.3-1.1,0.9
						c-0.4,0.2-1,0.5-1.5,0.7c0.4-0.9,0.6-1.9,0.5-2.5c0-0.1,0-0.2,0-0.3c0.2,0,0.4,0,0.7-0.1c0.3-0.1,0.6-0.2,0.9-0.4
						c2-1.2,3-3.6,2.3-5.9c-0.5-1.8-2.3-3.6-5.7-3.4c-0.5,0-1,0.1-1.5,0.2h-0.1c-4,0.9-6.4,4-7,6.6c-0.3,1.3-0.2,2.6,0.3,3.6
						c-5.1,2.7-6.4,7.6-5.2,11.3c1.2,3.8,5.2,7.3,11.3,5.9h0.1c3.8-0.9,6.6-3.2,7.5-6.3c0.5-1.8,0.4-3.7-0.4-5.2
						c1.4-0.8,2.6-1.8,2.9-3.3C206.1,32.4,205.4,31,203.9,30.3L203.9,30.3z M204.1,33.7c-0.3,1.4-1.8,2.3-3.6,3.1
						c2.6,2.5,1.7,9.1-5.6,10.7c-10.6,2.4-14.4-11.4-3.8-15.5c-2.8-2.3-0.4-8.2,5-9.4c0.4-0.1,0.8-0.2,1.3-0.2
						c5.1-0.3,5.8,5.1,2.6,6.9c-0.2,0.1-0.4,0.2-0.5,0.2c-1.5,0.3-3.2-1-2.2-1.6c2.2-1.5,2.5-4.5-0.4-4.1c-0.2,0-0.4,0-0.5,0.1
						c-3.9,0.9-5.2,7.1-0.9,7.1c0.7,0,1.4-0.1,2.1-0.1c0.7,0,0,2.7-0.9,2.9l-0.1,0c-1.1,0-2,0.1-2.8,0.3c-8.6,1.9-6.4,12.6,0.1,11.2
						c5-1.1,4.9-6.3,2.8-7c-2,0.8-3.5,1.8-3.2,3.3c0.1,0.2,0,0.5-0.2,0.5c0,0-0.1,0-0.1,0c-1.4-0.1-2.5-2.1-1.5-3.6
						c2.1-2.9,11.5-3.8,10.9-6.8c-0.1-0.2,0-0.4,0.1-0.4c0.1,0,0.1,0,0.2,0C203.9,31.8,204.3,32.7,204.1,33.7L204.1,33.7z
						 M196.3,29.1c0.1,0.2,0.2,0.5,0.4,0.7c-0.3,0-0.5,0-0.8,0.1c-1.1,0-1.3-0.6-1.4-1.1c-0.1-1.2,0.8-3.1,2.6-3.5l0.4-0.1
						c0.4,0,0.6,0,0.7,0.1c0.1,0.2-0.2,1.1-1.2,1.7C196.2,27.4,195.9,28.3,196.3,29.1L196.3,29.1z M190.7,41.4
						c0.5,1.1,1.5,1.9,2.6,2c0.2,0,0.4,0,0.6,0c0.9-0.2,1.4-1.1,1.2-2c-0.1-0.5,0.5-1,1.8-1.6c0.1,0.3,0.3,0.7,0.2,1.2
						c0,0.5-0.4,2.5-3.1,3.1h0c-2.3,0.5-3.7-1-4.1-2.7c-0.5-2.3,0.7-5.1,4.4-5.9c-1.4,0.6-2.6,1.4-3.3,2.4
						C190.3,39,190.2,40.3,190.7,41.4L190.7,41.4z"/>
					<path class="st4" d="M157.6,63.7c-0.6,0.9-1.4,1.6-2.3,1.8c-2.4,0.8-3.3-0.7-3.6-1.6c-0.4-1.3-0.4-2.9-0.2-4.6
						C152.8,62.2,155.1,63.5,157.6,63.7L157.6,63.7z"/>
					<path class="st4" d="M185,69.7c-2.2,0.7-4-0.2-5.2-2c1.1-0.5,2.2-1,3.3-1.3C187.1,65.2,187.5,69,185,69.7z"/>
					<path class="st3" d="M185,69.7c-2.2,0.7-4-0.2-5.2-2c1.1-0.5,2.2-1,3.3-1.3C187.1,65.2,187.5,69,185,69.7z"/>
					<path class="st3" d="M191.9,66.6c1.3,3.5-0.5,7.2-4.1,8.8c-0.3,0.1-0.5,0.2-0.8,0.3c-4.4,1.4-8.8,0.2-11.8-2.9
						c-2.8,1.6-5.7,3.3-8.7,5.2c-6.3,3.8-13.4,8.2-21.3,11.5c-2.4,1-4.8,1.8-7.1,2.6c-2.9,0.9-5.8,0.9-8.3,0c-2.9-1.1-5-3.3-6-6.3
						c-0.1-0.4-0.3-1-0.4-1.8c-0.1-0.7-0.1-1.4,0.2-2c0.2-0.5,0.6-0.9,1.2-1.1c0.1-0.1,0.2-0.1,0.2-0.1c0.6-0.2,1.2-0.2,1.8,0.1
						c0.1,0.1,0.3,0.1,0.4,0.2l0.1,0c0.4,0.2,0.9,0.5,1.4,0.6c2.1,0.7,4.5,0.6,7.5-0.3c4.2-1.3,8.4-2.8,12.9-4.7
						c2.9-1.2,5.6-2.5,8.3-3.7l0.1,0c0.6-0.3,1.2-0.5,1.8-0.8c0,0,0.1-0.1,0.1-0.1c1.6-0.8,3.2-1.5,4.8-2.3c2.6-1.2,5-2.4,7.4-3.5
						c-0.5-1.8-0.8-3.8-0.8-6c0-0.1,0-0.1,0-0.2c0,0,0,0,0,0c0-1.7,0.3-4,0.6-6.1c0.1-0.7,0.3-1.5,0.4-2.2c-0.2,0.5-0.4,1.2-0.6,1.8
						c-0.4,1.2-0.9,2.4-1.4,3.7c0,0.1-0.1,0.1-0.1,0.2c-0.5,1-1.1,1.5-1.6,1.7l-0.3,0.1c-0.5,0.2-1.1,0.2-1.7,0
						c0.4-0.7,0.7-1.6,1-2.5c0.1-0.1,0.1-0.2,0.1-0.3c0.4-1,0.8-2,1.1-2.9c0.2-0.7,0.5-1.3,0.7-1.9c0.4-0.9,0.7-1.7,0.9-2.4
						c1.2-0.4,2.8-0.9,4.1-1.4c-0.9,3.7-2,9.1-2,12.3c0.1,2.8,0.5,5.1,1.3,7.1c-10.7,4.8-22.2,11.3-37.2,15.9
						c-3.3,1-6.5,1.3-9.2,0.1h0c-0.2,0.1-0.3,0.2-0.5,0.3l-0.2,0.1c-0.4,0.1-0.9,0.3-1.5,0.3c0.1,0.5,0.2,0.9,0.3,1.2
						c1.6,5.2,7.1,6.4,11.8,5c15.2-4.7,27.3-14.1,38.2-19.9c2.6,3.7,6.8,4.8,10.8,3.6c6.9-2.1,4.4-12.4-5.2-9.4
						c-0.8,0.2-1.5,0.5-2.3,0.8c-0.5-1.5-0.8-3.1-0.9-4.9c-0.2-4.7,1-12.9,1.6-15.1c0.5-1.7-2.1-2-3.1-1.6c-0.4,0.1-3.5,1.1-6.3,2
						c-2.3,0.7-4.5,1.3-4.9,1.3c0,0-0.1,0-0.1,0c-0.4,0.1-0.6,0.6-0.3,1.1c0.5,0.8,1.8,2.6,3.2,2.2c0.1-0.1,0.3-0.1,0.6-0.2
						c-0.2,0.4-0.4,0.9-0.6,1.4c-0.2,0.7-0.6,1.3-0.9,2c-0.3,0.8-0.7,1.6-1.1,2.4c-0.1,0-0.1,0.2-0.1,0.3h0
						c-0.2,0.5-0.3,0.9-0.9,2.1c-0.6-0.8-0.6-1.8-0.3-2.7l0,0c0.3-0.6,0.6-1.2,0.9-1.9c0.2-0.6,0.5-1.2,0.7-1.8
						c-1.2-0.6-2.1-1.8-2.6-2.7c-0.4-0.6-0.5-1.2-0.4-1.8c0-0.2,0.1-0.3,0.1-0.5c0.2-0.7,0.7-1.3,1.5-1.6l0.2-0.1
						c0.2,0,0.3-0.1,0.5-0.1l0,0c0.1,0,0.1,0,0.2,0c0.4-0.1,1.9-0.5,4.3-1.2c2.1-0.6,4.2-1.3,5.4-1.7c0.5-0.2,0.8-0.3,0.9-0.3
						c1.2-0.4,3.5-0.3,4.8,1c0.8,0.8,1.1,2,0.8,3.1c-0.5,2-1.7,10-1.5,14.5c0.1,0.8,0.1,1.6,0.3,2.4c0.1,0,0.2,0,0.3-0.1
						C186.8,60.6,190.8,63.2,191.9,66.6L191.9,66.6z"/>
					<path class="st3" d="M106.7,75c-0.5-0.7-1.1-1.2-1.8-1.7c-2.2-1.4-5.4-1.7-7.9-2c-1.4-0.1-3.6-0.3-4.2-0.7
						c-0.1-1.3,0.5-4.1,2.4-7.7c0.6-1.1,1.2-2.1,1.7-2.9c1-1.5,1.9-2.4,2.4-2.8c0,0.1,0.1,0.2,0.1,0.4c0.1,0.4,0.1,1.1-0.1,1.9
						c-0.3,1.8-1.3,4.3-3.2,5.5c-0.7,0.5-1.1,1.3-1.1,2.2c0,1,0.5,1.9,1.2,2.4c0.8,0.5,4,2,5.7,1.3l0.2-0.1c3.9-1.6,6.4-9.5,5.1-15
						c-0.1-0.5-0.2-1-0.4-1.4c-0.1-0.3-0.4-0.8-0.7-1.3c-0.5-0.8-1.3-1.7-2.5-2.3c-0.2-0.1-0.4-0.2-0.6-0.3
						c-0.2-0.1-0.4-0.2-0.7-0.2c-0.6-0.2-1.3-0.3-2.1-0.2c-1.1,0-2.5,0.3-4,0.8l-0.3,0.1c-0.7,0.3-1.3,0.6-1.9,1.1
						c-0.6,0.3-1.2,0.8-1.7,1.3c-1.1,0.9-2.1,2-3.1,3.2c-0.5,0.6-1,1.2-1.4,1.8c-0.9,1.3-1.8,2.6-2.5,4.1c-0.4,0.9-0.8,1.8-1.2,2.7
						c-1.2,3.2-1.9,6.3-1.5,8.8c0.8,5.6,7.8,5.5,12.9,5.4c1.3,0,3.1,0,4.1,0.1c-0.2,0.5-0.7,1.3-1.8,2.3c-1.4,1.4-3.2,2.6-4.8,3.3
						l-0.3,0.1c-1.2,0.5-2.6,0.5-3,0.2l-0.1-0.2l-0.1-0.2c-0.7-0.8-1.7-1.1-2.7-0.7l-0.1,0.1c-0.7,0.3-1.2,0.9-1.5,1.7
						c-0.6,1.8,0.4,5.4,2.6,7.5c2.1,1.9,4.8,2.4,7.7,1.3l0.4-0.1c3.8-1.6,8.4-5.9,10.5-10.6c0.4-0.9,0.7-1.7,0.9-2.6
						c0.4-1.6,0.5-3,0.2-4.5C107.5,76.3,107.2,75.6,106.7,75L106.7,75L106.7,75z M105.1,80.3c-0.9,5.3-6.7,11.2-10.7,12.7
						c-6.2,2.3-8.2-4.8-7.7-6.4c0-0.2,0.2-0.3,0.3-0.4s0.3,0,0.4,0.1c0.9,1.8,4,1.3,5.4,0.8c3.6-1.4,8.7-5.8,8.2-8.4
						c-0.6-3.1-16.1,1.6-17.1-4.9c-0.3-2.3,0.3-5.4,1.6-8.5c0.4-1,0.9-2,1.5-3c1-1.8,2.2-3.5,3.5-5h0c0.7-0.8,1.3-1.5,2-2.1
						c1.2-1.1,2.5-1.9,3.8-2.4c1.3-0.5,2.4-0.7,3.3-0.7c0.1,0,0.2,0,0.3,0c0.8,0,1.6,0.2,2.2,0.5c0.1,0,0.2,0.1,0.3,0.1
						c0.8,0.5,1.4,1.2,1.8,2.2c0.3,0.7,0.5,1.5,0.6,2.3c0.7,4.6-1.5,10.9-4.2,11.9c-0.6,0.2-3-0.5-4-1.2c-0.3-0.2-0.5-0.9-0.1-1.2
						c3.5-2.3,4.9-7.9,4-10.4c-0.1-0.2-0.2-0.4-0.3-0.6c-0.2-0.1-0.3-0.3-0.4-0.5c-0.4-0.3-0.9-0.3-1.6-0.1
						c-0.3,0.1-0.6,0.3-0.9,0.6c-0.5,0.4-1,0.9-1.6,1.6c0,0-0.1,0.1-0.1,0.1c-1.2,1.5-2.5,3.6-3.5,5.7h0c-1.4,3-2.3,6-2,7.9
						c0.6,3.6,12.1,0.7,14.6,5.5C104.8,77.8,104.9,79.2,105.1,80.3L105.1,80.3z"/>
					<path class="st5" d="M105.1,80.3c0.2-1,0.2-2,0-2.9c-0.1-0.3-0.2-0.7-0.3-1C104.7,77.8,104.9,79.2,105.1,80.3z"/>
					<path class="st3" d="M127.7,74.3c-0.1-0.1-0.1-0.3-0.1-0.5c-0.3,0.6-0.5,1.3-0.8,1.9c-0.3,0.8-0.7,1.5-1,2.1
						c-0.2,0.4-0.3,0.7-0.5,0.9c-0.4,0.6-0.7,0.9-1,1c-0.3,0.1-0.9,0.2-1.5,0.2c-1.6-0.1-3.6-0.6-4.3-2.3c-1.1,2.8-2.5,5.1-4,5.7
						c-1.7,0.6-3.8,0.3-5-1.1c-0.3-0.3-0.6-0.8-0.7-1.2c-0.6-1.8-0.8-4.5-0.4-7.2v0c0.6-4.3,2.6-8.7,6.4-10c2.3-0.8,3.8-0.2,4.7,0.9
						c0.2-0.8,0.3-1.4,0.4-1.9c0.2-0.7,0.5-1,1-1.2c1-0.3,3.6-0.2,3.2,1.5c-0.5,2.3-1.5,13.8-0.3,13.4c0.2-0.1,0.5-0.5,0.9-1.1
						c0.4-0.8,1-1.9,1.6-3.3c0,0,0,0,0,0c0.5-1,0.9-2.2,1.4-3.3l0-0.1h0c0-0.7,0.1-1.5,0.2-2.3c-0.6,0.3-1.1,0.9-1.4,1.6l0,0.1l0,0
						c-0.1,0.1,0,0.1-0.1,0.2c-0.1,0.3-0.2,0.6-0.4,1c0.2-2.3,0.4-4.6,0.6-5.5c0.3-1.2-0.1-2.3-0.9-3c-0.1-0.1-0.2-0.2-0.4-0.3
						c-1.4-0.9-3.4-0.8-4.5-0.5l-0.2,0c-0.8,0.4-1.5,1-1.8,1.8c-1.1-0.3-2.4-0.3-4.1,0.3c-0.2,0-0.3,0.1-0.4,0.2
						c-4.1,1.7-6.3,6-7.1,10.4c-0.2,0.9-0.3,1.8-0.3,2.6l0,0c-0.2,2.5,0.1,4.9,0.7,6.6l0.1,0.1c0.3,0.8,0.7,1.5,1.3,2.1
						c0.6,0.6,1.4,1.1,2.3,1.4c1.4,0.5,3.1,0.5,4.6-0.1l0.2-0.1c1.4-0.6,2.7-1.9,3.8-4c0.6,0.3,1.2,0.5,1.9,0.7
						c0.7,0.2,1.4,0.2,2,0.2c0.8,0,1.5-0.1,1.9-0.3l0.1,0c0.3-0.2,0.6-0.3,1.2-0.9c0.3-0.3,0.6-0.7,0.9-1.3c0.1-0.1,0.1-0.2,0.2-0.3
						c0.2-0.4,0.5-0.9,0.7-1.4c0.2-0.5,0.5-1.1,0.8-1.7C128.7,75.7,128,75.1,127.7,74.3L127.7,74.3z M116.4,65.9
						c-4.4,1.6-4.5,14.6-2.3,13.8C118,78.3,120.1,64.6,116.4,65.9z M116,74.6c-0.2,0.7-0.5,1.3-0.7,1.7c-0.1-1.6,0.1-4,0.8-6.1
						c0.2-0.8,0.6-1.3,0.8-1.7C117.1,69.9,116.8,72.3,116,74.6L116,74.6z"/>
					<path class="st3" d="M138.3,58.3c-1.5,0.5-3.5,4.9-4.6,8.3c-0.4,1.1-0.6,2-0.8,2.8c0.2,0.5,0.4,0.9,0.7,1.3
						c0.7,0.9,1.8,1.5,2.9,1.1C139,71,140.6,57.5,138.3,58.3z M137.8,65.1c-0.4,2.7-1,4.3-1.4,4.9c-0.2-0.1-0.5-0.4-0.7-0.8
						c0.6-2.1,1.5-4.5,2.4-6.4C138,63.6,137.9,64.3,137.8,65.1L137.8,65.1z M138.3,58.3c-1.5,0.5-3.5,4.9-4.6,8.3
						c-0.4,1.1-0.6,2-0.8,2.8c0.2,0.5,0.4,0.9,0.7,1.3c0.7,0.9,1.8,1.5,2.9,1.1C139,71,140.6,57.5,138.3,58.3z M137.8,65.1
						c-0.4,2.7-1,4.3-1.4,4.9c-0.2-0.1-0.5-0.4-0.7-0.8c0.6-2.1,1.5-4.5,2.4-6.4C138,63.6,137.9,64.3,137.8,65.1L137.8,65.1z
						 M138.3,58.3c-1.5,0.5-3.5,4.9-4.6,8.3c-0.4,1.1-0.6,2-0.8,2.8c0.2,0.5,0.4,0.9,0.7,1.3c0.7,0.9,1.8,1.5,2.9,1.1
						C139,71,140.6,57.5,138.3,58.3z M137.8,65.1c-0.4,2.7-1,4.3-1.4,4.9c-0.2-0.1-0.5-0.4-0.7-0.8c0.6-2.1,1.5-4.5,2.4-6.4
						C138,63.6,137.9,64.3,137.8,65.1L137.8,65.1z M138.3,58.3c-1.5,0.5-3.5,4.9-4.6,8.3c-0.4,1.1-0.6,2-0.8,2.8
						c0.2,0.5,0.4,0.9,0.7,1.3c0.7,0.9,1.8,1.5,2.9,1.1C139,71,140.6,57.5,138.3,58.3z M137.8,65.1c-0.4,2.7-1,4.3-1.4,4.9
						c-0.2-0.1-0.5-0.4-0.7-0.8c0.6-2.1,1.5-4.5,2.4-6.4C138,63.6,137.9,64.3,137.8,65.1L137.8,65.1z M146.1,57.6
						c0-0.2-0.1-0.3-0.1-0.4c-0.3-0.8-0.6-1.4-1.1-2c-1.5-1.9-3.7-2.6-6.1-1.8l-0.3,0.1c-0.5,0.2-1.1,0.5-1.6,1
						c0.4-2.9,0.8-5.5,1-7.4c0.1-0.5,0.1-0.9,0.2-1.3c0.1-0.4,0.1-0.7,0.1-0.9c0-0.3,0-0.4,0.1-0.5c0.2-1.1-0.2-2.1-1-2.8
						c-1.4-1.2-3.6-0.9-4.6-0.6l-0.4,0.2c-1.7,0.7-2.3,2-2.6,3.2l0,0.1c0,0-0.2,1.1-0.5,2.8c-0.1,0.8-0.3,1.7-0.4,2.7
						c-0.3,2.2-0.8,5-1.2,7.8c-0.1,0.5-0.1,1.1-0.2,1.6c-0.5,3.7-0.8,6.5-1,8.7c-0.1,1.7-0.1,2.9-0.1,3.8c0.5-1,0.9-2.2,1.4-3.3
						l0-0.1h0c0-0.7,0.1-1.5,0.2-2.3c0.2-1.6,0.3-3.2,0.6-4.9c0.5-4.1,1.2-8.5,1.8-11.6c0.3-1.7,0.5-3.1,0.7-3.9
						c0.1-0.6,0.2-1,0.2-1c0.3-1.1,0.6-1.6,1.6-1.9c0,0,0.1,0,0.1-0.1c0.1,0,0.2-0.1,0.3-0.1c1.1-0.2,2.9,0,2.7,1.3
						c0,0,0,0.3-0.1,0.6c-0.1,0.5-0.2,1.2-0.3,2c-0.5,3.7-1.4,10.6-2.1,16.4c1.4-3.5,3.4-7.1,5.5-7.8c2.7-0.9,4.3,0.7,5,3.4
						c0.6,2.2,0.6,5.3,0,8.1c-0.7,3.7-2.2,6.9-4.2,7.6c-2.6,0.9-4.9-0.1-6.5-1.8c0-0.1-0.1-0.1-0.1-0.2c0,0.1,0,0.3,0,0.4v0
						c0.1,1,0.2,2.1,0.5,2.9c0.1,0.5-0.1,0.7-0.5,0.9c-0.4,0-0.9,0-1.4-0.1c-0.6-0.1-1.3-0.2-1.9-0.6c-0.8-0.3-1.5-0.9-1.8-1.8
						c-0.1-0.1-0.1-0.3-0.1-0.5c-0.3,0.6-0.5,1.3-0.8,1.9c0.4,0.9,1.2,1.5,1.9,2c0.6,0.3,1.2,0.6,1.8,0.7c1.1,0.3,2.2,0.3,3,0.3h0.3
						l0.2-0.1c0.1-0.1,0.2,0,0.2-0.1c1-0.4,1.5-1.2,1.6-2.1c1.6,0.5,3.2,0.4,4.9-0.1l0.3-0.1c2.3-0.9,3.7-3.6,4.5-5.9
						c0.3-0.9,0.5-1.8,0.7-2.5c0,0,0-0.1,0-0.1c0.2-1,0.3-1.9,0.4-2.9v0c-0.2-1.1-0.2-2.5,0-4C146.5,59.5,146.3,58.5,146.1,57.6
						L146.1,57.6z M136.6,71.8c2.4-0.8,4-14.3,1.7-13.5c-1.5,0.5-3.5,4.9-4.6,8.3c-0.4,1.1-0.6,2-0.8,2.8c0.2,0.5,0.4,0.9,0.7,1.3
						C134.4,71.6,135.4,72.2,136.6,71.8z M138,62.9c-0.1,0.7-0.1,1.4-0.2,2.2c-0.4,2.7-1,4.3-1.4,4.9c-0.2-0.1-0.5-0.4-0.7-0.8
						C136.2,67.2,137.1,64.8,138,62.9L138,62.9z M138.3,58.3c-1.5,0.5-3.5,4.9-4.6,8.3c-0.4,1.1-0.6,2-0.8,2.8
						c0.2,0.5,0.4,0.9,0.7,1.3c0.7,0.9,1.8,1.5,2.9,1.1C139,71,140.6,57.5,138.3,58.3z M137.8,65.1c-0.4,2.7-1,4.3-1.4,4.9
						c-0.2-0.1-0.5-0.4-0.7-0.8c0.6-2.1,1.5-4.5,2.4-6.4C138,63.6,137.9,64.3,137.8,65.1L137.8,65.1z M138.3,58.3
						c-1.5,0.5-3.5,4.9-4.6,8.3c-0.4,1.1-0.6,2-0.8,2.8c0.2,0.5,0.4,0.9,0.7,1.3c0.7,0.9,1.8,1.5,2.9,1.1
						C139,71,140.6,57.5,138.3,58.3z M137.8,65.1c-0.4,2.7-1,4.3-1.4,4.9c-0.2-0.1-0.5-0.4-0.7-0.8c0.6-2.1,1.5-4.5,2.4-6.4
						C138,63.6,137.9,64.3,137.8,65.1L137.8,65.1z M138.3,58.3c-1.5,0.5-3.5,4.9-4.6,8.3c-0.4,1.1-0.6,2-0.8,2.8
						c0.2,0.5,0.4,0.9,0.7,1.3c0.7,0.9,1.8,1.5,2.9,1.1C139,71,140.6,57.5,138.3,58.3z M137.8,65.1c-0.4,2.7-1,4.3-1.4,4.9
						c-0.2-0.1-0.5-0.4-0.7-0.8c0.6-2.1,1.5-4.5,2.4-6.4C138,63.6,137.9,64.3,137.8,65.1L137.8,65.1z"/>
					<path class="st3" d="M151.7,59.3c-0.3,1.7-0.3,3.3,0.2,4.6c0.3,0.9,1.2,2.4,3.6,1.6c0.9-0.3,1.6-1,2.3-1.8
						C155.1,63.5,152.8,62.2,151.7,59.3L151.7,59.3z M156.1,52.5c-1.2,0.4-3.2,2.7-2.2,5.7c0.7,2.1,2.8,3.1,5,3.1
						C160.5,56.9,160,51.2,156.1,52.5z M158.1,59.2c-0.8-0.2-1.4-0.7-1.7-1.5c-0.6-1.9,0.7-3.1,0.9-3.2c0.3-0.1,0.5-0.1,0.5-0.1
						C158.3,54.6,158.7,56.6,158.1,59.2L158.1,59.2z M156.1,52.5c-1.2,0.4-3.2,2.7-2.2,5.7c0.7,2.1,2.8,3.1,5,3.1
						C160.5,56.9,160,51.2,156.1,52.5z M158.1,59.2c-0.8-0.2-1.4-0.7-1.7-1.5c-0.6-1.9,0.7-3.1,0.9-3.2c0.3-0.1,0.5-0.1,0.5-0.1
						C158.3,54.6,158.7,56.6,158.1,59.2L158.1,59.2z M151.7,59.3c-0.3,1.7-0.3,3.3,0.2,4.6c0.3,0.9,1.2,2.4,3.6,1.6
						c0.9-0.3,1.6-1,2.3-1.8C155.1,63.5,152.8,62.2,151.7,59.3L151.7,59.3z M151.7,59.3c-0.3,1.7-0.3,3.3,0.2,4.6
						c0.3,0.9,1.2,2.4,3.6,1.6c0.9-0.3,1.6-1,2.3-1.8C155.1,63.5,152.8,62.2,151.7,59.3L151.7,59.3z M156.1,52.5
						c-1.2,0.4-3.2,2.7-2.2,5.7c0.7,2.1,2.8,3.1,5,3.1C160.5,56.9,160,51.2,156.1,52.5z M158.1,59.2c-0.8-0.2-1.4-0.7-1.7-1.5
						c-0.6-1.9,0.7-3.1,0.9-3.2c0.3-0.1,0.5-0.1,0.5-0.1C158.3,54.6,158.7,56.6,158.1,59.2L158.1,59.2z M156.1,52.5
						c-1.2,0.4-3.2,2.7-2.2,5.7c0.7,2.1,2.8,3.1,5,3.1C160.5,56.9,160,51.2,156.1,52.5z M158.1,59.2c-0.8-0.2-1.4-0.7-1.7-1.5
						c-0.6-1.9,0.7-3.1,0.9-3.2c0.3-0.1,0.5-0.1,0.5-0.1C158.3,54.6,158.7,56.6,158.1,59.2L158.1,59.2z M151.7,59.3
						c-0.3,1.7-0.3,3.3,0.2,4.6c0.3,0.9,1.2,2.4,3.6,1.6c0.9-0.3,1.6-1,2.3-1.8C155.1,63.5,152.8,62.2,151.7,59.3L151.7,59.3z
						 M169.2,54c-0.2-0.2-0.5-0.4-0.8-0.5c-0.4,0.9-0.7,1.9-1.1,2.9c0,0.1-0.1,0.2-0.1,0.3c-0.3,0.9-0.6,1.8-1,2.5
						c-0.3,0.6-0.7,1.2-1.1,1.7c-0.8,1-1.9,1.8-3.4,2.3c-1.4,2.8-3.6,5.1-6.5,6.1c-3.6,1.1-5.6,0.2-6.8-1.2v0
						c-0.7-0.8-1.1-1.7-1.4-2.4c-0.1-0.2-0.1-0.5-0.2-0.8v0c-0.2-1.1-0.2-2.5,0-4c0.2-1.3,0.6-2.7,1.1-4c1.3-2.9,3.4-5.6,6.6-6.6
						c4.6-1.5,7.3,0.6,8.2,3.9h0c0.4,1.5,0.5,3.3,0.2,5.1c-0.1,0.4-0.1,0.7-0.2,1.1c0.2-0.2,0.5-0.3,0.7-0.5c0.5-0.4,0.9-1,1.2-1.6
						c0,0,0.1,0,0-0.1c0.5-1.2,0.7-1.6,0.9-2.1h0c0.1-0.1,0.1-0.3,0.1-0.3c0.4-0.8,0.7-1.6,1.1-2.4c-0.1,0-0.2,0-0.3,0.1l-0.2,0.1
						c-0.3,0.1-0.6,0.3-0.8,0.5c0-0.2-0.1-0.3-0.2-0.5c-0.4-1.5-1.2-2.8-2.2-3.8c-0.5-0.5-1.1-0.9-2-1.3c-1.5-0.7-3.6-0.9-6.4,0
						c-0.3,0.1-0.6,0.2-0.9,0.3c-3,1.2-5.1,3.7-6.6,6.5c-0.4,0.8-0.8,1.7-1.1,2.5c-1,3.1-1.1,6.4-0.4,8.7c0.1,0.4,0.3,0.9,0.6,1.4
						c0.3,0.7,0.8,1.5,1.5,2.1v0c0.2,0.2,0.6,0.5,0.9,0.7c2,1.4,4.6,1.6,7.6,0.6c0.2,0,0.3-0.1,0.5-0.2l0.4-0.2
						c0.5-0.2,1-0.5,1.5-0.7c2-1.2,3.8-3.1,5-5.4c2.1-0.9,3.4-2.2,4.3-3.7h0c0.7-1.2,1.2-2.5,1.7-3.8c0-0.1,0.1-0.1,0.1-0.2
						C170.2,56,170,54.8,169.2,54L169.2,54z M156.1,52.5c-1.2,0.4-3.2,2.7-2.2,5.7c0.7,2.1,2.8,3.1,5,3.1
						C160.5,56.9,160,51.2,156.1,52.5z M156.5,57.7c-0.6-1.9,0.7-3.1,0.9-3.2c0.3-0.1,0.5-0.1,0.5-0.1c0.4,0.2,0.8,2.2,0.2,4.8
						C157.4,58.9,156.7,58.5,156.5,57.7L156.5,57.7z M151.7,59.3c-0.3,1.7-0.3,3.3,0.2,4.6c0.3,0.9,1.2,2.4,3.6,1.6
						c0.9-0.3,1.6-1,2.3-1.8C155.1,63.5,152.8,62.2,151.7,59.3L151.7,59.3z M151.7,59.3c-0.3,1.7-0.3,3.3,0.2,4.6
						c0.3,0.9,1.2,2.4,3.6,1.6c0.9-0.3,1.6-1,2.3-1.8C155.1,63.5,152.8,62.2,151.7,59.3L151.7,59.3z M156.1,52.4
						c-1.2,0.4-3.2,2.7-2.2,5.7c0.7,2.1,2.8,3.1,5,3.1C160.5,56.9,160,51.2,156.1,52.4z M158.1,59.2c-0.8-0.2-1.4-0.7-1.7-1.5
						c-0.6-1.9,0.7-3.1,0.9-3.2c0.3-0.1,0.5-0.1,0.5-0.1C158.3,54.6,158.7,56.6,158.1,59.2L158.1,59.2z M156.1,52.4
						c-1.2,0.4-3.2,2.7-2.2,5.7c0.7,2.1,2.8,3.1,5,3.1C160.5,56.9,160,51.2,156.1,52.4z M158.1,59.2c-0.8-0.2-1.4-0.7-1.7-1.5
						c-0.6-1.9,0.7-3.1,0.9-3.2c0.3-0.1,0.5-0.1,0.5-0.1C158.3,54.6,158.7,56.6,158.1,59.2L158.1,59.2z M151.7,59.3
						c-0.3,1.7-0.3,3.3,0.2,4.6c0.3,0.9,1.2,2.4,3.6,1.6c0.9-0.3,1.6-1,2.3-1.8C155.1,63.5,152.8,62.2,151.7,59.3L151.7,59.3z"/>
					<path class="st3" d="M148.9,34.3c-0.6-0.3-1.3-0.6-2.1-1.1c-0.5-0.3-1.1-0.6-1.5-1.1c-0.4,1-0.9,2.2-1.5,3.4
						c-0.4,1,0.3,2.3,1.6,2.7c0.6,0.2,1.2,0.2,1.9,0c0.1,0,0.2-0.1,0.3-0.1c1.8-0.6,2.4-1.8,2.2-2.7
						C149.8,34.9,149.4,34.6,148.9,34.3L148.9,34.3z M146.4,36.4c0.2-0.3,0.3-0.6,0.4-0.9c0.4,0.2,0.7,0.3,1.1,0.5
						c0.1,0.1,0.4,0.2,0.5,0.2c-0.2,0.1-0.4,0.2-0.8,0.4h-0.1C146.9,36.7,146.5,36.5,146.4,36.4L146.4,36.4z M156.2,29.2L156.2,29.2
						l0,0.1l-0.1,0.1l0,0v0c-0.3,0.7-0.7,1.3-1,1.9c-0.4-0.4-0.8-0.6-1.1-0.9c-0.4-0.2-0.7-0.5-1-0.7c-0.4-0.3-1.1-0.7-1.3-0.9
						c0-0.6,1-2.2,1.8-2.8c0.8-0.6,1.4-1.8,0.6-3.5c-0.7-1.6-2.7-3.5-4.8-3l-0.1,0c-0.2,0-0.5,0.1-0.9,0.4c-2.4,1.4-4,3.8-4.8,6.1
						c-0.5,1.3-0.7,2.6-0.6,3.8c-0.5,1-1.1,2.2-1.7,3.5l-0.4,0.8v0l-0.5,1c-0.5,1.1-0.6,2.3-0.4,3.6c0.5-0.8,1-1.9,1.6-3
						c0.1-0.2,0.2-0.4,0.3-0.6c0.7-1.5,1.4-2.8,1.9-4c0.2-0.5,0.4-0.9,0.7-1.3c-0.1-0.2-0.1-0.4-0.1-0.7c-0.1-2.3,1.4-5.9,4.6-7.9
						c0.1-0.1,0.2-0.1,0.3-0.1c1.4-0.4,3.4,2.4,2.6,3c-1.1,0.7-3,3.2-2.5,4.9c0.4,1.4,3.2,2.3,4.6,4.2c0.3,0.4,0.4,0.8,0.6,1.2
						l0.1,0.5c0.4-0.7,0.8-1.4,1.3-2.2c0.5-0.9,1-1.8,1.5-2.8c0,0,0.1-0.1,0.1-0.1c0.1-0.8,0.3-1.5,0.5-2.3
						C156.9,28.1,156.4,29,156.2,29.2L156.2,29.2z M157.3,34.2c-0.4,0.7-0.8,1.3-1.1,1.9c-0.5,0.8-1,1.4-1.4,1.9
						c-0.4,0.5-0.8,0.8-1.1,1.1c-0.9,1.2-2.4,2.3-4.8,3c-1.1,0.3-2.2,0.4-3.1,0.2c-0.7-0.1-1.4-0.3-1.9-0.6c-0.9-0.5-1.6-1.1-2-1.8
						c-0.3,0.6-0.6,1.1-0.8,1.6c0.1,0.1,0.1,0.2,0.2,0.3c0.5,0.6,1.1,1.1,1.8,1.5c0.6,0.4,1.1,0.6,1.8,0.8c1.4,0.5,3.1,0.5,4.8,0.2
						c0.1,0,0.3-0.1,0.4-0.1c3.1-0.8,4.8-2.3,5.7-3.5c0.2-0.1,0.3-0.3,0.5-0.5c0.4-0.4,0.9-0.9,1.3-1.5c0.3-0.4,0.7-0.9,1-1.4
						c-0.5-0.4-0.8-1-1-1.7C157.4,35.1,157.3,34.7,157.3,34.2L157.3,34.2z M147.4,38.2c0.1,0,0.2-0.1,0.3-0.1
						c1.8-0.6,2.4-1.8,2.2-2.7c-0.1-0.5-0.5-0.8-1-1c-0.6-0.3-1.3-0.6-2.1-1.1c-0.5-0.3-1.1-0.6-1.5-1.1c-0.4,1-0.9,2.2-1.5,3.4
						c-0.4,1,0.3,2.3,1.6,2.7C146.1,38.4,146.7,38.4,147.4,38.2L147.4,38.2z M147.8,35.9c0.1,0.1,0.4,0.2,0.5,0.2
						c-0.2,0.1-0.4,0.2-0.8,0.4h-0.1c-0.6,0.1-0.9,0-1.1-0.2c0.2-0.3,0.3-0.6,0.4-0.9C147.2,35.6,147.5,35.8,147.8,35.9L147.8,35.9z
						"/>
					<path class="st3" d="M108.4,38.3c-0.6,0.2-1,0.3-1.3,0.4c-1.4,0.4-2.8-1.3-3.2-2.2c-0.3-0.5-0.1-1,0.3-1.1c0.1,0,0.1,0,0.2,0
						c0.3,0,2.6-0.6,5.1-1.4c3-0.9,6.2-1.9,6.6-2c1-0.3,3.6,0,3.2,1.7c-0.6,2.2-2.2,13.7-1.1,13.4c0.3-0.1,0.7-0.7,1.3-1.6v0
						c0.5-0.8,1.1-1.9,1.6-3.1v0c0.5-1,0.9-1.9,1.5-2.9c0,0,0-0.1,0.1-0.1c0.1-0.8,0.2-1.5,0.4-2.3c-0.9,0.5-1.4,1.3-1.6,1.6l0,0.1
						c0,0,0,0-0.1,0.1l0,0c-0.1,0.2-0.3,0.7-0.5,1c0.3-2.3,0.7-4.6,0.9-5.5c0.3-0.9,0.1-1.8-0.4-2.5c-0.1-0.2-0.2-0.4-0.3-0.5
						c-1.2-1.3-3.5-1.4-4.7-1.1l-0.2,0c-0.1,0.1-0.4,0.2-0.9,0.3c-1.2,0.4-3.5,1.1-5.7,1.7c-2,0.6-3.7,1.1-4.4,1.2l-0.2,0
						c0,0-0.1,0-0.1,0l-0.1,0c-0.1,0-0.2,0-0.3,0l-0.1,0l-0.1,0c-0.5,0.1-0.8,0.4-1.2,0.7c-0.2,0.2-0.4,0.5-0.5,0.8
						c-0.2,0.5-0.2,1-0.1,1.5c0.1,0.3,0.2,0.6,0.3,0.8c0.7,1.3,1.9,2.7,3.4,3.1c-0.8,2.6-2,6-3,8.1c-0.3,0.6-0.6,1.1-0.8,1.4
						c-0.1,0-0.1,0.1-0.1,0.1c-0.6,0.6-0.6,0.7-1.2,0.9h0c-0.4,0.1-0.8,0.3-1.1,0.6c0.8,0,1.6,0.2,2.2,0.5c0.1,0,0.2,0.1,0.3,0.1
						c0.1-0.2,0.2-0.4,0.2-0.5c0.2-0.2,0.3-0.3,0.5-0.6c0.2-0.2,0.3-0.4,0.5-0.7C105.3,48.4,107.2,42.4,108.4,38.3L108.4,38.3z
						 M122.6,44.1c-0.3,0.7-0.6,1.4-0.9,2c-0.4,0.8-0.8,1.5-1.2,2.2c-0.7,1.2-1.4,2-1.8,2.2c-1,0.3-5,0-5.7-2.5
						c-0.8-2.6,0.3-7.9,1.2-11.5c-1.3,0.4-2.6,0.8-3.7,1.2c-0.8,4.2-2.3,12.2-4.3,15.5c-0.3,0.4-0.6,0.8-0.8,1
						c-0.3,0.3-0.7,0.5-1.1,0.6c0.3,0.7,0.5,1.5,0.6,2.3h0.1c0.1,0,0.2-0.1,0.3-0.1c0.7-0.2,1.4-0.6,1.9-1.1l0.1,0
						c1.7-1.5,3-5.1,4-9.6c0,1,0.2,1.8,0.4,2.5c1.1,3.7,6.1,4.3,7.9,3.9l0.2,0c0.4-0.1,1.2-0.3,2.5-2.3c0.3-0.5,0.7-1,1-1.7
						c0.3-0.5,0.5-1,0.8-1.6c-0.6-0.5-1.1-1.1-1.3-2C122.7,44.8,122.6,44.5,122.6,44.1L122.6,44.1z"/>
					<path class="st3" d="M143.4,31.4c-1.3,0.4-1.9,1.4-2.1,1.8l0,0c0,0-0.4,0.8-0.6,1.2c0,0,0-0.1,0-0.1v0c0.3-2.3,0.7-4.4,1-5.3
						c0.3-0.9,0.2-1.9-0.4-2.6c-0.1-0.2-0.2-0.3-0.3-0.5c-1.3-1.4-3.6-1.4-4.7-1.2l-0.2,0c-0.9,0.2-1.6,0.9-2.1,1.7
						c-0.9-0.3-2.1-0.4-3.6-0.1l-0.5,0.1c-2.7,0.8-4.9,2.7-6.5,5.5c-0.5,0.9-1,2-1.4,3.1c-0.4,1.3-0.8,2.6-0.9,3.9l0,0
						c-0.2,1.2-0.2,2.3-0.2,3.4c0.5-1,1-1.9,1.5-2.9c0,0,0-0.1,0.1-0.1c0.1-0.8,0.2-1.5,0.4-2.3h0c0.2-0.8,0.4-1.6,0.7-2.4v0
						c1.2-3.1,3.3-5.8,6.3-6.6c2.4-0.7,3.8,0,4.6,1.3c0.2-0.8,0.4-1.4,0.6-1.9c0.2-0.6,0.5-1,1-1.1c1-0.3,3.6,0,3.1,1.7
						c-0.7,2.2-2.4,13.7-1.3,13.4c0.2,0,0.4-0.2,0.6-0.5c0.4-0.4,0.8-1.2,1.3-2.1v0c0.5-0.8,1-1.9,1.6-3c0.1-0.2,0.2-0.4,0.3-0.6
						c0.7-1.5,1.4-2.8,1.9-4L143.4,31.4L143.4,31.4z M131.6,30.6c-1.9,0.5-3.1,3.1-3.8,5.9c-0.8,3.1-0.8,6.5-0.1,7.5
						c0.2,0.2,0.4,0.3,0.6,0.3C132.3,43.1,135.3,29.6,131.6,30.6L131.6,30.6z M130.4,39.7c-0.2,0.5-0.4,0.9-0.6,1.3
						c0.1-1.8,0.4-4.2,1.4-6.3c0.3-0.6,0.6-1.1,0.8-1.4C131.9,34.8,131.5,37.3,130.4,39.7L130.4,39.7z M141.9,39.8
						c-0.3,0.6-0.6,1.1-0.8,1.6c-0.4,0.7-0.7,1.3-1.1,1.8c-0.6,0.9-1.1,1.5-1.5,1.6c-0.1,0-0.2,0-0.3,0c-0.6,0.1-1.6,0-2.6-0.3
						c-0.1,0.5-0.2,1.2-0.3,2c0.9,0.3,1.8,0.4,2.6,0.5c0.6,0,1.2,0,1.6-0.1l0.2,0c0.5-0.1,1.2-0.3,2.4-2.1c0.3-0.5,0.7-1,1-1.7
						c0.3-0.5,0.6-1,0.9-1.7C143,41.2,142.3,40.6,141.9,39.8L141.9,39.8z M132.5,42.9c0,0,0.1,0,0.1-0.1c0.1,0,0.2-0.1,0.3-0.1
						c-0.1-0.1-0.1-0.2-0.1-0.4C132.7,42.5,132.6,42.7,132.5,42.9L132.5,42.9z M128.3,47.7c-0.8,0.2-1.6,0.2-2.4,0.1
						c-0.6-0.1-1.3-0.4-1.8-0.8c-0.6-0.5-1.1-1.1-1.3-2c-0.1-0.3-0.2-0.6-0.2-1c-0.3,0.7-0.6,1.4-0.9,2c0.3,1,0.9,1.8,1.7,2.4
						c0.5,0.4,1.1,0.8,1.7,1c1.2,0.4,2.5,0.6,3.6,0.4c0.2,0,0.3,0,0.5-0.1l0.3-0.1c0.2,0,0.4-0.1,0.6-0.2c0.3-1.7,0.5-3.1,0.7-3.9
						c-0.5,0.7-1.1,1.2-1.6,1.6C128.9,47.5,128.6,47.6,128.3,47.7z M145.3,32.2c-0.4,1-0.9,2.2-1.5,3.4c-0.4,1,0.3,2.3,1.6,2.7
						c0.4-0.8,0.8-1.8,1.2-2.8c0.3-0.7,0.4-1.5,0.1-2.1C146.3,33,145.8,32.7,145.3,32.2L145.3,32.2z M131.6,30.6
						c-1.9,0.5-3.1,3.1-3.8,5.9c-0.8,3.1-0.8,6.5-0.1,7.5c0.2,0.2,0.4,0.3,0.6,0.3C132.2,43.1,135.3,29.6,131.6,30.6L131.6,30.6z
						 M130.4,39.7c-0.2,0.5-0.4,0.9-0.6,1.3c0.1-1.8,0.4-4.2,1.4-6.3c0.3-0.6,0.6-1.1,0.8-1.4C131.9,34.8,131.5,37.3,130.4,39.7
						L130.4,39.7z"/>
					<path class="st5" d="M102.1,52.6c0.1,0,0.2,0.1,0.3,0.1c0.1-0.2,0.2-0.4,0.2-0.5C102.4,52.3,102.3,52.5,102.1,52.6z"/>
					<path class="st3" d="M102.6,29.3c-1.8-4.9-7.7-8.8-16.8-6.8c-0.7,0.2-1.5,0.4-2.2,0.6c-11.9,3.8-15.5,12.3-15,16.8
						c0.2,2.1,1.3,4,3.1,5.2c1.4,1,3,1.3,4.5,1c0.1,0,0.2-0.1,0.4-0.1c0.9-0.3,1.6-1,1.8-1.9c0.2-0.8,0-1.7-0.6-2.2
						c-0.2-0.3-0.3-0.5-0.4-0.8c-0.2-1.7,0.5-5.9,3.8-8.9c-0.2,0.3-0.3,0.6-0.4,1l0,0v0.1c-0.1,0.7-3.4,16.3-3.9,24.3
						c-0.2,2.6,0.7,4.8,2.3,6.2c0.9,0.8,2.5,1.6,4.9,1.6c0.5,0,0.9,0,1.5-0.1c0.4-1,0.9-2,1.5-3c-0.6,0.2-1.2,0.3-1.8,0.4
						c-4.9,0.9-7.3-1.6-7-5.5c0.4-7.9,3.8-23.9,3.8-23.9c0.3-1.1,0.9-1.6,1.9-2c1.2-0.4,2.8-0.2,2.6,1.4c-0.1,0.5-2.8,19.2-2.8,22.6
						c0.1,2.4,1.2,4.1,4,3.4c0.1,0,0.3-0.1,0.4-0.1c0.8-0.3,1.6-0.7,2.3-1.2h0c0.8-0.6,1.5-1.3,2-2.1c0.7-0.9,1.1-1.9,1.4-2.9
						c1.4-4.4-0.3-9-5.9-7.2c-0.9,0.3-0.7-1.5,0-1.8c8.7-2.7,9.4-20.1-3.8-15.9c-8.3,2.6-9.9,10.6-9.5,13.4c0.1,0.8,0.4,1.4,0.9,2
						c0.1,0.2,0.1,0.7-0.5,0.9c-2.2,0.7-5-1.4-5.4-4.5c-0.4-3.6,2.8-11.2,13.6-14.6c17-5.4,23.1,11,10,17.9c5.4-0.5,7.7,2.9,7,7.1
						c-0.1,0.2-0.1,0.4-0.2,0.7c-0.1,0.6-0.4,1.2-0.7,1.9c0.1,0,0.2,0,0.3,0c0.8,0,1.6,0.2,2.2,0.5c0.1,0,0.2,0.1,0.3,0.1
						c0.1-0.2,0.2-0.4,0.2-0.5c0.2-0.5,0.3-1,0.4-1.5c0.1-0.5,0.2-1.1,0.2-1.7c0-0.7,0-1.4-0.1-2.1c-0.1-0.5-0.3-1-0.5-1.5
						c-0.6-1.4-1.7-2.7-3.4-3.5c0.9-0.8,1.6-1.7,2.2-2.6c0.5-0.8,0.8-1.5,1.1-2.3c0.3-0.8,0.6-1.6,0.6-2.4c0.1-0.8,0.1-1.7,0.1-2.4
						C103,31.2,102.8,30.2,102.6,29.3L102.6,29.3z M89.2,47.5c0.1,0,0.1,0,0.2-0.1c0.2,0,0.4-0.1,0.6-0.2c2.2-0.5,2.8,0.5,3.1,1.4
						c0.3,1.3,0.1,3.2-0.8,4.8c-0.7,1.3-1.7,2.5-3.1,3.2c-0.3,0.2-0.6,0.3-0.9,0.4c-0.2,0.1-0.3,0.1-0.4,0.1c-0.5,0.1-0.9,0.1-1,0
						c-0.1-0.1-0.3-0.5-0.3-1.5c0-1.2,0.3-4.7,0.8-8.5C87.9,47.5,88.5,47.6,89.2,47.5L89.2,47.5z M86.7,29.5
						c2.4-0.5,5.4-0.5,6.3,2.8c0.9,3.4-1,8.4-4.8,9.6c-0.1,0-0.1,0-0.2,0.1c0.6-4.3,1.1-8.1,1.2-8.5l0-0.1c0.2-1.1-0.1-2.2-0.9-2.9
						c-0.6-0.5-1.3-0.9-2.2-0.9C86.1,29.6,86.7,29.5,86.7,29.5z M99.9,55.2c-0.4-0.3-0.9-0.3-1.6-0.1c-0.3,0.1-0.6,0.3-0.9,0.6
						c-0.5,0.5-1,1.1-1.6,1.6c0,0-0.1,0.1-0.1,0.1c-1.2,1.5-2.5,3.6-3.5,5.7c1.9-0.9,3.4-2,4.7-3c1-0.8,1.8-1.6,2.5-2.4c0,0,0,0,0,0
						c0.2-0.3,0.4-0.5,0.7-0.8c0.2-0.2,0.3-0.4,0.5-0.6c0.1-0.1,0.1-0.1,0.1-0.2c-0.2-0.1-0.3-0.2-0.4-0.4
						C100.1,55.5,100,55.4,99.9,55.2L99.9,55.2z"/>
				</g>
			</g>
		</g>
	</g>
</g>
</svg>
