<svg xmlns="http://www.w3.org/2000/svg" viewBox="0 0 226.11 176.53"><defs><style>.cls-1{fill:#f5ffff;}.cls-2{fill:#ffad01;}.cls-3{fill:#fff;}.cls-4{fill:#e18425;}.cls-5{fill:#bf3e50;}.cls-6{fill:#e86877;}.cls-7{fill:#3d1219;}.cls-8{fill:#bd212f;}.cls-9{fill:#7b1312;}.cls-10{fill:#fdb93e;}.cls-11{fill:#1d1d1b;}.cls-12{fill:#7b1314;}.cls-13{fill:#d94f35;}.cls-14{fill:#aabcd4;}.cls-15{fill:#d5dce2;}.cls-16{fill:#141833;}.cls-17{fill:#d92026;}.cls-18{fill:#feb100;}</style></defs><g id="Capa_2" data-name="Capa 2"><g id="Capa_2-2" data-name="Capa 2"><g id="Capa_1-2" data-name="Capa 1-2"><path class="cls-1" d="M125.54,12.34c-.58-.42-1.2-.84-1.83-1.26s-1-.63-1.62-.94h0c-.68-.37-1.36-.73-2-1.05a35.35,35.35,0,0,0-15.44-3.45h-1c-.68,0-1.31.05-2,.1h0A13.92,13.92,0,0,0,100,5.9c-.63,0-1.26.16-1.83.26a26.75,26.75,0,0,0-2.88.63h0c-.89.26-1.78.52-2.67.84h0a33.48,33.48,0,0,0-8.27,4.24c-.68.47-1.36.94-2,1.47a36,36,0,0,0,22.29,64.38,36.46,36.46,0,0,0,12-2h0a38.13,38.13,0,0,0,4.29-1.83h0c.37-.16.68-.37,1-.52.58-.31,1.1-.63,1.62-.94a12.43,12.43,0,0,0,1-.68h0l.73-.47a13.39,13.39,0,0,0,1.1-.84,10.52,10.52,0,0,0,1.2-1c.63-.52,1.26-1.1,1.83-1.67s1-1,1.52-1.52h0c.42-.42.79-.89,1.15-1.31a13.8,13.8,0,0,0,1.15-1.47,36,36,0,0,0-7.8-51.08h0Zm7.12,50.09-1.1,1.41c-.37.42-.68.84-1.05,1.26s-.79.89-1.26,1.31a34.09,34.09,0,0,1-3.61,3.14c-.26.16-.47.37-.73.52s-.73.52-1.1.73a5,5,0,0,1-.68.42c-.21.11-.42.26-.63.37a1,1,0,0,0-.16.1c-.47.26-.89.52-1.36.79a34.66,34.66,0,0,1-6.75,2.72,34.27,34.27,0,0,1-9.63,1.36A34.87,34.87,0,0,1,76.13,21.5h0a35.09,35.09,0,0,1,6-6.49c.21-.16.37-.31.58-.47s.68-.52,1-.79a34.25,34.25,0,0,1,11-5.55h0c.73-.21,1.52-.42,2.25-.58a4.78,4.78,0,0,0,.89-.21l1.78-.31,1.47-.16h0l1.83-.16h1.62a34.42,34.42,0,0,1,15.86,3.82c.63.31,1.26.68,1.88,1.05s1,.63,1.52.94,1.15.79,1.73,1.2a34.85,34.85,0,0,1,7.06,48.63h.06Z"/><path class="cls-1" d="M83,66.41a32.87,32.87,0,0,1-7.17-40.62,13.74,13.74,0,0,0,.26,1.52,14.91,14.91,0,0,0,1.36,3.4A11.29,11.29,0,0,0,79,44.26a11.4,11.4,0,0,0,4.61,2.93A16.72,16.72,0,0,0,87.9,48C84.5,52.64,80.52,59.91,83,66.3v.1Z"/><path class="cls-2" d="M131.08,55.31v1.62l-.05.31v1L130.56,57,130,55.45h0v-.1h0a10.48,10.48,0,0,0-2.09-3.09c-2-2-4.76-2.77-8-2.25a9.53,9.53,0,0,1-1.67.16h-1.88a18.3,18.3,0,0,1,.73,1.83,11.19,11.19,0,0,1,.47,1.83,12.49,12.49,0,0,1,.26,1.94,12.42,12.42,0,0,0,1.73,1.52,15.74,15.74,0,0,0,6.12,2.56,10.09,10.09,0,0,1,4.61,2.41c-.31.42-.68.79-1,1.2s-.79.84-1.15,1.26a30.21,30.21,0,0,1-4.66,3.93,8,8,0,0,1-.68.47c-.26.16-.52.37-.79.52l-.31.16s-.1.1-.21.1h0l-.31.16h-.05l-1.41.79a33.2,33.2,0,0,1-3.09,1.41,27.38,27.38,0,0,1-3,1c-.73.21-1.47.37-2.2.52-1,.21-2,.37-3.09.52s-2,.16-3,.21h-.73a18.61,18.61,0,0,1-3-.16,33.5,33.5,0,0,1-7.59-1.62h0c-.52-.16-1-.37-1.57-.58a31.39,31.39,0,0,1-5.55-2.88,10.94,10.94,0,0,1-1.94-2.67c-3.45-7,3-15.81,5-18.42.21-.26.37-.47.47-.58a7.74,7.74,0,0,1-.37-1.15c-.1,0-.16.05-.26.05h-.63a16.36,16.36,0,0,1-5-.84,10.06,10.06,0,0,1-3.93-2.51A9.92,9.92,0,0,1,78,39.27a9.43,9.43,0,0,1,.58-7,7.87,7.87,0,0,1,.94-1.57,7.42,7.42,0,0,1-.94-1.57c0-.05,0-.1-.1-.16h0a9.78,9.78,0,0,1-.73-2.09,9.69,9.69,0,0,1-.21-3.87h0a20,20,0,0,1,1.2-1.62h0s.26-.31.37-.47a30.14,30.14,0,0,1,3-3.25c0-.05.16-.1.21-.16s.1-.05.1-.1l.31-.31c.21-.16.42-.37.63-.52s.26-.21.42-.31c.42-.37.89-.68,1.31-1A32.29,32.29,0,0,1,97.61,9.61h.16l1.67-.31h.1l1-.16L102.32,9c.73,0,1.47-.05,2.2-.05a33.08,33.08,0,0,1,16.17,4.24c.58.31,1.15.68,1.73,1.05s.94.63,1.36.94a8.18,8.18,0,0,1-.1,1.1A25,25,0,0,1,122,22.7a20.25,20.25,0,0,1-2.77,4.71c-.21.26-.42.52-.68.79l-.47.47-.47.47a1.43,1.43,0,0,1-.31.26l-.1.1c-.31.31-.68.58-1,.89a1.08,1.08,0,0,1,.37.1,4,4,0,0,1,1.26.73h0l.31.31a3.45,3.45,0,0,1,.52.73,6.73,6.73,0,0,1,.84,3.45,10.25,10.25,0,0,1-.21,2.2,7.77,7.77,0,0,1-.47,1.62,12.77,12.77,0,0,1,1.62.42,20.61,20.61,0,0,1,3.25,1.41,14,14,0,0,1,6.49,8.58,19.82,19.82,0,0,1,.79,5.39l.21,0Z"/><path class="cls-3" d="M129.46,58.87l.31.84A11.15,11.15,0,0,0,126,58.14,13.39,13.39,0,0,1,119.36,55a15.54,15.54,0,0,0-.63-3.19,10.5,10.5,0,0,0,1.36-.16,10,10,0,0,1,1.67-.16,6.51,6.51,0,0,1,4.87,1.94,9.23,9.23,0,0,1,1.73,2.51V56l.47,1.36h0l.52,1.47h.11Z"/><path class="cls-1" d="M132.76,55.37a22.51,22.51,0,0,0-.89-5.91,15.37,15.37,0,0,0-7.33-9.58A19.35,19.35,0,0,0,121,38.36a11.52,11.52,0,0,0,.26-2.67,8,8,0,0,0-.21-1.83h0c0-.1,0-.21,0-.26h0a3,3,0,0,0-.31-1.1,5.13,5.13,0,0,0-.47-1,4.18,4.18,0,0,0-.42-.68c.1.26.21.47.21.52a5.21,5.21,0,0,0-1.1-1.1h0l.21-.21.16-.16a6.34,6.34,0,0,1,.58-.58,7,7,0,0,0,.58-.68,21.09,21.09,0,0,0,3.14-5.29,24.52,24.52,0,0,0,1.83-6.91v-.05a32.8,32.8,0,0,1,7.28,42.29V55.47l.1-.1Z"/><path class="cls-1" d="M121,33.54c-.1-.37-.21-.73-.31-1.1A3.23,3.23,0,0,1,121,33.54Z"/><path class="cls-4" d="M103.87,44.11s10-.79,10.15-.79h7.75s2.62,2.2,2.77,2.3a30.84,30.84,0,0,1,2.93,1.73c.1.21,2.62,5.86,2.62,5.86L127,51.06l-2-1.26-2.83-.47-3.14.21s-3,.1-3.09.16-3.72-.73-3.72-.73l-3.72-1.31-3.66-2.41-1-1.31v.16h.06Z"/><path class="cls-5" d="M112.87,52.64s-5.55-2.25-6.7-4a.15.15,0,0,0,0-.1,11,11,0,0,0,3.09,1.26,3.19,3.19,0,0,1,1,.21,4.3,4.3,0,0,1,2.72,2.67h0Z"/><path class="cls-6" d="M112.71,51.81l-1-1.52-1.73-1-4-1-1-.26.84,1.52,5.91,6.65h1.2L113,56l.84-1.73-1.1-2.46v.05Zm-6.59-3.3a11,11,0,0,0,3.09,1.26,3.19,3.19,0,0,1,1,.21,4.3,4.3,0,0,1,2.72,2.67s-5.55-2.25-6.7-4a.15.15,0,0,0,0-.1h0Z"/><path class="cls-7" d="M112.87,52.64A4.19,4.19,0,0,0,110.15,50a7,7,0,0,0-1-.21,11.4,11.4,0,0,1-3.09-1.26h0l-.16-.26c-.52-.84-.94-1.62-1.31-2.3a30,30,0,0,0,6.8,3.19h0s.1.1.1.16h0c0,.1.16.21.21.31a3,3,0,0,1,.37.68.29.29,0,0,0,0,.16h0a1.07,1.07,0,0,0,.16.37,4.39,4.39,0,0,1,.21.79c0,.26.1.52.16.73h0l.21.31Z"/><path class="cls-3" d="M118.16,36.42a3.29,3.29,0,0,1,0,.58h0v.42a9.1,9.1,0,0,1-.26,1.15c0,.16-.1.37-.16.52a.22.22,0,0,1,0,.16,12.44,12.44,0,0,0-1.36-.1,3.23,3.23,0,0,0,.31-1.1c.16-1.26-.37-2.36-1.2-2.46s-1.62.84-1.78,2.09a3.81,3.81,0,0,0,.16,1.57h-.21a13.74,13.74,0,0,0-1.52.26,10.11,10.11,0,0,0,.1-5.18.58.58,0,0,1,0-.26v-.21a1.48,1.48,0,0,1,.1-.37v-.26h0s0-.1.1-.16.1-.16.16-.26,0-.1.1-.1h0l.47-.47h0a.15.15,0,0,0,.1-.05l.31-.16c.1,0,.16-.1.26-.1h0a.29.29,0,0,0,.16-.05l.63-.16h.79a2.43,2.43,0,0,1,.63.16h.1c.1,0,.21.1.31.16a.15.15,0,0,1,.1.05.17.17,0,0,0,.1,0h0s.1.1.16.1a.54.54,0,0,1,.21.26h0l0,0v.05a2,2,0,0,1,.21.37.29.29,0,0,0,0,.16h0a.22.22,0,0,0,0,.16,5.73,5.73,0,0,1,.26,1,1.58,1.58,0,0,0,.1.47h0v1.52l.37.16Z"/><path class="cls-3" d="M110.88,37.57v.26h0v.26a4.15,4.15,0,0,1-.16.84c0,.31-.16.58-.21.84h0c-.26,0-.47.16-.68.21a3.42,3.42,0,0,0,.26-1.52c0-1.36-.84-2.41-1.73-2.36s-1.52,1.2-1.47,2.56a2.72,2.72,0,0,0,1.1,2.2l-.31.16a17,17,0,0,0-2-.73v-.1c-.16-.26-.26-.52-.42-.79,0,0,0-.1-.1-.21h0c0-.1-.1-.21-.1-.31-.16-.47-.31-.94-.42-1.41a1.84,1.84,0,0,0-.1-.52h0V36.9h0V35.49h0v-.1a.48.48,0,0,1,0-.26,1.46,1.46,0,0,1,.16-.47.43.43,0,0,1,0-.21v-.1c0-.16.16-.26.21-.42s.1-.16.16-.26h0s0-.1.1-.1.1-.1.16-.16l.31-.31,0-.05h0s.1,0,.1-.1a2,2,0,0,1,.37-.21s.1-.05.16-.1h0a4,4,0,0,1,.73-.21h1.2a1.08,1.08,0,0,1,.37.1h0s.1,0,.16.1a2.62,2.62,0,0,1,.37.21,1,1,0,0,1,.16.1l0,.05.31.31c0,.05.1.1.16.16h0a2.49,2.49,0,0,1,.47.84h0v.05a.56.56,0,0,0,.1.26c0,.16.1.37.16.52a.48.48,0,0,0,0,.26v.16h0v2h.1Z"/><path class="cls-3" d="M110.51,73.16a8.84,8.84,0,0,1-2.2,1.1,5.36,5.36,0,0,1-3,.21h0s-.16,0-.21,0a6.4,6.4,0,0,1-3.25-2.93,12,12,0,0,1-1-2.2A8.87,8.87,0,0,0,102.5,74l-.89.31c-2.46.79-4.5.68-6.07-.26A6.19,6.19,0,0,1,94,72.74l0,0a9.62,9.62,0,0,1-1.47-2.62,4.38,4.38,0,0,1-.31-1,11.88,11.88,0,0,1-.31-1.57V68.6h0v.26a8,8,0,0,0,.21,1.83A8.71,8.71,0,0,1,86.18,66c-1.47-3-.89-6.44.26-9.42h0a27.4,27.4,0,0,1,2.62-5h0a27.28,27.28,0,0,1,2-2.72c.16.31.26.58.42.89s.26.52.42.79h0a1.27,1.27,0,0,0,.16.21s.1.16.16.21l.26.42h0a8,8,0,0,0,.47.68c0,.05.1.1.16.21s.1.1.16.16.1.1.16.16a3.64,3.64,0,0,0,.63.63l0,0,.1.1c0-.1-.16-.16-.21-.26a1.47,1.47,0,0,1-.26-.37s-.1-.16-.16-.21a.8.8,0,0,0-.21-.26s-.1-.1-.16-.21-.1-.16-.1-.21l0-.1a1,1,0,0,0-.1-.16s0-.1,0-.1a4.12,4.12,0,0,1-.42-.84,5019692543673.48,5019692543673.48,0,0,1-.2-.42.41.41,0,0,0-.1-.21c-.05-.16-.16-.31-.21-.47a.41.41,0,0,0-.1-.21,13.26,13.26,0,0,1-.42-1.31.75.75,0,0,0-.1-.31c0-.16-.1-.26-.1-.42a.67.67,0,0,0,0-.31v-.21a1.08,1.08,0,0,0-.1-.37,1.29,1.29,0,0,0-.1-.42c0-.21-.1-.47-.1-.68a1,1,0,0,0-.05-.37,2.76,2.76,0,0,0-.1-.63,4.81,4.81,0,0,0-.1-.84c0-.47-.1-1-.1-1.47h0c0-1.1,0-2.15,0-3v-1.2h0v-.31h0a1.21,1.21,0,0,1,0-.42,1,1,0,0,1,0-.37v-.37c.16-.63.31-1.2.47-1.73a.22.22,0,0,1,.05-.16c0-.16.1-.26.16-.42a5854240412502.76,5854240412502.76,0,0,1,.2-.52.56.56,0,0,1,.1-.26.41.41,0,0,1,.1-.21.8.8,0,0,1,.21-.37s0-.1.1-.16.05-.1.1-.16,0-.1.1-.16,0-.1.1-.16a2.2,2.2,0,0,0,.26-.47.15.15,0,0,1,0-.1,2.37,2.37,0,0,1,.26-.37v-.05a1,1,0,0,0,.16-.21,10.63,10.63,0,0,1,4.24-3,8.91,8.91,0,0,1,6.86.1c.1,0,.21.1.31.16a.28.28,0,0,1,.21.1c.21.1.37.21.52.26s.1,0,.21.1c.37.21.68.42,1,.63,0,0,.16.1.21.16s.1.1.16.16h0c.1.1.26.21.37.31s.1.1.16.16a2.42,2.42,0,0,1,.37.31c.05.05.16.1.21.21l0,.05a0,0,0,0,1,0,0l.26.26a4.83,4.83,0,0,0-2.72.52,4.9,4.9,0,0,0-2.41,3.25,8.28,8.28,0,0,0-.16,1.52v.52h0v1a6440044626572.29,6440044626572.29,0,0,0,.1.52c0,.16.1.31.1.47a.33.33,0,0,0,0,.21h0a.33.33,0,0,0,0,.21.41.41,0,0,0,.1.21c.1.21.16.42.26.63a6.39,6.39,0,0,0-4,.47s-.16.1-.21.16a.15.15,0,0,0-.1,0h0a.15.15,0,0,0-.1,0h0a.15.15,0,0,0-.1.05h0l0,0h0l-.1.1-.1.1h0l-.1.1h0l-.1.1h0v.05h0v.1h0v.1a1.65,1.65,0,0,0-.21.42h0v.1a.22.22,0,0,1-.05.16h0v.1h0v.21a.33.33,0,0,1,0,.21h0v.16h0v.1h0v.05h0v.26h0a3.12,3.12,0,0,1,0,.68,11.52,11.52,0,0,0,.26,2.67,1.29,1.29,0,0,0,.1.42,17.4,17.4,0,0,0,3.72,6.49c.1.1.21.26.31.37.37.42.73.84,1.15,1.26h0l.26.26a15.41,15.41,0,0,0-.1,2.2v.84h0v1.88a1,1,0,0,0,0,.37,1.21,1.21,0,0,0,0,.42,1,1,0,0,0,0,.37v.31a1.11,1.11,0,0,0,.05.37.48.48,0,0,0,0,.26c0,.31.16.58.21.89a.48.48,0,0,0,.05.26.56.56,0,0,0,.1.26c0,.1,0,.16,0,.21a12.68,12.68,0,0,0,.79,2,.56.56,0,0,0,.1.26l.63,1.26s.1.16.16.21l.63.94a.61.61,0,0,0,.16.21c.16.26.37.47.52.73.05.05.1.16.21.21a13.37,13.37,0,0,0,1.41,1.52l.21.21a2.13,2.13,0,0,0,.52.42s.16.1.21.16a2,2,0,0,0,.52.37l-.1.63Z"/><path class="cls-8" d="M122.45,13.65v-.47a14.55,14.55,0,0,0-.1-1.52c0-.52-.16-1-.26-1.52,0-.26-.1-.47-.16-.73h0V9.25a1.08,1.08,0,0,0-.1-.37c-.16-.47-.31-.94-.52-1.41L121,6.79a2.62,2.62,0,0,0-.21-.37.29.29,0,0,0-.05-.16h0A12.6,12.6,0,0,0,119,4h0l0,0s-.1-.1-.16-.1l-.26-.26a8.2,8.2,0,0,0-.68-.58c-.21-.16-.47-.37-.68-.52s-.26-.16-.37-.26A.42.42,0,0,1,116.5,2h-.1c-.05,0-.1,0-.21-.1l-.37-.16c-.26-.1-.52-.21-.73-.31a4.56,4.56,0,0,0-.79-.26c-.1,0-.26-.1-.37-.1h-.26c-.52-.1-1-.21-1.57-.26h-1.36a7.21,7.21,0,0,0-1.52.16,3.82,3.82,0,0,0-.79.16,1.08,1.08,0,0,0-.37.1h-.16c-.47.16-.94.31-1.41.52-.21.1-.42.21-.68.31a1,1,0,0,0-.31.21h0a.15.15,0,0,0-.1.05,8.08,8.08,0,0,0-1.15.84,4.07,4.07,0,0,0-.52.47l0,0h0v0l-.26.26-.47.63h0s-.1.1-.1.16v.05c0,.1-.1.16-.16.26a.89.89,0,0,1-.16.26h0a.29.29,0,0,1,0,.16l-.31.63a.56.56,0,0,1-.1.26v.05a10.91,10.91,0,0,0,.58,9.21,12.2,12.2,0,0,1-1.1-1.78,10.45,10.45,0,0,1-1-2.56c-.26-.21-1.26-1-1.52-1.2a11.84,11.84,0,0,0-1.57-.94,5.13,5.13,0,0,0-.79-.37.41.41,0,0,1-.21-.1h0c-.1,0-.21-.1-.37-.16a6.89,6.89,0,0,0-1.52-.47L93.85,8s-.37-.1-.37,0h-.26a13.26,13.26,0,0,0-1.41,0H91a.67.67,0,0,0-.31,0l-1.26.31a.75.75,0,0,0-.31.1h-.16c-.16.1-.37.16-.58.26-.37.21-.73.42-1,.63a1,1,0,0,0-.16.1h0c0,.05-.16.1-.21.16s-.31.26-.47.42-.26.31-.42.47-.16.16-.21.26h0a.15.15,0,0,1,0,.1,4.31,4.31,0,0,0-.63,1.05,2,2,0,0,0-.26.58h0v.16h0v0a.22.22,0,0,1,0,.16,4.94,4.94,0,0,0-.31,1.2.67.67,0,0,1,0,.31h0v.31h0c-.05.47-.1,1-.16,1.57v1.31a14.24,14.24,0,0,0,1.36,5.23,5.37,5.37,0,0,1-.52-.79,13.48,13.48,0,0,1-1.78-4,1.92,1.92,0,0,0-.42.26,3.05,3.05,0,0,0-.42.31h0s-.1.1-.16.16c-.26.21-.47.47-.73.68a.92.92,0,0,0-.26.37h0a.15.15,0,0,1,0,.1c0,.05-.1.1-.1.16-.16.26-.31.52-.47.84a.41.41,0,0,1-.1.21v.1h0v.1a.41.41,0,0,1-.1.21,6,6,0,0,0-.26.89,1.58,1.58,0,0,1-.1.47v.16h0V23a12.56,12.56,0,0,0,0,1.94v.21h0a1.58,1.58,0,0,0,.1.47,6.59,6.59,0,0,0,.26.94c0,.16.1.26.16.42h0a4,4,0,0,0,.21.52h0a.41.41,0,0,0,.1.21h0c.21.47.47,1.15.84,1.83.16.26.26.52.42.79a13.12,13.12,0,0,0,2.46,3.25h0a.33.33,0,0,1-.21,0c-.16-.1-.31-.16-.47-.26a10.53,10.53,0,0,1-2.36-1.94c0,.1-.16.26-.21.37a7.85,7.85,0,0,0-.52,1h0v.16a.75.75,0,0,1-.1.31c0,.21-.1.37-.16.58s-.1.37-.16.58a.67.67,0,0,1,0,.31v.21h0v1a8.1,8.1,0,0,0,0,1.1v.42a1.58,1.58,0,0,0,.1.47,6.89,6.89,0,0,0,.31.94A.29.29,0,0,0,81,39h0v.1a3.27,3.27,0,0,0,.21.42,8.21,8.21,0,0,0,.52.89,3.05,3.05,0,0,0,.31.42h0a.15.15,0,0,0,0,.1s.1.1.16.16a9.73,9.73,0,0,0,.68.73,3.24,3.24,0,0,0,.42.37s.1.1.16.16h0s.1.05.1.1a5.45,5.45,0,0,0,.89.58c.16.1.31.16.47.26s.21.1.26.1h.05a9.48,9.48,0,0,0,1.1.37,10,10,0,0,0,1.15.26,2.76,2.76,0,0,1,.63.1h.42c.73.1,1.52.1,2.25.16a26.32,26.32,0,0,1-.63-4.92h0a25.59,25.59,0,0,1,0-2.77,11.55,11.55,0,0,1,.1-1.31A12.65,12.65,0,0,1,91,32.42a12.36,12.36,0,0,1,1.83-3h0a3.4,3.4,0,0,1,.42-.52h0a11.73,11.73,0,0,1,4.5-3.14,10.08,10.08,0,0,1,7.8.16c3.93,1.78,5.44,4.08,6,5.08a4.37,4.37,0,0,1,.68.68c0-.1.1-.21.16-.31s0-.1.1-.16a3.94,3.94,0,0,1,1.15-1.15c.1,0,.21-.16.31-.21s.1-.1.16-.1l.63-.31.31-.16a.29.29,0,0,0,.16-.05h0a.15.15,0,0,0,.1-.05,13.71,13.71,0,0,0,2.2-1.67c.1-.1.21-.16.26-.26l.1-.1h0l.52-.52A8.2,8.2,0,0,0,119,26a4.74,4.74,0,0,0,.42-.52c.31-.42.63-.84.89-1.26a2,2,0,0,0,.21-.37,1,1,0,0,1,.1-.16v-.05h0s.21-.42.31-.58a28.5,28.5,0,0,0,1.26-2.88c.16-.52.31-1,.47-1.52v-.1h0v-.1a1.08,1.08,0,0,1,.1-.37c.05-.26.1-.52.16-.79a22.4,22.4,0,0,0,.37-3.14v-.89h0l-.79.42Zm-20.94-7s0-.1,0-.1A.15.15,0,0,1,101.51,6.69Z"/><path class="cls-9" d="M121.3,70.23a6.3,6.3,0,0,1-3.09,3.56c-1.41.58-3.14.31-5.13-.79-7-3.93-8.9-11.57-8.58-16.17C104.5,56.83,111.72,78.92,121.3,70.23Z"/><path class="cls-8" d="M128.57,70.81a6.44,6.44,0,0,1-4.29.16,3.43,3.43,0,0,1-1.36-.63h-.16a10.36,10.36,0,0,1-2.2-2.3,12,12,0,0,1-1.47-2.41,15.42,15.42,0,0,0,2.25,4.61c-9.58,8.69-16.8-13.4-16.8-13.4.73.68,1.52,1.31,2.25,1.88.47.37,1,.73,1.52,1.1,2.41,1.62,5.29,3.09,7.38,3.09a2.3,2.3,0,0,0,1-.16l.26-.1.1-.26a18.3,18.3,0,0,0,.79-5,14,14,0,0,0,7.54,3.87c3,.58,5.6,3.14,5.86,5.71.16,1.62-.73,2.93-2.56,3.72l-.16.1Z"/><path class="cls-10" d="M130,53s-.16-.31-.26-.47c-.31-.58-.73-1.36-1-1.73a20.3,20.3,0,0,0-2.46-2.88c-2.88-2.72-6.18-3.72-9.53-3a24.27,24.27,0,0,1-9.94.05h0a20.8,20.8,0,0,1-2.88-.79h-.16c-.58-.16-1.1-.31-1.57-.47l.42.94c.21.42,5.08,10.83,10.15,12.61h0s.47-.05.58-.26a8.43,8.43,0,0,0-.1-6.75c0-.16-.16-.31-.21-.47.63.16,1.26.26,1.88.37,2.72,5.08,1.41,10.47,1,11.78-1.73.26-5.18-1.31-8.58-3.93a34.62,34.62,0,0,1-2.93-2.56h0c-.37-.37-.73-.79-1.1-1.15a21.1,21.1,0,0,1-3.45-7.59,7.57,7.57,0,0,0-.16,2.15A8.83,8.83,0,0,1,99,46.32c0-.52-.1-1-.1-1.52v-.26a3.4,3.4,0,0,1,.26-1.31,2.76,2.76,0,0,1,1.2-1.52,5.91,5.91,0,0,1,4.24-.16.33.33,0,0,1,.21.05,13.55,13.55,0,0,1,2.51.94l.31.16.26-.21a14.53,14.53,0,0,1,9.58-1.88,4.38,4.38,0,0,1,.79.1,16.41,16.41,0,0,1,4.92,1.78,11.43,11.43,0,0,1,4.19,4h0a13.35,13.35,0,0,1,1.15,2.3h0a33.83,33.83,0,0,1,1.36,4.29l.1-.1Z"/><path class="cls-11" d="M116.27,50.13A5.06,5.06,0,0,1,115,50c0-.1-.1-.16-.16-.26l1-.58c.16.31.31.63.47.94v0Z"/><path class="cls-11" d="M103.34,54.11c.37.42.73.79,1.1,1.15A7.42,7.42,0,0,1,103.34,54.11Z"/><path class="cls-11" d="M116.27,50.13A5.06,5.06,0,0,1,115,50c0-.1-.1-.16-.16-.26l1-.58c.16.31.31.63.47.94v0Z"/><path class="cls-11" d="M90.15,46.57a.37.37,0,0,0,0-.73.37.37,0,0,0,0,.73Z"/><polygon class="cls-11" points="102.66 15.64 102.72 15.69 102.72 15.64 102.66 15.64"/><path class="cls-11" d="M113.34,56.88a1.51,1.51,0,0,1-.58.26.22.22,0,0,1-.16,0,.58.58,0,0,1-.21-.73v0h0v-.05a.22.22,0,0,1,0-.16.43.43,0,0,1,0-.21.33.33,0,0,1,.05-.21,4,4,0,0,0,.16-.84v-.05h0v-2h0s-.1-.52-.16-.79-.16-.52-.21-.79a1.07,1.07,0,0,0-.16-.37h0a.22.22,0,0,0,0-.16,3.8,3.8,0,0,0-.37-.68c0-.1-.16-.21-.21-.31h0s-.1-.1-.1-.16h0a.62.62,0,0,1,0-.73.5.5,0,0,1,.73,0A5.88,5.88,0,0,1,113,50c.05.16.16.31.21.47a8.39,8.39,0,0,1,.1,6.75l0-.31Z"/><path class="cls-11" d="M101.56,6.58a.15.15,0,0,1,0,.1S101.51,6.58,101.56,6.58Z"/><path class="cls-12" d="M123.13,16.9l-1.31,4.45L119,26.58l-.37.37h0l-1.31,1.26-.58.58-.47.47h0l-.63.58-.89.42h0l-.68.31h0l-.63.58-1,.84-.73,1.47-.26.52-.52-.63-.63-.79-.21-.26h0l0-.1-.31-.31-.73-.84-.37-.42-.52-.52-1.57-1.67-2.67-1.2-2.77-.68L98.27,27l-2.56.73-1.1,1.15-1.2.94-.73.73-.79.58-.73.52v1.88l-.79,1.1-.37.52v1.73h0l-.21,1.2-.47,2.83v.47l.37,2.2.37,1.67h0l.1.68h-3L84,45l-2.51-1.2-1.62-1.52L78.6,39l-.37-4,.89-1.78.21-.47L80,31.57l.31-.52-.42-.42-1.2-1.2-.1-.1h0L78.29,25l.31-1.26.58-2.51.16-.68,1.57-2,.1-.16,1.36-.68h.16l.31-.21V15.14l.73-.37h.05a10.18,10.18,0,0,0,.26,1.78,13.39,13.39,0,0,0,1,3c2.3,4.82,7.43,6.54,13,7a49.42,49.42,0,0,0,5.71.1c2.62-.1,5.18-.31,7.48-.47a12.38,12.38,0,0,0,7.54-3h0a12.59,12.59,0,0,0,3.82-6.65h0l.79.73-.1-.31Z"/><path class="cls-11" d="M116.48,38.09a2.53,2.53,0,0,1-.31,1.1c-.37.68-.89,1.05-1.41,1a1.36,1.36,0,0,1-1.05-.94,3.06,3.06,0,0,1-.16-1.57c.16-1.26.94-2.2,1.78-2.09s1.36,1.2,1.2,2.46l0,.05Z"/><path class="cls-8" d="M121.3,70.23c-9.58,8.69-16.8-13.4-16.8-13.4l3.77,3,13.08,10.42Z"/><path class="cls-9" d="M119.05,65.62s4.71,6.91,11.25,4l-1.83,2L126,72l-2.83-.68-1-.89-1.62-1.78-1.57-3Z"/><path class="cls-11" d="M129.2,72.22a7.69,7.69,0,0,1-3.09.68,5.81,5.81,0,0,1-2.51-.58h0a12.43,12.43,0,0,1-1-.68l0,0a6.84,6.84,0,0,1-1.15-1.31s-.1-.16-.16-.21a16.85,16.85,0,0,1-2.09-4.4h0l.21.42h0A18.59,18.59,0,0,0,120.52,68a12.87,12.87,0,0,0,1.36,1.52,5.1,5.1,0,0,0,.84.68,1,1,0,0,1,.16.1,5,5,0,0,0,.89.47l.47.16c.31.05.63.16,1,.21a5.66,5.66,0,0,0,3.3-.37,4.76,4.76,0,0,0,1.73-1.15h0a3.1,3.1,0,0,0,.84-2.56,2.62,2.62,0,0,0-.21-.89,4.89,4.89,0,0,0-.47-1.15,6.27,6.27,0,0,0-1.31-1.62,8.43,8.43,0,0,0-3.93-2.09,14.84,14.84,0,0,1-5.91-2.51,11.51,11.51,0,0,1-1.62-1.41A7.27,7.27,0,0,1,116.5,56l.94-.42s0,0,.16.16a12.42,12.42,0,0,0,1.73,1.52,15.74,15.74,0,0,0,6.12,2.56,10.09,10.09,0,0,1,4.61,2.41,7.79,7.79,0,0,1,1.36,1.57,6.6,6.6,0,0,1,.58,1,6.28,6.28,0,0,1,.58,2c.26,2.3-1.05,4.29-3.51,5.34l.16,0Z"/><path class="cls-11" d="M90.52,45.79V46h0s-.16.31-.31.37h0a.15.15,0,0,0-.1.05c-.1,0-.16,0-.26,0h-.63a16.36,16.36,0,0,1-5-.84,10.06,10.06,0,0,1-3.93-2.51A9.92,9.92,0,0,1,78,39.25a9.43,9.43,0,0,1,.58-7,7.87,7.87,0,0,1,.94-1.57c.1-.16.21-.26.31-.42h0a.75.75,0,0,1,.79-.16c.16.26.26.52.42.79a.74.74,0,0,1-.16.37,1,1,0,0,1-.1.16h0a1.27,1.27,0,0,1-.16.21s0,.1-.1.16-.16.26-.21.37a7.85,7.85,0,0,0-.52,1h0v.1h0a.75.75,0,0,1-.1.31c0,.21-.1.37-.16.58s-.1.37-.16.58a.67.67,0,0,1,0,.31v.21h0v1a8.1,8.1,0,0,0,0,1.1v.42a1.58,1.58,0,0,0,.1.47,6.89,6.89,0,0,0,.31.94.29.29,0,0,0,0,.16h0v.1c.05.16.16.26.21.42a8.21,8.21,0,0,0,.52.89c.1.16.21.26.31.42h0a.15.15,0,0,0,0,.1s.1.1.16.16a9.73,9.73,0,0,0,.68.73c.16.1.26.26.42.37s.1.1.16.16h0a.15.15,0,0,1,.1,0h0a5.45,5.45,0,0,0,.89.58c.16.1.31.16.47.26a.42.42,0,0,1,.26.16h0a9.48,9.48,0,0,0,1.1.37,10,10,0,0,0,1.15.26,2.76,2.76,0,0,1,.63.1h.42c.73.1,1.52.1,2.25.16H90c.16,0,.26.16.37.26h0a1.64,1.64,0,0,1,.1.37l.05.47Z"/><path class="cls-11" d="M110.67,32.28l-1.2.42a6.45,6.45,0,0,0-1.26-1.88A13,13,0,0,0,104,27.89a8.9,8.9,0,0,0-6.86-.1,10.53,10.53,0,0,0-4.24,3,1.71,1.71,0,0,0-.16.21A10.49,10.49,0,0,0,91,33.81a11.54,11.54,0,0,0-.68,2.36h0A27.06,27.06,0,0,0,90.15,42a53.52,53.52,0,0,0,1.2,7.85c-.16-.26-.26-.58-.42-.89s-.26-.63-.42-.94h0s-.05-.26-.1-.42c-.1-.37-.21-.73-.31-1.15h0c-.1-.42-.21-.84-.31-1.31a38.63,38.63,0,0,1-.73-4.55h0V40c0-.47,0-.94,0-1.41v-1.2a11.55,11.55,0,0,1,.1-1.31,12.65,12.65,0,0,1,.73-2.88,12.36,12.36,0,0,1,1.83-3h0a3,3,0,0,1,.42-.47h0a11.73,11.73,0,0,1,4.5-3.14,10.08,10.08,0,0,1,7.8.16c3.93,1.78,5.44,4.08,6,5.08a1.27,1.27,0,0,1,.21.47h.1Z"/><path class="cls-11" d="M92.93,30.45v.31a1.71,1.71,0,0,0-.16.21,14.2,14.2,0,0,0-2.51,6.44h0a16.88,16.88,0,0,0,0,4.61h0l-.05-.1-1-1.36h0l.42-2.15.47-2.36.1-.52.37-3,1.1-1h0l1.31-1.2v.1Z"/><path class="cls-13" d="M119.26,4.49S107-2,100.89,7.53V5.75l2.36-3L106.18.52,110.11,0h2.67l3.09.52,1.88,1.73,1.57,2.3,0,0Z"/><path class="cls-13" d="M99.84,11.61S90.47,5.38,83.72,12l-.16-1.15,2.72-2.25,3.66-1.15,1.83-.21L93.5,7l1.88.79,1.36.31,1.67.73,1.36.58v2.2h.07Z"/><path class="cls-11" d="M99.79,9.31s-.1-.1-.16-.1-.1-.05-.1-.1c-.52-.37-1.1-.73-1.67-1.1a5.47,5.47,0,0,0-.79-.42h0c-.58-.26-1.15-.52-1.73-.73h0a12,12,0,0,0-1.88-.47,10.21,10.21,0,0,0-5.86.68,9.13,9.13,0,0,0-4,3.45,8.41,8.41,0,0,0-1.15,2.88,11.07,11.07,0,0,0-.21,1.36v1.05a4.25,4.25,0,0,0,0,.79,5.13,5.13,0,0,0,.16.94h0v.1a1.08,1.08,0,0,0,.1.37,6.45,6.45,0,0,0,.37,1.15h0s.1.31.16.47A9.94,9.94,0,0,0,84.36,22c.16.26.37.52.52.79a12,12,0,0,1-1.1-3.45c-.1-.63-.16-1.2-.21-1.73V16.24a6.89,6.89,0,0,1,.16-1.57h0v-.1h0v-.16h0a.67.67,0,0,1,0-.31v-.21a5.5,5.5,0,0,1,.26-1,.22.22,0,0,1,0-.16v-.05h0v-.16h0c0-.1.1-.26.16-.37s0-.1.1-.21c.21-.37.42-.68.63-1a.15.15,0,0,1,0-.1h0c0-.1.16-.16.21-.26s.26-.31.42-.47.31-.26.47-.42.16-.1.21-.16h0a1,1,0,0,0,.16-.1,4.31,4.31,0,0,1,1-.63c.16-.1.37-.16.58-.26h0a.29.29,0,0,0,.16-.05.75.75,0,0,0,.31-.1A5.27,5.27,0,0,1,89.91,8a.67.67,0,0,0,.31,0h2.51a1.11,1.11,0,0,1,.37,0,3.19,3.19,0,0,1,.73.16,4.63,4.63,0,0,1,.89.26h0a2.26,2.26,0,0,1,.58.21c.1,0,.21.1.37.16h0a.41.41,0,0,1,.21.1c.26.1.52.26.79.37a5.19,5.19,0,0,1,.89.52h0a1,1,0,0,1,.16.1l.47.31c.26.16,1.26,1,1.52,1.2h0c.31.21.05-.63.21-.89a.76.76,0,0,0-.26-1l.16-.21Z"/><path class="cls-11" d="M123.86,15.06a8.18,8.18,0,0,1-.1,1.1,25,25,0,0,1-1.67,6.44,20.25,20.25,0,0,1-2.77,4.71c-.21.26-.42.52-.68.79l-.47.47-.47.47a1.43,1.43,0,0,1-.31.26l-.1.1c-.31.31-.68.58-1.05.89l-.58.42s-.1.1-.16.1c-.42.26-.84.52-1.26.73l-.1-.1a1.18,1.18,0,0,1-.26-.21.15.15,0,0,1-.1-.05h0c-.1-.05-.26-.1-.37-.16s-.16-.05-.21-.05h-.37s.1-.1.16-.16.1-.1.16-.1a.28.28,0,0,0,.21-.1h.1c.05,0,.16-.1.21-.1l.31-.16a.29.29,0,0,0,.16-.05h0a.15.15,0,0,0,.1-.05l.42-.26c.1,0,.16-.1.26-.16a1.18,1.18,0,0,0,.26-.21.15.15,0,0,0,.1-.05h0c0-.05.16-.1.21-.16h0a.39.39,0,0,0,.21-.21c.1-.05.16-.16.26-.21a2,2,0,0,1,.37-.31c.1-.1.21-.16.26-.26l.1-.1h0l.52-.52a8.2,8.2,0,0,0,.58-.68h0a3,3,0,0,0,.37-.47c.31-.42.63-.84.89-1.26a2,2,0,0,0,.21-.37,1,1,0,0,1,.1-.16v-.05h0s.21-.42.31-.58a28.5,28.5,0,0,0,1.26-2.88c.16-.52.31-1,.47-1.52v-.1h0v-.1a1.08,1.08,0,0,1,.1-.37c0-.26.1-.52.16-.79a.67.67,0,0,1,0-.31V18h0a2.76,2.76,0,0,1,.1-.63V17h0v-.79h0V14.43h0V14a14.55,14.55,0,0,0-.1-1.52h0c0-.47-.16-.94-.26-1.47h0c0-.26-.1-.47-.16-.73h0v-.16a1.08,1.08,0,0,0-.1-.37c-.16-.47-.31-.94-.52-1.41l-.31-.68a2.62,2.62,0,0,0-.21-.37.29.29,0,0,0-.05-.16h0a12.6,12.6,0,0,0-1.78-2.3h0l0,0s-.1-.1-.16-.1l-.26-.26a8.2,8.2,0,0,0-.68-.58c-.21-.16-.47-.37-.68-.52s-.26-.16-.37-.26a.42.42,0,0,1-.26-.16h-.1c-.05,0-.1,0-.21-.1l-.37-.16c-.26-.1-.52-.21-.73-.31a4.56,4.56,0,0,0-.79-.26c-.1,0-.26-.1-.37-.1H113c-.52-.1-1-.21-1.57-.26H110.1a7.21,7.21,0,0,0-1.52.16,2.7,2.7,0,0,0-.73.16,1.08,1.08,0,0,0-.37.1h-.16c-.47.16-.94.31-1.41.52-.21.1-.42.21-.68.31a1,1,0,0,0-.31.21h0a.15.15,0,0,0-.1.05,8.08,8.08,0,0,0-1.15.84,4.07,4.07,0,0,0-.52.47l-.05,0h0l0,0-.26.26-.47.63h0s-.1.1-.1.16v.05c0,.1-.1.16-.16.26a.89.89,0,0,1-.16.26h0a.29.29,0,0,1-.05.16,1.28,1.28,0,0,1-.21.37h0a.41.41,0,0,1-.1.21.56.56,0,0,1-.1.26v0a.43.43,0,0,1,0,.21c0,.1,0,.1,0,.21v.26a.33.33,0,0,1,0,.21.48.48,0,0,1-.05.26c0,.1,0,.21,0,.31v.21h0v1.15h0v.31a11.1,11.1,0,0,0,1.31,6.18,12.2,12.2,0,0,1-1.1-1.78,10.45,10.45,0,0,1-1-2.56h0a11.64,11.64,0,0,1-.31-2v-.1a10.63,10.63,0,0,1,.1-1.78V8.15h0c.1-.42.21-.79.31-1.2a9.48,9.48,0,0,1,2.83-4A12.23,12.23,0,0,1,109,.3a12.5,12.5,0,0,1,6.65.58A13.35,13.35,0,0,1,121.24,5,13.87,13.87,0,0,1,124,10.77a13.94,13.94,0,0,1,.26,1.41c0,.47.1.94.16,1.47a21,21,0,0,1,0,2.51l-.47-1.1Z"/><path class="cls-13" d="M82.77,19.15S78.9,21.3,78.9,25.27l-.42-1.94.37-2.88,1.62-2,2.2-1.05.1,1.73Z"/><path class="cls-11" d="M83.46,34.17s-.16,0-.21-.05-.31-.16-.47-.26a4.94,4.94,0,0,1-1.1-.79,9.31,9.31,0,0,1-1.26-1.15,5.9,5.9,0,0,1-.47-.58,5.82,5.82,0,0,1-.42-.58h0a11.84,11.84,0,0,1-.94-1.57c0-.05,0-.1-.1-.16h0a9.78,9.78,0,0,1-.73-2.09,9.69,9.69,0,0,1-.21-3.87h0a1.21,1.21,0,0,1,0-.42,8.48,8.48,0,0,1,1.73-3.82,8,8,0,0,1,2.88-2.25,3.36,3.36,0,0,1,.63-.26.41.41,0,0,0,.21-.1,1.19,1.19,0,0,1,.42,0v1.36h-.16a.28.28,0,0,0-.21.1c-.1,0-.16.1-.26.16s-.16.1-.26.16l-.42.26a3.05,3.05,0,0,0-.42.31h0s-.1.1-.16.16c-.26.21-.47.47-.73.68a.92.92,0,0,0-.26.37h0a.15.15,0,0,1,0,.1c0,.05-.1.1-.1.16-.16.26-.31.52-.47.84a.41.41,0,0,1-.1.21v.1h0v.1a.41.41,0,0,1-.1.21,6,6,0,0,0-.26.89,1.58,1.58,0,0,1-.1.47V23h0v.1a12.56,12.56,0,0,0,0,1.94v.21h0a1.58,1.58,0,0,0,.1.47,6.59,6.59,0,0,0,.26.94c0,.16.1.26.16.42h0a4,4,0,0,0,.21.52h0a.41.41,0,0,0,.1.21h0a.22.22,0,0,0,.05.16c.21.47.47,1.05.79,1.67.16.26.26.52.42.79a15.69,15.69,0,0,0,1,1.67A8.22,8.22,0,0,0,84,33.69l-.47.47Z"/><path class="cls-11" d="M128.1,47.51S130,52,129.88,53a1,1,0,0,0,.58,1.26.89.89,0,0,0,.37,0v-1l-.73-2.62-.79-2-.52-1.1h-.69Z"/><path class="cls-14" d="M90.42,37.05S91.26,51.18,97,56a18.73,18.73,0,0,1-4-3.72c-1.52-2-2.41-6.07-2.41-6.07l-.84-5.6.73-3.56Z"/><path class="cls-11" d="M94.08,53.43l-.1-.1,0,0a6.1,6.1,0,0,1-.63-.63l-.16-.16c0-.05-.1-.1-.16-.16s-.1-.1-.16-.21a8,8,0,0,1-.47-.68h0a2.57,2.57,0,0,1-.26-.42c0-.05-.1-.16-.16-.21s-.1-.16-.16-.21h0s-.26-.52-.42-.79-.26-.58-.42-.89-.26-.58-.37-.89v-.1h0s-.1-.26-.16-.37A7.74,7.74,0,0,1,90,46.41c0-.21-.16-.47-.21-.73,0-.1,0-.21,0-.26a7235175245491.64,7235175245491.64,0,0,0-.2-.74c-.1-.42-.16-.89-.26-1.36a1,1,0,0,0,0-.37,3.19,3.19,0,0,0-.1-.68c0-.68-.16-1.36-.16-2.15V38.55c0-.52,0-1.1,0-1.67V36h1.2c0,.16,0,.58-.1,1.26h0v.31h0v1.2c0,.89,0,1.88,0,3h0c0,.47,0,.94.1,1.47a4.81,4.81,0,0,0,.1.84,2.76,2.76,0,0,0,.1.63,1,1,0,0,0,0,.37c0,.21.1.47.1.68a1,1,0,0,0,.1.42,1.08,1.08,0,0,0,.1.37v.21a.67.67,0,0,0,.05.31,1.29,1.29,0,0,0,.1.42.75.75,0,0,0,.1.31c.16.42.26.89.42,1.31a.41.41,0,0,0,.1.21,1.62,1.62,0,0,0,.21.47,5019692543634.47,5019692543634.47,0,0,1,.2.42.41.41,0,0,0,.1.21c.16.26.26.58.42.84,0,0,0,.1,0,.1s.05.1.1.16,0,.1,0,.1.1.16.1.21.1.16.16.21a.8.8,0,0,0,.21.26s.1.16.16.21a1.47,1.47,0,0,1,.26.37c0,.1.16.16.21.26l.16.21Z"/><path class="cls-11" d="M92.2,29.72h0l-.58,1.94-1.36,4.5-.68,2.36-.47,1.57v.16l0,0a26.67,26.67,0,0,1,0-2.83v-.42a4.3,4.3,0,0,1,.1-.84,12.87,12.87,0,0,1,2.51-5.86h0a3.4,3.4,0,0,1,.42-.52h0l.1-.1Z"/><path class="cls-14" d="M89,51.7s-9,11.83,2.77,16.7l.47,2.15v1.1l-2.72-.79-1.47-1-.79-1-1.1-.89-.31-.63-1.2-3.93V60.91l.73-3.35,1.15-3,1.88-2.72.58-.1v0Z"/><path class="cls-11" d="M92.56,70.91l-.16,1.26h0a10.42,10.42,0,0,1-7.49-5.55c-3.45-7,3-15.81,5-18.42.21-.26.37-.47.47-.58h0l0-.1.21.52.31.84,0,0c-.21.26-1,1.31-2,2.72h0a28,28,0,0,0-2.62,5h0c-1.15,3-1.73,6.44-.26,9.42A8.73,8.73,0,0,0,92,70.7a.33.33,0,0,1,.21,0,1.08,1.08,0,0,1,.37.1v.05Z"/><path class="cls-14" d="M91.88,67.93s1.88,8.48,9.42,3.72l1,1.47.63.84-.1.79-2.41.47-2.09.21-2.09-.16-.89-.63L93.87,74l-.94-1.67-.16-1.2-.84-2.3V68l-.05,0Z"/><path class="cls-11" d="M103.76,74.94a2.19,2.19,0,0,0-.26.1,13.2,13.2,0,0,1-4.92,1.1,7.4,7.4,0,0,1-3.72-.94,5.69,5.69,0,0,1-2.46-3A8,8,0,0,1,92,70.8a17.77,17.77,0,0,1-.16-3.25,10.42,10.42,0,0,0,.63,2.62,7.54,7.54,0,0,0,3,4c1.78,1,4.13,1,7,0l.79-.31.52,1.15v0Z"/><path class="cls-14" d="M101.15,70.13s1.62,5.5,7.75,1.73l2.41.73.37.94-1.57.52-2.93,1.26-3.4-.47L102.31,73l-.89-2-.26-.94v0Z"/><path class="cls-11" d="M112.09,73.58a4.11,4.11,0,0,0-.47.37,9.22,9.22,0,0,1-5.18,2,6.55,6.55,0,0,1-1.78-.26,8.34,8.34,0,0,1-1.2-.58,3.59,3.59,0,0,1-1-1,9.4,9.4,0,0,1-1.62-4.71,10.91,10.91,0,0,0,1,2.2,6.38,6.38,0,0,0,3.25,2.93c1.57.52,3.4.1,5.44-1.26.26-.16.52-.37.84-.58l.79,1,0-.1Z"/><path class="cls-11" d="M122.92,70.28h0a4,4,0,0,1-.21.52,6.1,6.1,0,0,1-.26.68s0,.1-.1.16a11.39,11.39,0,0,1-.79,1.31c-.21.26-.42.52-.68.79h0a5.89,5.89,0,0,1-2.09,1.41,6.11,6.11,0,0,1-2.2.42h0a8.12,8.12,0,0,1-2.36-.42,13.54,13.54,0,0,1-1.88-.84c-.26-.16-.47-.26-.68-.42-.1,0-.16-.1-.21-.16-.31-.21-.63-.42-.89-.63s-.31-.26-.52-.37c0,0-.16-.1-.21-.16a4.56,4.56,0,0,0-.52-.42l-.21-.21a12.58,12.58,0,0,1-1.41-1.52s-.1-.16-.21-.21a3.45,3.45,0,0,1-.52-.73s-.1-.16-.16-.21l-.63-.94s-.1-.16-.16-.21c-.21-.42-.47-.84-.63-1.26a.56.56,0,0,0-.1-.26,16.46,16.46,0,0,1-.79-2c0-.1,0-.16,0-.21a.56.56,0,0,0-.1-.26.48.48,0,0,0,0-.26,5.74,5.74,0,0,1-.21-.89.48.48,0,0,0,0-.26,1.11,1.11,0,0,0-.05-.37v-.31a1,1,0,0,0,0-.37,1.21,1.21,0,0,0,0-.42,1,1,0,0,0,0-.37V59h0v-.84a15.06,15.06,0,0,1,.1-2.2,1.08,1.08,0,0,1,0-.42l.94.21c0,.31-.1.68-.1,1.05v2.3A17.36,17.36,0,0,0,113.41,73c.16.1.31.16.47.26a5.6,5.6,0,0,0,4.66.52,4.73,4.73,0,0,0,2.2-1.94,13.56,13.56,0,0,0,.89-1.62,1.09,1.09,0,0,1,.16-.37h0l0-.16H122l1.15.52h.16l-.37,0Z"/><path class="cls-11" d="M103.34,55.73a10.39,10.39,0,0,1-1.15-1.26C102.56,54.89,102.92,55.31,103.34,55.73Z"/><path class="cls-3" d="M97.48,43.07v7.07s1,3.51,1.1,3.56,2.56,1,2.56,1l.73-.63-1.47-4-.58-3.61-1.36-1.73-1-1.73,0,.05Z"/><path class="cls-11" d="M117.79,57.46a21.56,21.56,0,0,1-.16,2.15,13.86,13.86,0,0,1-.63,2.83l-.1.26-.26.1a3.5,3.5,0,0,1-1,.16h-.79a.8.8,0,0,1-.47-.1,7255783612585.72,7255783612585.72,0,0,1-.52-.1.22.22,0,0,1-.16,0,.43.43,0,0,1-.21-.05.75.75,0,0,1-.31-.1.43.43,0,0,1-.21-.05.41.41,0,0,1-.26-.1.56.56,0,0,1-.26-.1,10.73,10.73,0,0,1-1.36-.63c-.1,0-.16-.1-.26-.1h0a1.19,1.19,0,0,1-.42-.26c-.47-.26-.94-.52-1.41-.84-.1,0-.16-.1-.21-.16s-.16-.1-.21-.16-.16-.1-.21-.16a2.37,2.37,0,0,1-.37-.26c-.26-.16-.52-.37-.73-.52s-.26-.16-.37-.26c-.73-.58-1.52-1.2-2.25-1.88h0c-.31-.26-.58-.58-.89-.84L103.4,56h0c-.37-.42-.79-.84-1.15-1.26a2.54,2.54,0,0,1-.31-.42,11.48,11.48,0,0,1-1.73-3.3h0v0a8.26,8.26,0,0,1-.37-2h0a10,10,0,0,1,.16-2.15h0s.21.79.47,1.73h0c.1.37.26.79.42,1.26a17.91,17.91,0,0,0,2.56,4.66,11.1,11.1,0,0,0,1.1,1.15h0a32.92,32.92,0,0,0,2.93,2.56c3.4,2.62,6.86,4.19,8.58,3.93a17.75,17.75,0,0,0,.58-3.14,18.64,18.64,0,0,0-.16-4.4,21.4,21.4,0,0,0-.63-2.41,13.13,13.13,0,0,0-.79-1.83l1.31.16a18.3,18.3,0,0,1,.73,1.83,11.19,11.19,0,0,1,.47,1.83,12.49,12.49,0,0,1,.26,1.94c0,.58,0,1.15,0,1.67l0-.26Z"/><path class="cls-11" d="M99.84,46.52a2.22,2.22,0,0,1-.89-.37,2.77,2.77,0,0,1-1.1-2.62v-.1h0l1.26-.37a3.54,3.54,0,0,0-.26,1.31,2.92,2.92,0,0,0,.94,2.15Z"/><path class="cls-11" d="M97.9,43.33s-.16,2.72,1,3.66c0,0,.79,2.46,1.26,3.77s.26-1,.26-1l-.1-.73.1-.73-.47-1.73-.84-1L98,43.33Z"/><path class="cls-11" d="M98.11,42.7a4.15,4.15,0,0,0,.31,3.66c1.15,1.62.47-.84.47-.84l-.42-1,.16-1V43l-.52-.31Z"/><path class="cls-4" d="M105.86,44.69s-5.18-3.87-6.86-.63c0,0,3.09-.42,4.45,2.15.47.84,2.36-1.52,2.36-1.52Z"/><path class="cls-11" d="M131.08,55.31v1.62l-.05.31v1L130.56,57,130,55.45h0v-.1h0a10.48,10.48,0,0,0-2.09-3.09c-2-2-4.76-2.77-8-2.25a9.53,9.53,0,0,1-1.67.16h-1.88a3.27,3.27,0,0,0-.21-.42h0a.41.41,0,0,0-.1-.21h0s-.1-.16-.1-.21l-.63.37-.37.21.16.26c-.63-.1-1.26-.21-1.88-.37-.1,0-.16,0-.21,0a8.67,8.67,0,0,1-1.31-.37,28.62,28.62,0,0,1-6.8-3.19c.37.68.79,1.47,1.31,2.3,0,0,.1.16.16.21h0a.15.15,0,0,0,.05.1c1.73,2.77,4.08,6,6.44,7.17.1.05.26.1.37.16a.22.22,0,0,1,.16,0l-.37,1h-.1a.22.22,0,0,1-.16,0,.56.56,0,0,1-.26-.1h0c-.1,0-.16-.1-.26-.16s-.1-.05-.16-.1-.26-.16-.37-.21-.1,0-.1-.1h0c-.1,0-.21-.16-.31-.21a.8.8,0,0,1-.26-.21s-.1-.1-.16-.16-.1-.1-.16-.16-.26-.26-.42-.37l-.16-.16-.47-.47-.47-.47c-.1-.1-.21-.26-.31-.37s-.31-.37-.47-.58-.16-.16-.21-.26-.16-.16-.21-.26v0c-.1-.16-.21-.26-.31-.42v0c0-.1-.16-.16-.21-.26a.8.8,0,0,0-.21-.26,9715225220141.15,9715225220141.15,0,0,0-.42-.52c-.1-.16-.21-.26-.31-.42-.31-.42-.58-.84-.84-1.26a1,1,0,0,0-.21-.31c-.37-.63-.73-1.2-1-1.78,0,0,0-.1-.1-.16-.21-.31-.37-.68-.52-.94h0l-.31-.63c0-.05,0-.1-.1-.16s-.1-.16-.1-.21a3.37,3.37,0,0,0-.31-.63l-.42-.94c.47.16,1,.31,1.57.52l-.42,1H104a.56.56,0,0,1,.26.1h0a.29.29,0,0,1,.16,0,.43.43,0,0,1,.21.05h.1a1.08,1.08,0,0,1,.37.1h0a14157568488509,14157568488509,0,0,0,.42.1.67.67,0,0,1,.31.05h0l.68.16a.67.67,0,0,1,.31.05h0a1,1,0,0,1,.37,0,24,24,0,0,0,4.92,2h0a19.35,19.35,0,0,0,5.55.84,12.14,12.14,0,0,0,2-.16,10.17,10.17,0,0,1,7.22,1.2,8.58,8.58,0,0,1,1.78,1.41l.47.47c.31.37.58.68.79,1h0l.16.26h0c.21.31.37.63.52.84a26.57,26.57,0,0,0-1.94-5.39h0a1.62,1.62,0,0,0-.21-.47s-.05-.1-.1-.16a.41.41,0,0,0-.1-.21.56.56,0,0,0-.1-.26h0c-.1-.21-.21-.37-.31-.58s-.21-.37-.31-.58h0a11.75,11.75,0,0,0-4.19-4l-.31-.16h-.1a1.94,1.94,0,0,0-.47-.21.41.41,0,0,1-.21-.1c-.05,0-.1,0-.16-.1s-.31-.16-.47-.21-.21-.1-.26-.1-.21-.1-.31-.1h0a.75.75,0,0,1-.31-.1h0a4424240152642.07,4424240152642.07,0,0,1-.42-.1.48.48,0,0,1-.26,0,.33.33,0,0,1-.21,0,1.29,1.29,0,0,1-.42-.1,1.08,1.08,0,0,1-.37-.1h0c-.1,0-.21,0-.26,0a.67.67,0,0,1-.31-.05c-.26,0-.52-.1-.79-.1-.63-.1-1.26-.1-1.88-.16a15.06,15.06,0,0,0-7.75,2l-.26.21-.31-.16a14.53,14.53,0,0,0-2.51-.94.33.33,0,0,1-.21-.05,5.86,5.86,0,0,0-4.24.16,3,3,0,0,0-1.2,1.52A4.68,4.68,0,0,0,99,44.57h0v.89h0v.31h0v.37h0v.1c-.05,0-.16-.1-.21-.16l-.1-.1,0,0-.05,0c0-.05-.1-.1-.16-.16v0a2.2,2.2,0,0,1-.26-.47.43.43,0,0,0,0-.21v-.47h0v-.31h0V44h0v-.21h0v-.31h0a.33.33,0,0,1,0-.21c.05-.05,0-.16.05-.21h0V43h0a.22.22,0,0,1,0-.16v-.1h0a3.27,3.27,0,0,1,.21-.42v-.1h0v-.1h0v0h0l.1-.1h0l.1-.1h0l.1-.1.1-.1h0l0-.05h0a.15.15,0,0,0,.1,0h0a.15.15,0,0,0,.1-.05h0a.15.15,0,0,0,.1,0c.05,0,.16-.1.21-.16a5.77,5.77,0,0,1,4-.47h.26a11.28,11.28,0,0,1,1.47.37,19.09,19.09,0,0,1,2,.73l.31-.16a11.08,11.08,0,0,1,1.88-.84,2.71,2.71,0,0,1,.68-.21c.16,0,.26-.1.42-.1l1.15-.31a13.35,13.35,0,0,1,1.52-.26h.21c.68-.05,1.36-.1,2-.1h.42a12.44,12.44,0,0,1,1.36.1,13.94,13.94,0,0,1,1.41.26,12.77,12.77,0,0,1,1.62.42,20.61,20.61,0,0,1,3.25,1.41A14,14,0,0,1,130,50.69a19.82,19.82,0,0,1,.79,5.39l.37-.73Z"/><path class="cls-11" d="M103.87,44.11a29.46,29.46,0,0,0,3.3,2,21.31,21.31,0,0,1-3.82-1l.42-1.05h0l.05.05Z"/><path class="cls-4" d="M104,43.59a13.82,13.82,0,0,0,5.71,1.73c3.61.37.58,1.1.58,1.1l-2.36-.26-2.25-.89-1.73-1.67h0Z"/><path class="cls-11" d="M118.73,32.23a5.13,5.13,0,0,0-.52-.73l-.31-.31h0a3.78,3.78,0,0,0-1.26-.73c-.1,0-.26-.1-.37-.1l-.79-.16h-.79a4.77,4.77,0,0,0-1.41.31c-.16,0-.31.16-.47.21a1,1,0,0,0-.31.21,3.94,3.94,0,0,0-1.15,1.15c0,.05,0,.1-.1.16a13365573532330.19,13365573532330.19,0,0,0-.1.32,3.14,3.14,0,0,0-.26.73,6.21,6.21,0,0,0-.16.84.78.78,0,0,0,.68.73.63.63,0,0,0,.63-.47.58.58,0,0,1,0-.26v-.21a1.48,1.48,0,0,1,.1-.37v-.26h0s0-.1.1-.16.1-.16.16-.26,0-.1.1-.1h0a3.33,3.33,0,0,1,.42-.42h0a.15.15,0,0,0,.1-.05.89.89,0,0,0,.26-.16c.1,0,.16-.1.26-.1h0a.29.29,0,0,0,.16-.05l.63-.16h.79a2.43,2.43,0,0,1,.63.16h.1c.1,0,.21.1.31.16a.15.15,0,0,1,.1.05h0s.1.1.16.1a.54.54,0,0,1,.21.26h0l0,0h0v0A.84.84,0,0,1,117,33a.22.22,0,0,0,.05.16h0a.22.22,0,0,0,0,.16,5.73,5.73,0,0,1,.26,1,1.58,1.58,0,0,0,.1.47h0v1.52a2.28,2.28,0,0,1,0,.58h0V37a.67.67,0,0,1-.05.31v.21h0v.16h0V38h0a1.46,1.46,0,0,1-.16.47c0,.16-.1.37-.16.52a.22.22,0,0,1,0,.16v.21h0v0a.94.94,0,0,0,.1.89,4.38,4.38,0,0,1,.79.1.52.52,0,0,0,.31-.26c.1-.26.21-.47.31-.73a9,9,0,0,0,.47-1.62,10.25,10.25,0,0,0,.21-2.2,7.1,7.1,0,0,0-.84-3.45l.37.16Zm-1.47.37h0l-.05-.05Z"/><path class="cls-11" d="M101.25,33.17s2.88-3.93,6.07-3.77C107.32,29.4,101.93,27.36,101.25,33.17Z"/><path class="cls-11" d="M118.16,28.57l-.47.47a1.43,1.43,0,0,1-.31.26l-.1.1-1-.31h0a3.88,3.88,0,0,0-.63-.1,15.22,15.22,0,0,0-2.25-.21c.1-.05.26-.16.37-.21a4.7,4.7,0,0,1,3-.63,1.33,1.33,0,0,1,.52.16,2.59,2.59,0,0,1,.84.47h0Z"/><path class="cls-15" d="M104.29,36.47s1.47,4.08,6.49,1.73v1.62l-1,1-2.2.73L105.5,41l-1.41-.68-.31-3.09.52-.73Z"/><path class="cls-11" d="M109.73,40.19h0a1.61,1.61,0,0,1-1.2,1.05.87.87,0,0,1-.63-.16,2.79,2.79,0,0,1-1.1-2.2c-.1-1.36.58-2.51,1.47-2.56s1.67,1,1.73,2.36a3.42,3.42,0,0,1-.26,1.52Z"/><path class="cls-11" d="M112,39.51a5.61,5.61,0,0,1-.21.79.7.7,0,0,1-.89.47.74.74,0,0,1-.52-.84h0a5.16,5.16,0,0,0,.21-.84c.05-.26.1-.58.16-.84V38h0v-.26a13.26,13.26,0,0,0,0-1.41v-.63h0v-.16a.48.48,0,0,0,0-.26,1.33,1.33,0,0,0-.16-.52.56.56,0,0,0-.1-.26v-.05h0a4.55,4.55,0,0,0-.47-.84h0c0-.05-.1-.1-.16-.16l-.31-.31,0-.05a1,1,0,0,1-.16-.1,2,2,0,0,0-.37-.21c-.05,0-.1-.05-.16-.1h0c-.1,0-.26-.1-.37-.1h-1.2a1.63,1.63,0,0,0-.73.21h0s-.1,0-.16.1-.26.16-.37.21-.1,0-.1.1h0l-.05.05-.31.31c0,.05-.1.1-.16.16l-.1.1h0c0,.1-.1.16-.16.26a1.65,1.65,0,0,0-.21.42v.1a.43.43,0,0,1,0,.21c0,.16-.1.31-.16.47a.48.48,0,0,1,0,.26v.1h0V37.1h0v0h0a1.84,1.84,0,0,0,.1.52,12.56,12.56,0,0,0,.42,1.41.75.75,0,0,0,.1.31h0s.05.1.1.21a5.53,5.53,0,0,0,.42.79v.1a.78.78,0,0,1-.31.89.58.58,0,0,1-.42.1.33.33,0,0,1-.21,0,.46.46,0,0,1-.31-.31,5.13,5.13,0,0,1-.37-.79.88.88,0,0,0-.1-.26,8.58,8.58,0,0,1-.73-5.44,5.07,5.07,0,0,1,2.41-3.25,4.52,4.52,0,0,1,2.72-.52,2.9,2.9,0,0,1,.94.21,5.38,5.38,0,0,1,1.31.79,4.37,4.37,0,0,1,.68.68,6.08,6.08,0,0,1,.89,1.62.33.33,0,0,0,0,.21,9.8,9.8,0,0,1-.1,5.18l-.1,0Z"/><polygon class="cls-11" points="130.98 58.3 130.56 57.04 131.03 56.99 131.03 57.3 130.98 58.3"/><path class="cls-2" d="M120.3,31.5c.16.31.31.63.47,1A8.07,8.07,0,0,0,119,30.24a3.61,3.61,0,0,1,1.1,1.1,2.56,2.56,0,0,0-.21-.52A5,5,0,0,1,120.3,31.5Z"/><path class="cls-16" d="M25.67,92.63c-3.3,0-5-1.26-5.81-2.36A6,6,0,0,1,19,84.83c.42-1.62,1.15-3.72,1.94-5.81a5,5,0,0,1-3.4-1.67A5.92,5.92,0,0,1,16,72.59a9.93,9.93,0,0,1,3.4-6A16.27,16.27,0,0,1,29,62.7c.58-.05,1.1-.1,1.62-.1,6.91-.1,10.62,3.82,11.2,7.75a8.76,8.76,0,0,1-3.19,7.9,6.36,6.36,0,0,1,1.15,3.66,9.41,9.41,0,0,1-3.72,7,16.32,16.32,0,0,1-9.26,3.72c-.37,0-.79,0-1.15,0h0Zm3.4-10.94c-.63,1.78-.89,2.77-1.05,3.35a3.91,3.91,0,0,0,2.46-3.25v-.05H29.12Zm3.45-9.79s-.26.73-.63,1.67a4.66,4.66,0,0,0,.63-1.73v0Z"/><path class="cls-16" d="M38.29,90a4.49,4.49,0,0,1-4.24-2.83h0v-.1a3,3,0,0,1,.31-2.67,2.71,2.71,0,0,1,2.2-1.2s.1-.1.16-.1c.21-.16,1-1,3-4.34a6.36,6.36,0,0,1-1.36-2.41,3.21,3.21,0,0,1,.31-2.67A3,3,0,0,1,41,72.33h.73c.52,0,1.62-.1,2.88-.16,1.47-.1,3-.26,3.87-.31.37,0,.58,0,.68,0h.26a4.82,4.82,0,0,1,4,2,3.55,3.55,0,0,1,.16,3.25A3.18,3.18,0,0,1,56,78.67a3.31,3.31,0,0,1-.21,3.4c-4.24,6.39-5.81,7-7,7.12h-.21a6.86,6.86,0,0,1-5.13-2.62,7.28,7.28,0,0,1-2.62,2.83h0A4.4,4.4,0,0,1,38.9,90h-.63Z"/><path class="cls-16" d="M54.83,88.65c-2.62,0-5.5-1.78-5.65-4.87a14.2,14.2,0,0,1,2-7.59c1.83-3.09,4.4-4.92,7.22-5.08h.42a6.42,6.42,0,0,1,2.09.31,4.13,4.13,0,0,1,1.73-.58h.21a4.77,4.77,0,0,1,4,2,3.38,3.38,0,0,1,.1,3.25,3.13,3.13,0,0,1,2.2,5c-4.4,6.39-5.81,7-7.12,7h-.16a7.24,7.24,0,0,1-3.4-1,6,6,0,0,1-3.3,1.52h-.37Z"/><path class="cls-16" d="M68.7,87.82a6.68,6.68,0,0,1-6.18-3.45,5.25,5.25,0,0,1,.37-5.6l.89-1.15c.52-.68.94-1.26,1.36-1.78a9,9,0,0,1,5.6-6.23,2.51,2.51,0,0,1,1.05-.21h.1a4.4,4.4,0,0,1,4,3.61A3,3,0,0,1,75,76.1a2.75,2.75,0,0,1,1.52-.47h.1a3.2,3.2,0,0,1,2.83,1.67,3.1,3.1,0,0,1-.31,3.4,20.53,20.53,0,0,1-5.29,5.39A8.26,8.26,0,0,1,69,87.82ZM73.93,77h0s.31-.37.47-.52c-.1,0-.16.1-.26.1s-.26.16-.37.26.05.1.1.1v0Z"/><path class="cls-16" d="M78.43,87.29c-2.62,0-5.55-1.88-5.71-5A14.34,14.34,0,0,1,75,74.73c1.88-3,4.5-4.76,7.38-4.92h.21a6.24,6.24,0,0,1,2.3.37,3.37,3.37,0,0,1,1.73-.52h.1a4.85,4.85,0,0,1,4,2.09,3.23,3.23,0,0,1,0,3.3,3,3,0,0,1,2.41,1.67,3.3,3.3,0,0,1-.31,3.45c-4.55,6.23-6,6.8-7.33,6.86h0a7,7,0,0,1-3.51-1.15,6,6,0,0,1-3.3,1.41h-.2Z"/><path class="cls-3" d="M78.38,86c-2,0-4.29-1.41-4.4-3.77a13.05,13.05,0,0,1,2-6.8c1.67-2.67,3.93-4.19,6.33-4.29h.16A4.94,4.94,0,0,1,85,71.7a2.32,2.32,0,0,1,1.57-.79h0a3.49,3.49,0,0,1,2.88,1.47,2.11,2.11,0,0,1,0,2.09c-.31.52-.89,1.94-1.47,3.35a7.29,7.29,0,0,0,.52-.63h0a2.52,2.52,0,0,1,1.62-.84h0a1.88,1.88,0,0,1,1.67,1,2,2,0,0,1-.21,2.09c-4.55,6.23-5.71,6.28-6.33,6.33h0a5.86,5.86,0,0,1-3.51-1.52,5.55,5.55,0,0,1-3.3,1.83h-.1l0-.1Zm4.13-10.15a5.8,5.8,0,0,0-.73.79A10.45,10.45,0,0,0,80,80.44c.21-.21.37-.42.63-.73a11.29,11.29,0,0,0,1.94-3.82l0,0Z"/><path class="cls-16" d="M104.65,86.72c-4.66,0-7.07-3.14-7.33-6.12a7.08,7.08,0,0,1,4.82-7.22,4.69,4.69,0,0,1,.47-2.15,6.94,6.94,0,0,1,6.18-3.77h0a8.1,8.1,0,0,1,1.1.05,4.23,4.23,0,0,1,3.93,3.72,4.1,4.1,0,0,1-.94,3l.1.1a3.05,3.05,0,0,1,.94,3.72,3.75,3.75,0,0,1-2.15,2,5.36,5.36,0,0,1-.68,3.19,7.16,7.16,0,0,1-6.44,3.51Z"/><path class="cls-3" d="M104.6,85.88c-4.13,0-6.23-2.72-6.49-5.34A6.33,6.33,0,0,1,103,74a3.77,3.77,0,0,1,.26-2.36,6.05,6.05,0,0,1,5.39-3.3h0a6.91,6.91,0,0,1,1,0,3.26,3.26,0,0,1,.89,6.38,2.76,2.76,0,0,1-.63.1h-.42V75a2.91,2.91,0,0,1-.68,1.52,5.75,5.75,0,0,0,1.1-.26c.73-.21.84-.42.84-.42a1,1,0,0,1,1-1.1.93.93,0,0,1,.52.16h0l0,.1a2.23,2.23,0,0,1,.68,2.72,3.46,3.46,0,0,1-2.36,1.78,4.83,4.83,0,0,1-.47,3.35c-1,1.88-3.09,3-5.71,3h0l0,0Zm1.05-8.79c-2.56,0-3.66,1.67-3.66,3.25a2.18,2.18,0,0,0,2.25,2.3h0a2.28,2.28,0,0,0,2.46-1.57,1.39,1.39,0,0,0,0-.79c-.89.21-1.36.47-1.36.79a1.06,1.06,0,0,1-1,1.1.59.59,0,0,1-.42-.1,2.29,2.29,0,0,1-1.41-1.67,2.37,2.37,0,0,1,.68-2.25,5.4,5.4,0,0,1,2.46-1.05h.05Zm1.73-3.45a2.45,2.45,0,0,1,.52,0,1.94,1.94,0,0,1-.21-.47,1.17,1.17,0,0,1,.73-1.31,1.62,1.62,0,0,0,1-.94.85.85,0,0,0-.42-.1h-.16a2.32,2.32,0,0,0-2.15,1.88c0,.31,0,.73.73.89h0Z"/><path class="cls-17" d="M107.43,76.3h-.1a8.13,8.13,0,0,0-1.88-.21c-5.76,0-5.81,7.22-1.41,7.17,3.4,0,4-3.35,2.77-4.13-1.36.26-2.46.68-2.51,1.67,0,.16-.1.31-.21.31H104a1.46,1.46,0,0,1-.47-2.46c1.78-1.62,8-.89,7.9-2.93,0-.16,0-.21.16-.21h.1a1.37,1.37,0,0,1,.42,1.73c-.37.89-1.47,1.26-2.72,1.52,1.31,2-.1,6.07-5,6.12-7.17.05-7.75-9.32-.37-10.47-1.52-1.83.84-5.34,4.5-5.39a5.62,5.62,0,0,1,.89,0c3.35.47,3,4,.73,4.76-.1,0-.26,0-.37,0-1,0-1.88-1.1-1.26-1.31,1.62-.63,2.25-2.51.37-2.72h-.31c-2.62,0-4.34,3.82-1.57,4.45a13,13,0,0,1,1.41.21c.42.1-.37,1.78-1,1.78h0Z"/><path class="cls-16" d="M125.27,86.82H125a6,6,0,0,1-5.55-3.45c-.94-2.09-.79-5,.42-6.54a2.85,2.85,0,0,1,2.3-1.15h.1a2.76,2.76,0,0,1,2.56,1.78l.79.16h.16a7.69,7.69,0,0,0,2.3-.42c-3.19-1.2-8.27-3.3-7.22-7.9,1.2-5.29,9.32-11.67,15-11.78h.31c5.08.1,6.86,3.19,6.86,6a11.83,11.83,0,0,1-6.39,9.74,5.09,5.09,0,0,1,1.36,4.45c-.89,5.34-8.22,9-12.67,9h0v0Z"/><path class="cls-16" d="M146.58,86h-.16A6.29,6.29,0,0,1,143,84.57a6,6,0,0,1-3.19,1.15h-.21A5.8,5.8,0,0,1,136,84.31a5.08,5.08,0,0,1-1.83-4c.16-3.93,3.87-11.57,10.15-11.62h.37a5.29,5.29,0,0,1,2.46.58,3.85,3.85,0,0,1,1.57-.42h.21a4.7,4.7,0,0,1,3.93,2.36,3.26,3.26,0,0,1-.21,3.3,3.2,3.2,0,0,1,2.25,1.83,3.34,3.34,0,0,1-.58,3.45c-4.92,5.76-6.39,6.23-7.64,6.28l0-.05Z"/><path class="cls-16" d="M157.25,86.46h-.31a6,6,0,0,1-2.72-.73,3.53,3.53,0,0,1-1.67.52H152l-.31-.1c-1.57-.52-4.45-2.25-4.29-5.34,0-.79.16-2.46,5-10.83,2.25-3.93,4.5-7.43,4.55-7.59h0v-.16a3.93,3.93,0,0,1,3.35-1.83h.37a4.51,4.51,0,0,1,3.72,2.15,3.36,3.36,0,0,1,0,3.14c-.05.1-.16.26-.47.84s-1,1.73-1.73,3a4.92,4.92,0,0,1,3.93,5.23A14.55,14.55,0,0,1,163.44,82c-1.36,2-3.51,4.4-6.23,4.45h0Z"/><path class="cls-16" d="M168.4,87.08h-.73a6.69,6.69,0,0,1-5.5-2.83,6.39,6.39,0,0,1-1-4.19c.26-3.93,4.55-9.94,10.47-10h.73c3.77.26,5.34,2.36,5.91,3.61a6.1,6.1,0,0,1,.58,2.41,3.09,3.09,0,0,1,2.2,1.88,3.27,3.27,0,0,1-.63,3.4c-1.47,1.67-3.14,3.35-6.12,3.61a9.89,9.89,0,0,1-5.91,2.15Z"/><path class="cls-16" d="M186,97.29h-.68a8.8,8.8,0,0,1-7.17-4.55c-1.78.26-3.66.58-5.6.89a97.23,97.23,0,0,1-16,1.83c-1.73,0-3.45,0-5.08-.16a10,10,0,0,1-5.81-2.36,7.51,7.51,0,0,1-2.56-6.39c.26-3.4,2.09-3.93,3.14-3.93h.26a3,3,0,0,1,2.15,1.15h0c.84,1.1,2.3,1.73,4.45,1.88,2.83.21,5.76.31,8.9.26,3.82,0,7.38-.31,10.78-.52,1.52-.1,2.93-.21,4.34-.26a17.68,17.68,0,0,1,.73-2.67h-.31a3.23,3.23,0,0,1-2.77-2.09,3.1,3.1,0,0,1,.73-3.3h0c.37-.37.68-.73,1.1-1.1a7.51,7.51,0,0,1-.58-1.94,3,3,0,0,1,.68-2.46,3,3,0,0,1,2.3-1.1h.31a1.21,1.21,0,0,1,.42,0h.1l.16,0c.37,0,1.2.16,2.72.26l3.66.26h.68a4.77,4.77,0,0,1,3.77,2.51,3.22,3.22,0,0,1-.42,3.4,47.68,47.68,0,0,0-4.29,8.11h0c4,.84,5.81,3.82,5.71,6.44a5.84,5.84,0,0,1-5.91,5.6h0l.05.1Z"/><path class="cls-3" d="M186,96h-.58a7.41,7.41,0,0,1-6.49-4.66c-2.09.26-4.29.63-6.59,1a100.76,100.76,0,0,1-15.75,1.83c-1.73,0-3.35,0-5-.16a8.87,8.87,0,0,1-5.08-2,6.15,6.15,0,0,1-2.09-5.29c.05-.68.21-2.72,1.88-2.72h.16a1.71,1.71,0,0,1,1.31.73h0c1.1,1.36,2.83,2.15,5.39,2.36a84.76,84.76,0,0,0,9,.26c3.82,0,7.43-.31,10.83-.52,1.88-.1,3.66-.26,5.39-.37a18.81,18.81,0,0,1,.94-3.82,27.23,27.23,0,0,1,2.72-5c-.73.84-1.67,1.88-2.67,2.88h0a1.92,1.92,0,0,1-1.47.68h-.16A2,2,0,0,1,176.09,80a1.82,1.82,0,0,1,.47-1.94h0l1.83-1.83a4.7,4.7,0,0,1-.94-2.3,1.68,1.68,0,0,1,.37-1.47,1.74,1.74,0,0,1,1.31-.63h.16a.67.67,0,0,1,.31,0h.1c.31,0,1.26.16,2.93.31l3.72.26H187a3.53,3.53,0,0,1,2.72,1.78,2,2,0,0,1-.26,2.09A44,44,0,0,0,185,84.81c-.16.52-.31,1-.42,1.52h.21c4.13.37,5.91,2.88,5.86,5.29A4.57,4.57,0,0,1,186,96h0V96Z"/><path class="cls-17" d="M146,85a1.41,1.41,0,0,1,.42.26c1.47,1.83,3.72,2.62,6.28,2.83,10.26.84,18.89-.31,26.59-.63a13.86,13.86,0,0,1,.94-4.66,38.12,38.12,0,0,1,4.19-7c-.94,0-2-.1-2.83-.16-.84.89-2.09,2.36-3.4,3.77a.68.68,0,0,1-.63.26.59.59,0,0,1-.42-1c1.15-1.1,2.25-2.25,3.09-3.14h-.37c-.94,0-1.36-1.47-1.41-2.09-.05-.37.16-.63.42-.58h.1a22.3,22.3,0,0,0,3.3.37c1.94.16,4.08.31,4.34.31.68,0,2.2.84,1.52,1.78a47.09,47.09,0,0,0-4.66,8.85,12.26,12.26,0,0,0-.68,3.19c.52,0,1,0,1.57,0,6.59.52,5.6,7.38.84,7a6.16,6.16,0,0,1-5.71-4.82c-8,.89-17.69,3.66-28.16,2.83-3.25-.26-6.28-2.3-6-5.91,0-.31.16-1.57.63-1.57l.05.05Zm37,4.34a3,3,0,0,0,2.72,2.51c1.73.16,2.41-2.3-.37-2.51a18.58,18.58,0,0,0-2.36,0Z"/><path class="cls-3" d="M125.27,85.51H125a4.62,4.62,0,0,1-4.4-2.67,5.67,5.67,0,0,1,.26-5.18,1.79,1.79,0,0,1,1.31-.68h0a1.45,1.45,0,0,1,1.41,1.1v.16l0,.16a3,3,0,0,0,1.88.58h.21a9.91,9.91,0,0,0,3.72-.84,5.29,5.29,0,0,0,1.67-1c-.58-.31-1.67-.73-2.46-1.05-3.14-1.2-7.38-2.88-6.54-6.49,1.1-4.76,8.64-10.68,13.71-10.78h.26c5.18.1,5.55,3.66,5.55,4.71,0,3.82-3.87,8.79-6.86,8.85h-.1c-1.26,0-2.83-1.73-3.19-2.2a1.94,1.94,0,0,1-.21-1.78,1.75,1.75,0,0,1,1.2-1,5.71,5.71,0,0,0,3.3-2.56,3.8,3.8,0,0,0,.63-1.47,12.83,12.83,0,0,0-3.93,2.51c-2,1.73-3.14,3.25-3.35,4.08a9,9,0,0,0,2.41,1.47c2.41,1.26,5.65,2.93,5.08,6.12-.79,4.55-7.33,7.9-11.41,8v0Z"/><path class="cls-17" d="M125.17,80c2.51,0,6.7-1.41,7.07-3.14.37-2-10.21-3-9.21-7.17s8.11-9.84,12.67-9.74c8.64.21,2.09,11-1.36,11a4.81,4.81,0,0,1-2.15-1.67c-.1-.16-.1-.68.21-.73,3.82-.79,6.59-6.59,3.87-6.65-2.09,0-8.22,5-8.79,7.69-.58,2.46,8.22,3.56,7.48,7.59s-7,7-10.31,6.91c-4.34-.1-3.82-5-3.14-5.76a.38.38,0,0,1,.31-.16c.1,0,.21.05.21.16.1,1.31,2.09,1.73,3.14,1.78V80Z"/><path class="cls-3" d="M146.58,84.68h-.1a5.26,5.26,0,0,1-3.4-1.83,5.9,5.9,0,0,1-3.3,1.57h-.16a4.48,4.48,0,0,1-2.83-1.1,3.6,3.6,0,0,1-1.36-3c.16-3.61,3.61-10.31,8.9-10.42h.31a4.23,4.23,0,0,1,2.56.79,2.09,2.09,0,0,1,1.52-.63h.1a3.43,3.43,0,0,1,2.77,1.62,2.15,2.15,0,0,1-.16,2.09A33.18,33.18,0,0,0,149.7,77l.58-.58h0a2.53,2.53,0,0,1,1.57-.73h.1a1.77,1.77,0,0,1,1.62,1.1,2,2,0,0,1-.37,2.09c-5,5.81-6.07,5.81-6.7,5.81h.08Zm-2.15-10.1a8.58,8.58,0,0,0-.89.84,11.56,11.56,0,0,0-2,3.51,7.49,7.49,0,0,0,.84-.89,11.46,11.46,0,0,0,2-3.45Z"/><path class="cls-3" d="M157.25,85.15H157a5,5,0,0,1-3-1.15,1.69,1.69,0,0,1-1.52.89h-.31l-.16,0c-1.2-.42-3.51-1.73-3.4-4,0-.58.1-2.15,4.82-10.26,2.25-3.93,4.5-7.48,4.55-7.54h0v0a2.75,2.75,0,0,1,2.36-1.31h.31a3.14,3.14,0,0,1,2.62,1.47,2.14,2.14,0,0,1,0,1.94,6.87,6.87,0,0,1-.47.84c-.63,1-1.67,2.93-2.88,5.08a3.2,3.2,0,0,1,1.2-.21h.21c2.2.1,3.56,1.67,3.51,4a12.84,12.84,0,0,1-2.41,6.59c-.94,1.41-2.88,3.82-5.18,3.87h0l-.05-.1Zm-1.62-5.6a.93.93,0,0,0,.26.63,10,10,0,0,0,2-2.67,11,11,0,0,0,.68-1.31,25.44,25.44,0,0,0-3,3.3v0Z"/><path class="cls-17" d="M158.72,63.48a1.57,1.57,0,0,1,1.52-.79c.73,0,2,.58,1.52,1.47-.1.21-3.61,6.18-6.12,11,1.67-1.83,3.82-3.51,5.23-3.4,5.55.31-.42,12.09-4.19,11.88a4,4,0,0,1-3.61-2.83,17.15,17.15,0,0,0-.52,2.15c0,.31-.21.42-.52.42-.94-.31-2.56-1.31-2.51-2.72.16-2.93,9.16-17.22,9.16-17.22l0,0ZM153.9,79c0,1.15.52,2.3,1.62,2.36,1.67.1,5.91-7.75,4.34-7.8-1.36,0-4.76,3.66-6,5.44Z"/><path class="cls-3" d="M168.4,85.77h-.63a5.51,5.51,0,0,1-4.5-2.25,5.31,5.31,0,0,1-.79-3.35c.26-3.51,4.19-8.74,9.16-8.85h.63c3,.21,4.24,1.67,4.82,2.83a5.72,5.72,0,0,1,.42,3.14,2.76,2.76,0,0,1,.63-.1h.16a1.68,1.68,0,0,1,1.57,1.15,2,2,0,0,1-.42,2c-1.41,1.62-2.88,3.09-5.6,3.19a9,9,0,0,1-5.44,2.15v0Zm4.13-9.94a2,2,0,0,0-1.36,1.73,1.85,1.85,0,0,0,.63,1.36c1-1.41,1.2-2.72,1-3a1.59,1.59,0,0,0-.31-.1h.05Z"/><path class="cls-17" d="M171.8,72.43c5,.31,4.92,4.82,2.51,8.16a3.32,3.32,0,0,0,1.67-.84,14.75,14.75,0,0,1,1.1-1,1.08,1.08,0,0,1,.73-.37c.47,0,.73.58.31,1-1.47,1.67-2.67,2.83-5.13,2.77a7.4,7.4,0,0,1-5.5,2.09c-3.82-.26-4.19-2.77-4.08-4.19.21-2.83,3.77-7.9,8.43-7.59l-.05,0Zm-3.19,9.68a3.25,3.25,0,0,0,1.83-.58,4.63,4.63,0,0,1-2.62-4.13,6.27,6.27,0,0,0-1,2.83,1.66,1.66,0,0,0,1.78,1.83Zm3.66-7.8a3,3,0,0,0-2.72,2.93,3.25,3.25,0,0,0,2.25,3.09c2-2.25,3.14-5.86.42-6Z"/><path class="cls-17" d="M144.22,71c1.62.05,2.36.79,2.62,1.67.31-.47.58-.79.73-1a.87.87,0,0,1,.89-.47c.68,0,2.25.73,1.62,1.67-.89,1.26-4.24,8.06-3.45,8.11.58,0,2.41-1.88,4.34-3.82a1.08,1.08,0,0,1,.73-.37c.47,0,.73.58.31,1-2.3,2.72-4.92,5.39-5.76,5.34s-3.09-1-3-2.72c-1.31,1.41-2.77,2.51-3.87,2.46a2.93,2.93,0,0,1-2.93-2.77c.1-3.35,3.45-9.32,7.85-9.16l0,0ZM140,80.64c2.67.1,7.28-7.75,4.76-7.85C141.65,72.69,138.41,80.59,140,80.64Z"/><path class="cls-3" d="M68.7,86.51a5.35,5.35,0,0,1-5-2.77,4.09,4.09,0,0,1,.21-4.24l.84-1.1c.58-.79,1.15-1.47,1.57-2a7.75,7.75,0,0,1,4.87-5.6c.26-.1.52-.1.63-.16h0c1.47,0,2.46,1.52,2.72,2.62a1.67,1.67,0,0,1-.89,2.09,3.21,3.21,0,0,0-1.52,1.52c.1.16.47.52.68.79A9.51,9.51,0,0,1,74,78.93l1-1.15h0a2.27,2.27,0,0,1,1.57-.84h0a1.85,1.85,0,0,1,1.46,3,20,20,0,0,1-5,5.08A6.72,6.72,0,0,1,69,86.52H68.7Zm-1-5.5a1,1,0,0,0,.63.26h0a1.51,1.51,0,0,0,.58-.1c-.1,0-.21-.16-.31-.21a4.78,4.78,0,0,1-.58-.47,2.82,2.82,0,0,1-.42.52Z"/><path class="cls-17" d="M82.09,72.22c1.62,0,2.41.58,2.72,1.47.26-.47.47-.84.63-1.1a1.15,1.15,0,0,1,.84-.58c.68,0,2.3.58,1.73,1.57-.79,1.36-3.61,8.37-2.83,8.32.58,0,2.25-2,4-4.13.26-.26.47-.42.68-.42.47,0,.79.47.42,1-2.09,2.88-4.45,5.76-5.34,5.81-.73,0-3.14-.79-3.25-2.46-1.2,1.52-2.56,2.72-3.66,2.77-1.41.05-3.09-.89-3.14-2.51-.16-3.35,2.72-9.53,7.12-9.74h0Zm-3.45,10c2.67-.1,6.65-8.32,4.13-8.22C79.68,74.1,77.06,82.27,78.64,82.22Z"/><path class="cls-3" d="M38.23,88.71a3.17,3.17,0,0,1-3-2h0v0a1.61,1.61,0,0,1,.16-1.47,1.37,1.37,0,0,1,1.15-.63h0c.37,0,.42,0,.89-.37.94-.73,2.67-3.61,3.87-5.71A4.06,4.06,0,0,1,39.48,76a2,2,0,0,1,.16-1.57A1.7,1.7,0,0,1,41,73.62h.42c.52,0,1.67-.1,3-.21s3-.26,3.87-.31a1.73,1.73,0,0,0,.63,0h.16a3.58,3.58,0,0,1,2.83,1.36,1.9,1.9,0,0,1,0,2,25.65,25.65,0,0,0-1.31,3.4c.21-.26.52-.68.52-.68h0a3,3,0,0,1,1.57-.94h.1a1.85,1.85,0,0,1,1.62.94,1.92,1.92,0,0,1-.16,2c-4.24,6.44-5.5,6.54-6.07,6.59H48c-1.2,0-4.4-1-4.61-3.56a9.72,9.72,0,0,1,.1-1.62c-1.31,2.72-2.56,4.87-3.87,5.65h0a2.79,2.79,0,0,1-1.41.42h0Z"/><path class="cls-3" d="M54.77,87.35a4.13,4.13,0,0,1-4.34-3.66,13.72,13.72,0,0,1,1.88-6.86c1.62-2.72,3.82-4.29,6.23-4.45h.37a4.71,4.71,0,0,1,2.3.52,2.1,2.1,0,0,1,1.57-.79h.1a3.5,3.5,0,0,1,2.83,1.41,2,2,0,0,1,0,2A32.79,32.79,0,0,0,64.35,79c.21-.26.52-.68.52-.68h0a2.72,2.72,0,0,1,1.57-.89h.1a1.8,1.8,0,0,1,1.62,1,1.92,1.92,0,0,1-.16,2c-4.4,6.39-5.55,6.44-6.18,6.49h-.1a5.48,5.48,0,0,1-3.45-1.47A5.16,5.16,0,0,1,55,87.32h-.21Zm4-10.26s-.42.42-.73.79a13,13,0,0,0-1.73,3.82c.16-.21.37-.42.58-.73A11.24,11.24,0,0,0,58.7,77.1h0Z"/><path class="cls-17" d="M58.28,73.48c1.62-.1,2.41.52,2.77,1.41.26-.47.47-.84.63-1.1a1,1,0,0,1,.84-.58c.68,0,2.3.52,1.78,1.52-.73,1.36-3.4,8.48-2.62,8.43.58,0,2.2-2.09,3.93-4.24.26-.26.47-.42.68-.42.47,0,.79.47.42,1-2,2.93-4.34,5.86-5.18,5.91s-3.14-.73-3.3-2.41c-1.15,1.57-2.51,2.77-3.56,2.83a2.91,2.91,0,0,1-3.19-2.46c-.21-3.3,2.46-9.63,6.86-9.89h-.06Zm-3.19,10.1c2.67-.16,6.44-8.48,3.93-8.32C56,75.47,53.52,83.69,55.09,83.58Z"/><path class="cls-17" d="M36.19,85.62a2.46,2.46,0,0,0,1.67-.68c1.36-1,3.66-5.13,5.18-7.8-.37,0-.68,0-.89,0-.94,0-1.57-1.26-1.73-1.83-.1-.37.1-.63.37-.63h.1c.21,0,1.78,0,3.45-.16,2-.16,4.24-.37,4.5-.42.68-.05,2.36.47,1.78,1.52-.73,1.36-3.3,8.53-2.51,8.43.58,0,2.2-2.15,3.87-4.29a1.57,1.57,0,0,1,.68-.47c.47,0,.79.47.42,1-1.94,3-4.24,5.91-5.08,6s-3.19-.68-3.35-2.41,1.26-5,2.36-7.22c-.84,0-1.78.16-2.56.26-1.26,2.93-3.66,8.85-5.5,9.94a1.89,1.89,0,0,1-.89.26,2,2,0,0,1-2-1.2c-.1-.21,0-.42.16-.37h0Z"/><path class="cls-3" d="M25.62,91.38c-2.72,0-4.13-1-4.76-1.83a4.64,4.64,0,0,1-.63-4.29c1.36-5.08,5.6-14.66,5.76-15.07h0v0a2.05,2.05,0,0,1,.37-.58,7.52,7.52,0,0,0-3.66,5.18.75.75,0,0,0,.16.58,1.57,1.57,0,0,1,.05,1.52,1.87,1.87,0,0,1-1.41,1h-.26a4,4,0,0,1-2.77-1.26,5,5,0,0,1-1.26-3.77c.26-2.93,3.77-7.9,11.88-8.74.52,0,1.05-.1,1.52-.1,6.12-.1,9.37,3.3,9.89,6.65a7.62,7.62,0,0,1-3.87,7.54A4.7,4.7,0,0,1,38.46,82a8.41,8.41,0,0,1-3.25,6,15.37,15.37,0,0,1-8.53,3.4c-.37,0-.68,0-1.05,0h0v0ZM28.29,80c-.84,2.41-1.52,4.55-1.67,5.34a2.66,2.66,0,0,0,0,1,1,1,0,0,0,.63.16h.26a5.06,5.06,0,0,0,4.19-4.76c0-.63-.26-1.36-1.78-1.31h-.58A1.72,1.72,0,0,1,28.19,80Zm3-8.58s-.94,2.56-1.88,5.29h.16c2.56-.26,4.45-3.19,4.34-5.5s-2-2.72-3.66-2.67h-.37a2.61,2.61,0,0,1,1.31.89,2.06,2.06,0,0,1,.21,2h-.11Z"/><path class="cls-17" d="M18.14,72.43c.21-2.41,3.3-6.8,10.73-7.54,11.67-1.15,13.4,10.21,4,12.88,7.38.89,3.87,10.78-6.7,11.83-4.24.42-5.81-1.62-5.08-4.45,1.36-5,5.71-14.86,5.71-14.86a1.65,1.65,0,0,1,1.52-1c.79,0,1.83.26,1.47,1.26-.16.31-4.4,12-4.82,14.13-.31,1.62.21,2.88,2.36,2.67,5.34-.52,8-9.26,1.78-8.64-.63,0-.26-1.1.26-1.15C35.32,77,38.09,66,29,66.84a8.68,8.68,0,0,0-7.9,7.33,2.4,2.4,0,0,0,.31,1.36.43.43,0,0,1-.42.52c-1.52.16-3-1.62-2.83-3.61Z"/><path class="cls-17" d="M64.61,80c1.1-1.41,1.94-2.56,2.62-3.4a6.1,6.1,0,0,1,4.08-4.87h.21c.94,0,1.88,2,1.31,2.25-.79.31-2.36,1.62-2.3,2.83S73,79.08,73.15,81v.31c.68-.73,1.57-1.78,2.46-2.88.26-.26.47-.42.68-.42.47,0,.79.47.42,1A16.46,16.46,0,0,1,72,83.72,5.42,5.42,0,0,1,68.55,85c-3.77.21-5.29-3.14-3.93-4.92v0Zm3.51,2.25c1.36,0,2-.84,2-1.47,0-.89-1.73-1.31-2.51-2.67-.42.58-.89,1.26-1.41,2s.21,2.25,1.94,2.2v0Z"/></g><rect class="cls-3" y="144.23" width="111.34" height="31.91" rx="15.95"/><path class="cls-17" d="M24.46,159.92v.21s0,.06-.05.06h-.66a1.06,1.06,0,0,1,0-.31,5.59,5.59,0,0,0-.12-.82,2.76,2.76,0,0,0-.08-.27,3,3,0,0,0-.17-.5l0-.08c-.09-.18-.17-.36-.28-.54a3.53,3.53,0,0,0-.21-.32l-.05-.06a4.73,4.73,0,0,0-1.18-1.14,2,2,0,0,0-.27-.17,5.36,5.36,0,0,0-.53-.28h0a3.85,3.85,0,0,0-.81-.27,5.38,5.38,0,0,0-1.05-.13.11.11,0,0,1-.08,0s0,0,0,0v-.59c0-.09,0-.1.1-.11h.19a3.13,3.13,0,0,1,.43,0,.2.2,0,0,1,.15,0,6.12,6.12,0,0,1,1.1.28,5.62,5.62,0,0,1,2.55,1.88l0,0a.81.81,0,0,1,.12.14c.1.15.2.3.29.45a4.53,4.53,0,0,1,.27.54,4.44,4.44,0,0,1,.22.61.39.39,0,0,1,0,.21,7.05,7.05,0,0,1,.15.8l0,.38Z"/><path class="cls-17" d="M13.17,156.92a.4.4,0,0,1,0-.13.73.73,0,0,1,.08-.25.56.56,0,0,1,.14-.2c.22-.22.45-.44.67-.67a1.64,1.64,0,0,1,.25-.21,1.14,1.14,0,0,1,.3-.13l.2-.05h.31l.27.07a1.5,1.5,0,0,1,.87.79,2.25,2.25,0,0,1,.14.44c.1.36.2.72.29,1.08a1.32,1.32,0,0,1-.15,1,1.39,1.39,0,0,1-.21.27c-.12.12-.24.25-.37.36a.17.17,0,0,0-.05.2l.15.43a4.9,4.9,0,0,0,.24.52,5.37,5.37,0,0,0,.59.9c.06.07.12.15.19.22a5.19,5.19,0,0,0,1.44,1.11,5.05,5.05,0,0,0,.53.24,3.71,3.71,0,0,0,.47.16.13.13,0,0,0,.13,0l.37-.37a1.32,1.32,0,0,1,1.06-.41,2.13,2.13,0,0,1,.5.11l.08,0,1,.26.09,0a1.44,1.44,0,0,1,.9,1,1.41,1.41,0,0,1,.06.22v.33a1.18,1.18,0,0,1,0,.2,1.34,1.34,0,0,1-.38.61l-.56.56a.76.76,0,0,1-.25.18,1.85,1.85,0,0,1-.4.12,4.42,4.42,0,0,1-.63,0c-.23,0-.45,0-.68-.07s-.5-.08-.75-.14a8.8,8.8,0,0,1-1.32-.42l-.15-.06-.26-.12-.61-.31q-.42-.24-.81-.51c-.22-.16-.44-.33-.65-.51s-.46-.41-.67-.64-.36-.41-.54-.63l-.14-.19a.36.36,0,0,0-.07-.1c-.18-.26-.36-.53-.51-.8s-.22-.4-.31-.61-.06-.15-.1-.22-.17-.43-.25-.64a8.29,8.29,0,0,1-.25-.85,1.74,1.74,0,0,0,0-.22c0-.11,0-.23-.07-.34s0-.13,0-.2-.05-.42-.06-.64,0-.36,0-.53v-.16Z"/><path class="cls-17" d="M18.82,157.36v-.65c0-.05,0-.06.06-.06s.35,0,.52,0a.34.34,0,0,1,.22,0,4.16,4.16,0,0,1,.7.25,3.52,3.52,0,0,1,1.94,2.42.06.06,0,0,0,0,0,.21.21,0,0,1,0,.15c0,.16,0,.32,0,.48s0,.13-.11.12h-.59s0-.06,0-.09a2.11,2.11,0,0,0,0-.25,1.25,1.25,0,0,0,0-.19c0-.11,0-.22-.08-.33a2.65,2.65,0,0,0-.72-1.16,2.75,2.75,0,0,0-1.1-.66,1.67,1.67,0,0,0-.32-.08l-.18,0-.25,0Z"/><path class="cls-17" d="M18.92,159.49a.13.13,0,0,1-.1-.14v-.58a1.74,1.74,0,0,1,.56.11c.06,0,.1,0,.15.06a.41.41,0,0,1,.11.07,1.29,1.29,0,0,1,.33.33,1.56,1.56,0,0,1,.16.28,1.41,1.41,0,0,1,.11.45v.1l0,0a1.22,1.22,0,0,1-.27,0h-.33c-.09,0-.1,0-.12-.1a.68.68,0,0,0-.52-.59s-.05,0-.06,0Z"/><rect class="cls-18" x="114.77" y="144.62" width="111.34" height="31.91" rx="15.95"/><path class="cls-17" d="M135.47,156.2a3.34,3.34,0,0,0-1.88-.89,4.07,4.07,0,0,1-.59-.06h-.89l-.14,0a3.58,3.58,0,0,0-.92.13,4.42,4.42,0,0,0-2.92,4.14,5.75,5.75,0,0,0,.59,2.51,12.91,12.91,0,0,0,3,4,1.3,1.3,0,0,0,.65.35h.35a1.06,1.06,0,0,0,.51-.22c.36-.34.72-.67,1.06-1a14,14,0,0,0,1.78-2.4,6.44,6.44,0,0,0,.93-3,4.37,4.37,0,0,0-1.56-3.6Zm-2.9,5.56a2.18,2.18,0,1,1,.06-4.36,2.18,2.18,0,0,1-.06,4.36Z"/><path class="cls-17" d="M40.44,155.22a1.84,1.84,0,0,1,.5,1.31,2,2,0,0,1-.3,1.08,2.06,2.06,0,0,1-.91.77,3.45,3.45,0,0,1-1.48.29,4.65,4.65,0,0,1-1.4-.21,3.61,3.61,0,0,1-1.16-.58l.55-1a2.59,2.59,0,0,0,.9.49,3.32,3.32,0,0,0,1.09.18,1.7,1.7,0,0,0,1.05-.28.86.86,0,0,0,.39-.75.85.85,0,0,0-.37-.74,1.85,1.85,0,0,0-1.11-.27h-.62v-.86l1.54-1.84H36v-1.06h4.64v.85l-1.65,2A2.3,2.3,0,0,1,40.44,155.22Z"/><path class="cls-17" d="M44.12,151.77v6.8H42.85v-5.74H41.42v-1.06Z"/><path class="cls-17" d="M47.82,151.77v6.8H46.55v-5.74H45.12v-1.06Z"/><path class="cls-17" d="M54.09,157.5v1.07h-5v-.84l2.7-2.57a2.86,2.86,0,0,0,.62-.76,1.56,1.56,0,0,0,.16-.65.9.9,0,0,0-.32-.73,1.57,1.57,0,0,0-.94-.25,1.91,1.91,0,0,0-1.6.71l-.88-.68a2.56,2.56,0,0,1,1.07-.83,3.7,3.7,0,0,1,1.51-.3,2.77,2.77,0,0,1,1.77.53,1.72,1.72,0,0,1,.66,1.43,2.47,2.47,0,0,1-.23,1,4.18,4.18,0,0,1-.9,1.1l-1.81,1.73Z"/><path class="cls-17" d="M60.05,155.65a1.68,1.68,0,0,1,.29,1,1.8,1.8,0,0,1-.35,1.09,2.11,2.11,0,0,1-1,.71,3.9,3.9,0,0,1-1.47.25,3.85,3.85,0,0,1-1.46-.25,2.11,2.11,0,0,1-1-.71,1.86,1.86,0,0,1-.34-1.09,1.75,1.75,0,0,1,.28-1,2,2,0,0,1,.81-.65,1.71,1.71,0,0,1-.63-.59,1.78,1.78,0,0,1,.1-1.84,2,2,0,0,1,.89-.66,3.78,3.78,0,0,1,2.65,0,2,2,0,0,1,.9.66,1.64,1.64,0,0,1,.32,1,1.52,1.52,0,0,1-.23.83,1.77,1.77,0,0,1-.64.6A1.93,1.93,0,0,1,60.05,155.65Zm-1.39,1.74a1,1,0,0,0,.41-.81.94.94,0,0,0-.41-.8,2.25,2.25,0,0,0-2.21,0,1,1,0,0,0-.39.8,1,1,0,0,0,.39.81,2.25,2.25,0,0,0,2.21,0Zm-2-4.47a.82.82,0,0,0-.34.71.81.81,0,0,0,.34.69,1.85,1.85,0,0,0,1.89,0,.79.79,0,0,0,.35-.69.83.83,0,0,0-.35-.71,1.6,1.6,0,0,0-1-.26A1.56,1.56,0,0,0,56.61,152.92Z"/><path class="cls-17" d="M66.28,151.77v.85l-2.64,5.95H62.29l2.56-5.73H62.18V154H61v-2.23Z"/><path class="cls-17" d="M71.16,154.63a2,2,0,0,1,.84.74,2,2,0,0,1,.3,1.09,2,2,0,0,1-.33,1.16,2.14,2.14,0,0,1-.9.78,2.84,2.84,0,0,1-1.26.27,2.72,2.72,0,0,1-2.17-.88,3.67,3.67,0,0,1-.77-2.5,4.2,4.2,0,0,1,.42-2,2.79,2.79,0,0,1,1.17-1.23,3.51,3.51,0,0,1,1.74-.43,4,4,0,0,1,1,.12,2.73,2.73,0,0,1,.8.32l-.47.95a2.33,2.33,0,0,0-1.29-.33,2,2,0,0,0-1.54.61,2.46,2.46,0,0,0-.55,1.73h0a1.93,1.93,0,0,1,.77-.53,2.89,2.89,0,0,1,1-.18A2.75,2.75,0,0,1,71.16,154.63Zm-.46,2.73a1,1,0,0,0,.37-.84,1,1,0,0,0-.37-.84,1.69,1.69,0,0,0-2,0,1,1,0,0,0-.39.83,1,1,0,0,0,.38.82,1.5,1.5,0,0,0,1,.33A1.41,1.41,0,0,0,70.7,157.36Z"/><path class="cls-17" d="M77.88,157.5v1.07h-5v-.84l2.7-2.57a2.86,2.86,0,0,0,.62-.76,1.42,1.42,0,0,0,.16-.65A.9.9,0,0,0,76,153a1.57,1.57,0,0,0-.94-.25,1.91,1.91,0,0,0-1.6.71l-.88-.68a2.56,2.56,0,0,1,1.07-.83,3.7,3.7,0,0,1,1.51-.3,2.77,2.77,0,0,1,1.77.53,1.72,1.72,0,0,1,.66,1.43,2.47,2.47,0,0,1-.23,1,4.18,4.18,0,0,1-.9,1.1l-1.81,1.73Z"/><path class="cls-17" d="M83.54,157.5v1.07h-5v-.84l2.71-2.57a2.79,2.79,0,0,0,.61-.76,1.42,1.42,0,0,0,.16-.65.87.87,0,0,0-.32-.73,1.55,1.55,0,0,0-.94-.25,1.91,1.91,0,0,0-1.59.71l-.89-.68a2.66,2.66,0,0,1,1.08-.83,3.67,3.67,0,0,1,1.51-.3,2.74,2.74,0,0,1,1.76.53,1.7,1.7,0,0,1,.67,1.43,2.33,2.33,0,0,1-.24,1,3.91,3.91,0,0,1-.89,1.1l-1.82,1.73Z"/><path class="cls-17" d="M89.37,151.77v.85l-2.65,5.95H85.37l2.56-5.73H85.26V154H84.08v-2.23Z"/><path d="M39.78,163.78a1.71,1.71,0,0,1,.73.65,1.75,1.75,0,0,1,.27,1,1.79,1.79,0,0,1-1,1.66,2.38,2.38,0,0,1-1.08.23,2.25,2.25,0,0,1-1.87-.8,3.52,3.52,0,0,1-.65-2.28,3.8,3.8,0,0,1,.35-1.74,2.4,2.4,0,0,1,1-1.08A3,3,0,0,1,39,161a2.85,2.85,0,0,1,1.47.34l-.26.51a2.17,2.17,0,0,0-1.2-.29,2,2,0,0,0-1.6.65,2.7,2.7,0,0,0-.58,1.88c0,.14,0,.31,0,.5a1.65,1.65,0,0,1,.74-.78,2.25,2.25,0,0,1,1.15-.28A2.52,2.52,0,0,1,39.78,163.78Zm-.05,2.61a1.22,1.22,0,0,0,.42-1,1.21,1.21,0,0,0-.42-1,1.65,1.65,0,0,0-1.13-.36,1.8,1.8,0,0,0-.82.18,1.26,1.26,0,0,0-.56.48,1.25,1.25,0,0,0,0,1.34,1.27,1.27,0,0,0,.56.48,1.84,1.84,0,0,0,.88.19A1.54,1.54,0,0,0,39.73,166.39Z"/><path d="M45.93,164.59a1.44,1.44,0,0,1,.32.93,1.57,1.57,0,0,1-.29.94,1.87,1.87,0,0,1-.84.62,3.48,3.48,0,0,1-1.27.21,2.81,2.81,0,0,1-1.74-.47,1.53,1.53,0,0,1-.64-1.3,1.39,1.39,0,0,1,.31-.93,1.82,1.82,0,0,1,.88-.58,1.53,1.53,0,0,1-.72-.53,1.45,1.45,0,0,1-.25-.83,1.42,1.42,0,0,1,.59-1.19,2.57,2.57,0,0,1,1.57-.44,3,3,0,0,1,1.14.2,1.65,1.65,0,0,1,.76.57,1.37,1.37,0,0,1,.28.86,1.39,1.39,0,0,1-.26.83A1.56,1.56,0,0,1,45,164,1.8,1.8,0,0,1,45.93,164.59Zm-.8,1.83a1.11,1.11,0,0,0,0-1.81,2.63,2.63,0,0,0-2.55,0,1,1,0,0,0-.46.91,1.07,1.07,0,0,0,.45.91,2.19,2.19,0,0,0,1.28.33A2.09,2.09,0,0,0,45.13,166.42Zm-2.4-2.94a1.86,1.86,0,0,0,1.12.3,1.84,1.84,0,0,0,1.12-.3.93.93,0,0,0,.41-.8,1,1,0,0,0-.41-.82,1.88,1.88,0,0,0-1.12-.3,1.83,1.83,0,0,0-1.11.3.94.94,0,0,0-.41.81A1,1,0,0,0,42.73,163.48Z"/><path d="M51.55,164.59a1.44,1.44,0,0,1,.32.93,1.57,1.57,0,0,1-.29.94,1.93,1.93,0,0,1-.84.62,3.48,3.48,0,0,1-1.27.21,2.81,2.81,0,0,1-1.74-.47,1.53,1.53,0,0,1-.64-1.3,1.39,1.39,0,0,1,.31-.93,1.77,1.77,0,0,1,.88-.58,1.48,1.48,0,0,1-.72-.53,1.38,1.38,0,0,1-.25-.83,1.42,1.42,0,0,1,.59-1.19,2.57,2.57,0,0,1,1.57-.44,3.09,3.09,0,0,1,1.14.2,1.65,1.65,0,0,1,.76.57,1.43,1.43,0,0,1,.28.86,1.39,1.39,0,0,1-.26.83,1.56,1.56,0,0,1-.73.53A1.85,1.85,0,0,1,51.55,164.59Zm-.8,1.83a1.12,1.12,0,0,0,0-1.81,2.63,2.63,0,0,0-2.55,0,1,1,0,0,0-.46.91,1.07,1.07,0,0,0,.45.91,2.16,2.16,0,0,0,1.28.33A2.09,2.09,0,0,0,50.75,166.42Zm-2.4-2.94a2.24,2.24,0,0,0,2.24,0,.93.93,0,0,0,.41-.8,1,1,0,0,0-.42-.82,1.85,1.85,0,0,0-1.11-.3,1.83,1.83,0,0,0-1.11.3.94.94,0,0,0-.41.81A1,1,0,0,0,48.35,163.48Z"/><path d="M56.32,164.24a1.64,1.64,0,0,1,.5,1.23,1.66,1.66,0,0,1-1,1.59,2.8,2.8,0,0,1-1.22.23,3.8,3.8,0,0,1-1.27-.21,2.69,2.69,0,0,1-1-.58l.31-.5a2.17,2.17,0,0,0,.81.51,2.9,2.9,0,0,0,1.1.2,1.85,1.85,0,0,0,1.17-.33,1.2,1.2,0,0,0,0-1.81,2.05,2.05,0,0,0-1.25-.32h-.44v-.47l1.71-2.14H52.62v-.56h4v.45l-1.75,2.19A2.29,2.29,0,0,1,56.32,164.24Z"/><path d="M61.2,164.08a1.64,1.64,0,0,1,.61,1.35,1.91,1.91,0,0,1-.25,1,1.71,1.71,0,0,1-.76.66,2.81,2.81,0,0,1-1.23.24,3.69,3.69,0,0,1-1.25-.21,2.65,2.65,0,0,1-1-.58l.31-.5a2.17,2.17,0,0,0,.81.51,2.77,2.77,0,0,0,1.08.2,1.83,1.83,0,0,0,1.19-.34,1.12,1.12,0,0,0,.42-.92,1.09,1.09,0,0,0-.48-1,3,3,0,0,0-1.59-.32H57.79l.32-3.09h3.37v.56H58.66l-.21,2h.8A3.18,3.18,0,0,1,61.2,164.08Z"/><path d="M66.41,161.83a3.58,3.58,0,0,1,.65,2.28,4,4,0,0,1-.35,1.74,2.48,2.48,0,0,1-1,1.08,3,3,0,0,1-1.48.36,2.79,2.79,0,0,1-1.46-.33l.25-.51a2.22,2.22,0,0,0,1.2.29,2,2,0,0,0,1.6-.65,2.71,2.71,0,0,0,.58-1.88,4.44,4.44,0,0,0,0-.5,1.72,1.72,0,0,1-.73.78,2.43,2.43,0,0,1-1.16.28,2.52,2.52,0,0,1-1.08-.23,1.77,1.77,0,0,1-.73-.65,1.74,1.74,0,0,1-.26-1,1.85,1.85,0,0,1,.27-1,1.72,1.72,0,0,1,.75-.66,2.38,2.38,0,0,1,1.08-.24A2.28,2.28,0,0,1,66.41,161.83Zm-1,2.22a1.32,1.32,0,0,0,.56-.48,1.22,1.22,0,0,0,.21-.69,1.26,1.26,0,0,0-.19-.65,1.39,1.39,0,0,0-.56-.48,1.87,1.87,0,0,0-.88-.19,1.57,1.57,0,0,0-1.09.37,1.21,1.21,0,0,0-.42,1,1.22,1.22,0,0,0,.42,1,1.67,1.67,0,0,0,1.13.36A1.77,1.77,0,0,0,65.42,164.05Z"/><path d="M72.25,161.08v.45l-2.58,5.71H69l2.53-5.6H68.35v1.15h-.62v-1.71Z"/><path class="cls-17" d="M145.25,159a2.75,2.75,0,0,1-1.09-1.05,2.87,2.87,0,0,1-.4-1.51,2.93,2.93,0,0,1,.4-1.51,2.85,2.85,0,0,1,1.1-1,3.17,3.17,0,0,1,1.57-.38,3.32,3.32,0,0,1,1.28.24,2.58,2.58,0,0,1,1,.71l-.68.65a2,2,0,0,0-1.53-.67,2.16,2.16,0,0,0-1.06.25,2,2,0,0,0-.73.72,2.21,2.21,0,0,0,0,2.08,1.91,1.91,0,0,0,.73.71,2.16,2.16,0,0,0,1.06.26,2,2,0,0,0,1.53-.68l.68.65a2.72,2.72,0,0,1-1,.72,3.37,3.37,0,0,1-1.29.24A3.28,3.28,0,0,1,145.25,159Z"/><path class="cls-17" d="M150,153.22h1v6.07h-1Z"/><path class="cls-17" d="M152.23,159.15a.64.64,0,0,1-.2-.48.65.65,0,0,1,.2-.49.61.61,0,0,1,.47-.19.65.65,0,0,1,.48.19.64.64,0,0,1,.19.49.63.63,0,0,1-.19.48.66.66,0,0,1-1,0Z"/><path class="cls-17" d="M158.29,153.57v5.72h-1.06v-4.83H156v-.89Z"/><path class="cls-17" d="M163.07,156.47a1.52,1.52,0,0,1,.42,1.1,1.68,1.68,0,0,1-.25.91,1.78,1.78,0,0,1-.77.65,2.89,2.89,0,0,1-1.24.24,3.83,3.83,0,0,1-1.18-.18,2.75,2.75,0,0,1-1-.48l.46-.83a2.09,2.09,0,0,0,.75.42,2.86,2.86,0,0,0,.92.15,1.47,1.47,0,0,0,.89-.24.73.73,0,0,0,.32-.63.71.71,0,0,0-.31-.62,1.55,1.55,0,0,0-.93-.23h-.53V156l1.3-1.54h-2.59v-.89h3.89v.71l-1.39,1.65A1.9,1.9,0,0,1,163.07,156.47Z"/><path class="cls-17" d="M168.29,158.39v.9h-4.22v-.71l2.27-2.16a2.54,2.54,0,0,0,.52-.64,1.25,1.25,0,0,0,.14-.55.73.73,0,0,0-.27-.61,1.29,1.29,0,0,0-.8-.21,1.6,1.6,0,0,0-1.34.6l-.74-.58a2.09,2.09,0,0,1,.9-.69,3.1,3.1,0,0,1,1.27-.25,2.28,2.28,0,0,1,1.49.44,1.44,1.44,0,0,1,.56,1.2,2,2,0,0,1-.2.87,3.17,3.17,0,0,1-.75.93l-1.53,1.46Z"/><path class="cls-17" d="M173.4,153.22v6.07h-1v-.57a1.51,1.51,0,0,1-.62.47,2.18,2.18,0,0,1-.82.16,2.4,2.4,0,0,1-1.14-.28,2,2,0,0,1-.78-.79,2.51,2.51,0,0,1,0-2.34,2,2,0,0,1,.78-.79,2.4,2.4,0,0,1,1.14-.27,2,2,0,0,1,.79.14,1.68,1.68,0,0,1,.61.44v-2.24Zm-1.64,5.08a1.25,1.25,0,0,0,.47-.47,1.53,1.53,0,0,0,.17-.72,1.47,1.47,0,0,0-.17-.72,1.21,1.21,0,0,0-.47-.48,1.32,1.32,0,0,0-.66-.17,1.3,1.3,0,0,0-.66.17,1.21,1.21,0,0,0-.47.48,1.47,1.47,0,0,0-.17.72,1.53,1.53,0,0,0,.17.72,1.25,1.25,0,0,0,.47.47,1.2,1.2,0,0,0,.66.17A1.23,1.23,0,0,0,171.76,158.3Z"/><path class="cls-17" d="M180.58,157.16h1.1v.74h-1.19l-.17,1.39h-.75l.18-1.39h-1.39l-.17,1.39h-.74l.17-1.39h-1.1v-.74h1.19l.19-1.46h-1.1V155H178l.17-1.39h.74l-.17,1.39h1.38l.17-1.39H181l-.17,1.39h1.09v.74h-1.19Zm-.74,0,.18-1.46h-1.38l-.19,1.46Z"/><path class="cls-17" d="M184.48,153.57v5.72h-1.06v-4.83h-1.21v-.89Z"/><path class="cls-17" d="M190.71,158h-1v1.3h-1V158h-3.14v-.74l2.82-3.68h1.14l-2.66,3.52h1.87v-1.15h1v1.15h1Z"/><path class="cls-17" d="M196.26,158h-1v1.3h-1V158h-3.14v-.74l2.82-3.68H195l-2.66,3.52h1.87v-1.15h1v1.15h1Z"/><path class="cls-17" d="M201.93,156.83a1.51,1.51,0,0,1,.27.91,1.32,1.32,0,0,1-.57,1.14,2.88,2.88,0,0,1-1.67.41h-2.84v-5.72h2.68a2.64,2.64,0,0,1,1.56.39,1.28,1.28,0,0,1,.55,1.1,1.45,1.45,0,0,1-.2.75,1.3,1.3,0,0,1-.54.5A1.6,1.6,0,0,1,201.93,156.83Zm-3.75-2.43V156h1.51a1.55,1.55,0,0,0,.85-.2.66.66,0,0,0,.3-.59.67.67,0,0,0-.3-.59,1.55,1.55,0,0,0-.85-.2Zm2.95,3.23c0-.55-.41-.83-1.23-.83h-1.72v1.66h1.72C200.72,158.46,201.13,158.18,201.13,157.63Z"/><path class="cls-17" d="M203,156.59h2.25v.85H203Z"/><path class="cls-17" d="M207.28,159a2.37,2.37,0,0,1-.85-1,4.18,4.18,0,0,1,0-3.16,2.4,2.4,0,0,1,.85-1,2.38,2.38,0,0,1,2.45,0,2.35,2.35,0,0,1,.86,1,4.18,4.18,0,0,1,0,3.16,2.32,2.32,0,0,1-.86,1,2.32,2.32,0,0,1-2.45,0Zm2.19-1.08a3.35,3.35,0,0,0,0-3,1.17,1.17,0,0,0-1.93,0,3.43,3.43,0,0,0,0,3,1.17,1.17,0,0,0,1.93,0Z"/><path class="cls-17" d="M216,156.83a1.41,1.41,0,0,1,.24.82,1.52,1.52,0,0,1-.29.91,1.83,1.83,0,0,1-.82.6,3.74,3.74,0,0,1-2.47,0,1.8,1.8,0,0,1-.81-.6,1.51,1.51,0,0,1-.28-.91,1.41,1.41,0,0,1,.23-.82,1.71,1.71,0,0,1,.68-.55,1.28,1.28,0,0,1-.71-1.2,1.36,1.36,0,0,1,.27-.84,1.64,1.64,0,0,1,.74-.56,3.37,3.37,0,0,1,2.23,0,1.7,1.7,0,0,1,.76.56,1.36,1.36,0,0,1,.27.84,1.33,1.33,0,0,1-.19.7,1.53,1.53,0,0,1-.54.5A1.67,1.67,0,0,1,216,156.83Zm-1.17,1.46a.84.84,0,0,0,0-1.35,1.61,1.61,0,0,0-.94-.24,1.55,1.55,0,0,0-.92.24.86.86,0,0,0,0,1.35,1.48,1.48,0,0,0,.92.25A1.54,1.54,0,0,0,214.85,158.29Zm-1.72-3.76a.68.68,0,0,0-.29.6.67.67,0,0,0,.29.58,1.23,1.23,0,0,0,.78.22,1.32,1.32,0,0,0,.81-.22.74.74,0,0,0,0-1.18,1.36,1.36,0,0,0-.8-.21A1.29,1.29,0,0,0,213.13,154.53Z"/><path d="M144.57,167.47a1.94,1.94,0,0,1-.78-.46l.2-.41a2,2,0,0,0,.72.44,2.62,2.62,0,0,0,.92.16,1.72,1.72,0,0,0,1-.24.76.76,0,0,0,.33-.64.64.64,0,0,0-.18-.47,1.16,1.16,0,0,0-.44-.27,5.28,5.28,0,0,0-.73-.21c-.37-.1-.67-.19-.89-.27a1.47,1.47,0,0,1-.57-.4,1.07,1.07,0,0,1-.24-.73,1.21,1.21,0,0,1,.2-.69,1.33,1.33,0,0,1,.61-.49,2.52,2.52,0,0,1,1-.18,2.91,2.91,0,0,1,.83.11,2.66,2.66,0,0,1,.7.32l-.17.42a2.72,2.72,0,0,0-.67-.31,2.88,2.88,0,0,0-.69-.1,1.68,1.68,0,0,0-1,.25.78.78,0,0,0-.32.65.65.65,0,0,0,.18.48,1.28,1.28,0,0,0,.45.28l.73.21a5.33,5.33,0,0,1,.88.26,1.37,1.37,0,0,1,.57.4,1,1,0,0,1,.24.72,1.26,1.26,0,0,1-.2.68,1.35,1.35,0,0,1-.62.49,2.6,2.6,0,0,1-1,.18A3.15,3.15,0,0,1,144.57,167.47Z"/><path d="M151.87,163.88v3.73h-.48v-.68a1.38,1.38,0,0,1-.55.52,1.81,1.81,0,0,1-1.94-.21,1.61,1.61,0,0,1-.42-1.2v-2.16h.5V166a1.25,1.25,0,0,0,.29.89,1.06,1.06,0,0,0,.83.31,1.23,1.23,0,0,0,.93-.36,1.41,1.41,0,0,0,.34-1v-2Z"/><path d="M156.15,164.09a1.73,1.73,0,0,1,.67.67,2.14,2.14,0,0,1,0,2,1.73,1.73,0,0,1-.67.67,1.89,1.89,0,0,1-1,.24,1.68,1.68,0,0,1-.84-.2,1.49,1.49,0,0,1-.6-.57v.74h-.48v-5.26h.5v2.24a1.58,1.58,0,0,1,.6-.55,1.74,1.74,0,0,1,.82-.19A1.89,1.89,0,0,1,156.15,164.09Zm-.28,2.93a1.32,1.32,0,0,0,.5-.52,1.67,1.67,0,0,0,0-1.51,1.2,1.2,0,0,0-.5-.52,1.4,1.4,0,0,0-.7-.18,1.43,1.43,0,0,0-.72.18,1.23,1.23,0,0,0-.49.52,1.67,1.67,0,0,0,0,1.51,1.36,1.36,0,0,0,.49.52,1.43,1.43,0,0,0,.72.18A1.4,1.4,0,0,0,155.87,167Z"/><path d="M160.49,164.22a1.4,1.4,0,0,1,.39,1.08v2.31h-.49V167a1.16,1.16,0,0,1-.5.45,1.73,1.73,0,0,1-.78.16,1.52,1.52,0,0,1-1-.3.93.93,0,0,1-.37-.78,1,1,0,0,1,.34-.77,1.72,1.72,0,0,1,1.1-.29h1.18v-.22a1,1,0,0,0-.27-.74,1.14,1.14,0,0,0-.78-.25,1.91,1.91,0,0,0-.68.12,1.61,1.61,0,0,0-.56.32l-.23-.37a2,2,0,0,1,.68-.38,2.84,2.84,0,0,1,.84-.13A1.56,1.56,0,0,1,160.49,164.22Zm-.57,2.83a1.2,1.2,0,0,0,.45-.56v-.61H159.2c-.63,0-.95.22-.95.66a.63.63,0,0,0,.24.52,1.19,1.19,0,0,0,.7.19A1.33,1.33,0,0,0,159.92,167.05Z"/><path d="M162.57,167a.36.36,0,0,1,.1.27.65.65,0,0,1,0,.19c0,.06,0,.14-.07.22l-.3,1h-.34l.24-1a.31.31,0,0,1-.19-.13.42.42,0,0,1-.07-.23.38.38,0,0,1,.65-.27Z"/><path d="M169.59,165.47a1.25,1.25,0,0,1,.26.81,1.14,1.14,0,0,1-.47,1,2.33,2.33,0,0,1-1.39.35h-2.28v-5h2.14a2.14,2.14,0,0,1,1.28.33,1.09,1.09,0,0,1,.46.94,1.2,1.2,0,0,1-.2.7,1.28,1.28,0,0,1-.56.43A1.32,1.32,0,0,1,169.59,165.47Zm-3.36-2.39v1.8h1.58a1.64,1.64,0,0,0,.93-.23.85.85,0,0,0,0-1.34,1.64,1.64,0,0,0-.93-.23ZM169,167a.81.81,0,0,0,.34-.71q0-.93-1.35-.93h-1.75v1.86H168A1.87,1.87,0,0,0,169,167Z"/><path d="M171.49,167.4a1.85,1.85,0,0,1-.68-.68,2,2,0,0,1-.24-1,1.94,1.94,0,0,1,.24-1,1.85,1.85,0,0,1,.68-.68,2.1,2.1,0,0,1,1.95,0,1.75,1.75,0,0,1,.67.68,1.85,1.85,0,0,1,.25,1,1.88,1.88,0,0,1-.25,1,1.75,1.75,0,0,1-.67.68,2.1,2.1,0,0,1-1.95,0Zm1.69-.38a1.36,1.36,0,0,0,.49-.52,1.67,1.67,0,0,0,0-1.51,1.23,1.23,0,0,0-.49-.52,1.51,1.51,0,0,0-1.43,0,1.23,1.23,0,0,0-.49.52,1.67,1.67,0,0,0,0,1.51,1.36,1.36,0,0,0,.49.52,1.51,1.51,0,0,0,1.43,0Z"/><path d="M178.83,163.88v3.27a1.89,1.89,0,0,1-.46,1.41,1.93,1.93,0,0,1-1.4.46,2.92,2.92,0,0,1-1-.16,1.94,1.94,0,0,1-.75-.42l.25-.38a1.94,1.94,0,0,0,.66.38,2.37,2.37,0,0,0,.81.13,1.43,1.43,0,0,0,1-.33,1.39,1.39,0,0,0,.33-1v-.48a1.45,1.45,0,0,1-.61.54,1.92,1.92,0,0,1-.84.19,2,2,0,0,1-.95-.23,1.77,1.77,0,0,1-.68-.65,1.85,1.85,0,0,1-.24-.94,1.79,1.79,0,0,1,.24-.93,1.72,1.72,0,0,1,.67-.64,2.06,2.06,0,0,1,1-.23,2,2,0,0,1,.86.19,1.57,1.57,0,0,1,.61.56v-.72Zm-1.17,3a1.33,1.33,0,0,0,.51-.49,1.39,1.39,0,0,0,.18-.71,1.35,1.35,0,0,0-.18-.7,1.33,1.33,0,0,0-.51-.49,1.57,1.57,0,0,0-.73-.17,1.6,1.6,0,0,0-.73.17,1.28,1.28,0,0,0-.5.48,1.41,1.41,0,0,0-.18.71,1.39,1.39,0,0,0,.18.71,1.31,1.31,0,0,0,.5.49,1.65,1.65,0,0,0,1.46,0Z"/><path d="M180.8,167.4a1.71,1.71,0,0,1-.68-.68,1.88,1.88,0,0,1-.25-1,1.85,1.85,0,0,1,.25-1,1.71,1.71,0,0,1,.68-.68,1.94,1.94,0,0,1,1-.24,2,2,0,0,1,1,.24,1.69,1.69,0,0,1,.67.68,1.85,1.85,0,0,1,.25,1,1.88,1.88,0,0,1-.25,1,1.69,1.69,0,0,1-.67.68,2,2,0,0,1-1,.24A1.94,1.94,0,0,1,180.8,167.4Zm1.68-.38a1.36,1.36,0,0,0,.49-.52,1.67,1.67,0,0,0,0-1.51,1.23,1.23,0,0,0-.49-.52,1.41,1.41,0,0,0-.71-.18,1.39,1.39,0,0,0-.71.18,1.26,1.26,0,0,0-.5.52,1.67,1.67,0,0,0,0,1.51,1.32,1.32,0,0,0,1.21.7A1.41,1.41,0,0,0,182.48,167Z"/><path d="M186.65,167.38a1,1,0,0,1-.35.2,1.61,1.61,0,0,1-.44.06,1.05,1.05,0,0,1-.8-.28,1.09,1.09,0,0,1-.29-.8v-2.25h-.66v-.43h.66v-.81h.5v.81h1.14v.43h-1.14v2.22a.73.73,0,0,0,.17.51.65.65,0,0,0,.48.17,1,1,0,0,0,.3-.05.68.68,0,0,0,.25-.14Z"/><path d="M190,164.22a1.4,1.4,0,0,1,.39,1.08v2.31h-.49V167a1.16,1.16,0,0,1-.5.45,1.73,1.73,0,0,1-.78.16,1.54,1.54,0,0,1-1-.3.93.93,0,0,1-.37-.78,1,1,0,0,1,.35-.77,1.67,1.67,0,0,1,1.09-.29h1.18v-.22a1,1,0,0,0-.27-.74,1.14,1.14,0,0,0-.78-.25,1.91,1.91,0,0,0-.68.12,1.61,1.61,0,0,0-.56.32l-.23-.37A2,2,0,0,1,188,164a2.89,2.89,0,0,1,.84-.13A1.56,1.56,0,0,1,190,164.22Zm-.57,2.83a1.2,1.2,0,0,0,.45-.56v-.61H188.7c-.63,0-.95.22-.95.66a.61.61,0,0,0,.25.52,1.13,1.13,0,0,0,.69.19A1.33,1.33,0,0,0,189.42,167.05Zm0-4.63h.67l-1.14.88h-.5Z"/></g></g></svg>